999
DXF created by Inkscape
  0
SECTION
  2
HEADER
  9
$ACADVER
  1
AC1014
  9
$HANDSEED
  5
FFFF
  9
$MEASUREMENT
 70
     1
  0
ENDSEC
  0
SECTION
  2
TABLES
  0
TABLE
  2
VPORT
  5
8
330
0
100
AcDbSymbolTable
 70
     4
  0
VPORT
  5
2E
330
8
100
AcDbSymbolTableRecord
100
AcDbViewportTableRecord
  2
*ACTIVE
 70
     0
 10
0.0
 20
0.0
 11
1.0
 21
1.0
 12
210.0
 22
148.5
 13
0.0
 23
0.0
 14
10.0
 24
10.0
 15
10.0
 25
10.0
 16
0.0
 26
0.0
 36
1.0
 17
0.0
 27
0.0
 37
0.0
 40
341.0
 41
1.24
 42
50.0
 43
0.0
 44
0.0
 50
0.0
 51
0.0
 71
     0
 72
   100
 73
     1
 74
     3
 75
     0
 76
     0
 77
     0
 78
     0
  0
ENDTAB
  0
TABLE
  2
LTYPE
  5
5
330
0
100
AcDbSymbolTable
 70
     1
  0
LTYPE
  5
14
330
5
100
AcDbSymbolTableRecord
100
AcDbLinetypeTableRecord
  2
BYBLOCK
 70
     0
  3

 72
    65
 73
     0
 40
0.0
  0
LTYPE
  5
15
330
5
100
AcDbSymbolTableRecord
100
AcDbLinetypeTableRecord
  2
BYLAYER
 70
     0
  3

 72
    65
 73
     0
 40
0.0
  0
LTYPE
  5
16
330
5
100
AcDbSymbolTableRecord
100
AcDbLinetypeTableRecord
  2
CONTINUOUS
 70
     0
  3
Solid line
 72
    65
 73
     0
 40
0.0
  0
ENDTAB
  0
TABLE
  2
LAYER
  5
2
100
AcDbSymbolTable
 70
2
  0
LAYER
  5
50
100
AcDbSymbolTableRecord
100
AcDbLayerTableRecord
  2
0
 70
0
  6
CONTINUOUS
  0
LAYER
  5
51
100
AcDbSymbolTableRecord
100
AcDbLayerTableRecord
  2
Layer_1
 70
0
  6
CONTINUOUS
  0
ENDTAB
  0
TABLE
  2
STYLE
  5
3
330
0
100
AcDbSymbolTable
 70
     1
  0
STYLE
  5
11
330
3
100
AcDbSymbolTableRecord
100
AcDbTextStyleTableRecord
  2
STANDARD
 70
     0
 40
0.0
 41
1.0
 50
0.0
 71
     0
 42
2.5
  3
txt
  4

  0
ENDTAB
  0
TABLE
  2
VIEW
  5
6
330
0
100
AcDbSymbolTable
 70
     0
  0
ENDTAB
  0
TABLE
  2
UCS
  5
7
330
0
100
AcDbSymbolTable
 70
     0
  0
ENDTAB
  0
TABLE
  2
APPID
  5
9
330
0
100
AcDbSymbolTable
 70
     2
  0
APPID
  5
12
330
9
100
AcDbSymbolTableRecord
100
AcDbRegAppTableRecord
  2
ACAD
 70
     0
  0
ENDTAB
  0
TABLE
  2
DIMSTYLE
  5
A
330
0
100
AcDbSymbolTable
 70
     1
  0
DIMSTYLE
105
27
330
A
100
AcDbSymbolTableRecord
100
AcDbDimStyleTableRecord
  2
ISO-25
 70
     0
  3

  4

  5

  6

  7

 40
1.0
 41
2.5
 42
0.625
 43
3.75
 44
1.25
 45
0.0
 46
0.0
 47
0.0
 48
0.0
140
2.5
141
2.5
142
0.0
143
0.03937007874016
144
1.0
145
0.0
146
1.0
147
0.625
 71
     0
 72
     0
 73
     0
 74
     0
 75
     0
 76
     0
 77
     1
 78
     8
170
     0
171
     3
172
     1
173
     0
174
     0
175
     0
176
     0
177
     0
178
     0
270
     2
271
     2
272
     2
273
     2
274
     3
340
11
275
     0
280
     0
281
     0
282
     0
283
     0
284
     8
285
     0
286
     0
287
     3
288
     0
  0
ENDTAB
  0
TABLE
  2
BLOCK_RECORD
  5
1
330
0
100
AcDbSymbolTable
 70
     1
  0
BLOCK_RECORD
  5
1F
330
1
100
AcDbSymbolTableRecord
100
AcDbBlockTableRecord
  2
*MODEL_SPACE
  0
BLOCK_RECORD
  5
1B
330
1
100
AcDbSymbolTableRecord
100
AcDbBlockTableRecord
  2
*PAPER_SPACE
  0
ENDTAB
  0
ENDSEC
  0
SECTION
  2
BLOCKS
  0
BLOCK
  5
20
330
1F
100
AcDbEntity
  8
0
100
AcDbBlockBegin
  2
*MODEL_SPACE
 70
     0
 10
0.0
 20
0.0
 30
0.0
  3
*MODEL_SPACE
  1

  0
ENDBLK
  5
21
330
1F
100
AcDbEntity
  8
0
100
AcDbBlockEnd
  0
BLOCK
  5
1C
330
1B
100
AcDbEntity
 67
     1
  8
0
100
AcDbBlockBegin
  2
*PAPER_SPACE
  1

  0
ENDBLK
  5
1D
330
1B
100
AcDbEntity
 67
     1
  8
0
100
AcDbBlockEnd
  0
ENDSEC
  0
SECTION
  2
ENTITIES
  0
LINE
  5
100
100
AcDbEntity
  8
Layer_1
 62
7
100
AcDbLine
 10
66.335035
 20
226.192138
 30
0.0
 11
167.638555
 21
249.916525
 31
0.0
  0
SPLINE
  5
101
100
AcDbEntity
  8
Layer_1
 62
7
100
AcDbSpline
 70
8
 71
3
 72
8
 73
4
 74
0
 40
0
 40
0
 40
0
 40
0
 40
1
 40
1
 40
1
 40
1
 10
224.651037
 20
249.914869
 30
0.0
 10
205.900735
 20
254.307185
 30
0.0
 10
186.389118
 20
254.307765
 30
0.0
 10
167.638555
 20
249.916562
 30
0.0
  0
SPLINE
  5
102
100
AcDbEntity
  8
Layer_1
 62
7
100
AcDbSpline
 70
8
 71
3
 72
8
 73
4
 74
0
 40
0
 40
0
 40
0
 40
0
 40
1
 40
1
 40
1
 40
1
 10
61.474562
 20
220.425542
 30
0.0
 10
61.474562
 20
220.425542
 30
0.0
 10
56.474563
 20
211.765288
 30
0.0
 10
56.474563
 20
211.765288
 30
0.0
  0
SPLINE
  5
103
100
AcDbEntity
  8
Layer_1
 62
7
100
AcDbSpline
 70
8
 71
3
 72
8
 73
4
 74
0
 40
0
 40
0
 40
0
 40
0
 40
1
 40
1
 40
1
 40
1
 10
56.474563
 20
211.765288
 30
0.0
 10
55.728979
 20
210.473897
 30
0.0
 10
56.171442
 20
208.822603
 30
0.0
 10
57.462832
 20
208.077019
 30
0.0
  0
SPLINE
  5
104
100
AcDbEntity
  8
Layer_1
 62
7
100
AcDbSpline
 70
8
 71
3
 72
8
 73
4
 74
0
 40
0
 40
0
 40
0
 40
0
 40
1
 40
1
 40
1
 40
1
 10
57.462832
 20
208.077019
 30
0.0
 10
58.754222
 20
207.331434
 30
0.0
 10
60.405517
 20
207.773897
 30
0.0
 10
61.151101
 20
209.065287
 30
0.0
  0
SPLINE
  5
105
100
AcDbEntity
  8
Layer_1
 62
7
100
AcDbSpline
 70
8
 71
3
 72
8
 73
4
 74
0
 40
0
 40
0
 40
0
 40
0
 40
1
 40
1
 40
1
 40
1
 10
61.151101
 20
209.065287
 30
0.0
 10
61.151101
 20
209.065287
 30
0.0
 10
66.151100
 20
217.725542
 30
0.0
 10
66.151100
 20
217.725542
 30
0.0
  0
SPLINE
  5
106
100
AcDbEntity
  8
Layer_1
 62
7
100
AcDbSpline
 70
8
 71
3
 72
8
 73
4
 74
0
 40
0
 40
0
 40
0
 40
0
 40
1
 40
1
 40
1
 40
1
 10
66.151100
 20
217.725542
 30
0.0
 10
66.633408
 20
218.560925
 30
0.0
 10
66.633408
 20
219.590159
 30
0.0
 10
66.151100
 20
220.425542
 30
0.0
  0
SPLINE
  5
107
100
AcDbEntity
  8
Layer_1
 62
7
100
AcDbSpline
 70
8
 71
3
 72
8
 73
4
 74
0
 40
0
 40
0
 40
0
 40
0
 40
1
 40
1
 40
1
 40
1
 10
66.151100
 20
220.425542
 30
0.0
 10
65.668791
 20
221.260925
 30
0.0
 10
64.777448
 20
221.775542
 30
0.0
 10
63.812831
 20
221.775542
 30
0.0
  0
SPLINE
  5
108
100
AcDbEntity
  8
Layer_1
 62
7
100
AcDbSpline
 70
8
 71
3
 72
8
 73
4
 74
0
 40
0
 40
0
 40
0
 40
0
 40
1
 40
1
 40
1
 40
1
 10
63.812831
 20
221.775542
 30
0.0
 10
62.848213
 20
221.775542
 30
0.0
 10
61.956870
 20
221.260925
 30
0.0
 10
61.474562
 20
220.425542
 30
0.0
  0
LINE
  5
109
100
AcDbEntity
  8
Layer_1
 62
7
100
AcDbLine
 10
61.474562
 20
220.425542
 30
0.0
 11
61.474562
 21
220.425542
 31
0.0
  0
LINE
  5
10a
100
AcDbEntity
  8
Layer_1
 62
7
100
AcDbLine
 10
65.611211
 20
133.765204
 30
0.0
 11
61.975390
 21
202.262987
 31
0.0
  0
SPLINE
  5
10b
100
AcDbEntity
  8
Layer_1
 62
7
100
AcDbSpline
 70
8
 71
3
 72
8
 73
4
 74
0
 40
0
 40
0
 40
0
 40
0
 40
1
 40
1
 40
1
 40
1
 10
65.611211
 20
133.765204
 30
0.0
 10
60.199319
 20
133.477851
 30
0.0
 10
56.001265
 20
128.931764
 30
0.0
 10
56.144946
 20
123.514153
 30
0.0
  0
SPLINE
  5
10c
100
AcDbEntity
  8
Layer_1
 62
7
100
AcDbSpline
 70
8
 71
3
 72
8
 73
4
 74
0
 40
0
 40
0
 40
0
 40
0
 40
1
 40
1
 40
1
 40
1
 10
56.144946
 20
123.514153
 30
0.0
 10
56.288626
 20
118.096542
 30
0.0
 10
60.721743
 20
113.779364
 30
0.0
 10
66.141259
 20
113.779270
 30
0.0
  0
SPLINE
  5
10d
100
AcDbEntity
  8
Layer_1
 62
7
100
AcDbSpline
 70
8
 71
3
 72
8
 73
4
 74
0
 40
0
 40
0
 40
0
 40
0
 40
1
 40
1
 40
1
 40
1
 10
68.841259
 20
123.779279
 30
0.0
 10
68.841259
 20
124.743896
 30
0.0
 10
68.326642
 20
125.635239
 30
0.0
 10
67.491259
 20
126.117547
 30
0.0
  0
SPLINE
  5
10e
100
AcDbEntity
  8
Layer_1
 62
7
100
AcDbSpline
 70
8
 71
3
 72
8
 73
4
 74
0
 40
0
 40
0
 40
0
 40
0
 40
1
 40
1
 40
1
 40
1
 10
67.491259
 20
126.117547
 30
0.0
 10
66.655876
 20
126.599856
 30
0.0
 10
65.626641
 20
126.599856
 30
0.0
 10
64.791258
 20
126.117547
 30
0.0
  0
SPLINE
  5
10f
100
AcDbEntity
  8
Layer_1
 62
7
100
AcDbSpline
 70
8
 71
3
 72
8
 73
4
 74
0
 40
0
 40
0
 40
0
 40
0
 40
1
 40
1
 40
1
 40
1
 10
64.791258
 20
126.117547
 30
0.0
 10
63.955875
 20
125.635239
 30
0.0
 10
63.441258
 20
124.743896
 30
0.0
 10
63.441258
 20
123.779279
 30
0.0
  0
SPLINE
  5
110
100
AcDbEntity
  8
Layer_1
 62
7
100
AcDbSpline
 70
8
 71
3
 72
8
 73
4
 74
0
 40
0
 40
0
 40
0
 40
0
 40
1
 40
1
 40
1
 40
1
 10
63.441258
 20
123.779279
 30
0.0
 10
63.441258
 20
122.814661
 30
0.0
 10
63.955875
 20
121.923318
 30
0.0
 10
64.791258
 20
121.441010
 30
0.0
  0
SPLINE
  5
111
100
AcDbEntity
  8
Layer_1
 62
7
100
AcDbSpline
 70
8
 71
3
 72
8
 73
4
 74
0
 40
0
 40
0
 40
0
 40
0
 40
1
 40
1
 40
1
 40
1
 10
64.791258
 20
121.441010
 30
0.0
 10
65.626641
 20
120.958701
 30
0.0
 10
66.655876
 20
120.958701
 30
0.0
 10
67.491259
 20
121.441010
 30
0.0
  0
SPLINE
  5
112
100
AcDbEntity
  8
Layer_1
 62
7
100
AcDbSpline
 70
8
 71
3
 72
8
 73
4
 74
0
 40
0
 40
0
 40
0
 40
0
 40
1
 40
1
 40
1
 40
1
 10
67.491259
 20
121.441010
 30
0.0
 10
68.326642
 20
121.923318
 30
0.0
 10
68.841259
 20
122.814661
 30
0.0
 10
68.841259
 20
123.779279
 30
0.0
  0
LINE
  5
113
100
AcDbEntity
  8
Layer_1
 62
7
100
AcDbLine
 10
68.841259
 20
123.779279
 30
0.0
 11
68.841259
 21
123.779279
 31
0.0
  0
SPLINE
  5
114
100
AcDbEntity
  8
Layer_1
 62
7
100
AcDbSpline
 70
8
 71
3
 72
8
 73
4
 74
0
 40
0
 40
0
 40
0
 40
0
 40
1
 40
1
 40
1
 40
1
 10
68.841259
 20
18.209513
 30
0.0
 10
68.841259
 20
19.174130
 30
0.0
 10
68.326642
 20
20.065473
 30
0.0
 10
67.491259
 20
20.547781
 30
0.0
  0
SPLINE
  5
115
100
AcDbEntity
  8
Layer_1
 62
7
100
AcDbSpline
 70
8
 71
3
 72
8
 73
4
 74
0
 40
0
 40
0
 40
0
 40
0
 40
1
 40
1
 40
1
 40
1
 10
67.491259
 20
20.547781
 30
0.0
 10
66.655876
 20
21.030090
 30
0.0
 10
65.626641
 20
21.030090
 30
0.0
 10
64.791258
 20
20.547781
 30
0.0
  0
SPLINE
  5
116
100
AcDbEntity
  8
Layer_1
 62
7
100
AcDbSpline
 70
8
 71
3
 72
8
 73
4
 74
0
 40
0
 40
0
 40
0
 40
0
 40
1
 40
1
 40
1
 40
1
 10
64.791258
 20
20.547781
 30
0.0
 10
63.955875
 20
20.065473
 30
0.0
 10
63.441258
 20
19.174130
 30
0.0
 10
63.441258
 20
18.209513
 30
0.0
  0
SPLINE
  5
117
100
AcDbEntity
  8
Layer_1
 62
7
100
AcDbSpline
 70
8
 71
3
 72
8
 73
4
 74
0
 40
0
 40
0
 40
0
 40
0
 40
1
 40
1
 40
1
 40
1
 10
63.441258
 20
18.209513
 30
0.0
 10
63.441258
 20
17.244895
 30
0.0
 10
63.955875
 20
16.353552
 30
0.0
 10
64.791258
 20
15.871244
 30
0.0
  0
SPLINE
  5
118
100
AcDbEntity
  8
Layer_1
 62
7
100
AcDbSpline
 70
8
 71
3
 72
8
 73
4
 74
0
 40
0
 40
0
 40
0
 40
0
 40
1
 40
1
 40
1
 40
1
 10
64.791258
 20
15.871244
 30
0.0
 10
65.626641
 20
15.388935
 30
0.0
 10
66.655876
 20
15.388935
 30
0.0
 10
67.491259
 20
15.871244
 30
0.0
  0
SPLINE
  5
119
100
AcDbEntity
  8
Layer_1
 62
7
100
AcDbSpline
 70
8
 71
3
 72
8
 73
4
 74
0
 40
0
 40
0
 40
0
 40
0
 40
1
 40
1
 40
1
 40
1
 10
67.491259
 20
15.871244
 30
0.0
 10
68.326642
 20
16.353552
 30
0.0
 10
68.841259
 20
17.244895
 30
0.0
 10
68.841259
 20
18.209513
 30
0.0
  0
LINE
  5
11a
100
AcDbEntity
  8
Layer_1
 62
7
100
AcDbLine
 10
68.841259
 20
18.209513
 30
0.0
 11
68.841259
 21
18.209513
 31
0.0
  0
SPLINE
  5
11b
100
AcDbEntity
  8
Layer_1
 62
7
100
AcDbSpline
 70
8
 71
3
 72
8
 73
4
 74
0
 40
0
 40
0
 40
0
 40
0
 40
1
 40
1
 40
1
 40
1
 10
66.141259
 20
28.209521
 30
0.0
 10
62.568600
 20
28.209521
 30
0.0
 10
59.267327
 20
26.303530
 30
0.0
 10
57.480997
 20
23.209517
 30
0.0
  0
SPLINE
  5
11c
100
AcDbEntity
  8
Layer_1
 62
7
100
AcDbSpline
 70
8
 71
3
 72
8
 73
4
 74
0
 40
0
 40
0
 40
0
 40
0
 40
1
 40
1
 40
1
 40
1
 10
57.480997
 20
23.209517
 30
0.0
 10
55.694668
 20
20.115503
 30
0.0
 10
55.694668
 20
16.303522
 30
0.0
 10
57.480997
 20
13.209508
 30
0.0
  0
SPLINE
  5
11d
100
AcDbEntity
  8
Layer_1
 62
7
100
AcDbSpline
 70
8
 71
3
 72
8
 73
4
 74
0
 40
0
 40
0
 40
0
 40
0
 40
1
 40
1
 40
1
 40
1
 10
57.480997
 20
13.209508
 30
0.0
 10
59.267327
 20
10.115495
 30
0.0
 10
62.568600
 20
8.209504
 30
0.0
 10
66.141259
 20
8.209504
 30
0.0
  0
LINE
  5
11e
100
AcDbEntity
  8
Layer_1
 62
7
100
AcDbLine
 10
66.141259
 20
28.209521
 30
0.0
 11
66.141259
 21
113.779270
 31
0.0
  0
SPLINE
  5
11f
100
AcDbEntity
  8
Layer_1
 62
7
100
AcDbSpline
 70
8
 71
3
 72
8
 73
4
 74
0
 40
0
 40
0
 40
0
 40
0
 40
1
 40
1
 40
1
 40
1
 10
66.335035
 20
226.192138
 30
0.0
 10
61.602594
 20
228.268478
 30
0.0
 10
56.080334
 20
227.218513
 30
0.0
 10
52.440131
 20
223.550255
 30
0.0
  0
SPLINE
  5
120
100
AcDbEntity
  8
Layer_1
 62
7
100
AcDbSpline
 70
8
 71
3
 72
8
 73
4
 74
0
 40
0
 40
0
 40
0
 40
0
 40
1
 40
1
 40
1
 40
1
 10
52.440131
 20
223.550255
 30
0.0
 10
48.799928
 20
219.881998
 30
0.0
 10
47.792390
 20
214.351839
 30
0.0
 10
49.905002
 20
209.635478
 30
0.0
  0
SPLINE
  5
121
100
AcDbEntity
  8
Layer_1
 62
7
100
AcDbSpline
 70
8
 71
3
 72
8
 73
4
 74
0
 40
0
 40
0
 40
0
 40
0
 40
1
 40
1
 40
1
 40
1
 10
49.905002
 20
209.635478
 30
0.0
 10
52.017613
 20
204.919117
 30
0.0
 10
56.814755
 20
201.989063
 30
0.0
 10
61.975390
 20
202.262987
 30
0.0
  0
SPLINE
  5
122
100
AcDbEntity
  8
Layer_1
 62
7
100
AcDbSpline
 70
8
 71
3
 72
8
 73
4
 74
0
 40
0
 40
0
 40
0
 40
0
 40
1
 40
1
 40
1
 40
1
 10
335.813939
 20
211.760970
 30
0.0
 10
336.558886
 20
210.469612
 30
0.0
 10
336.116227
 20
208.818871
 30
0.0
 10
334.825114
 20
208.073500
 30
0.0
  0
SPLINE
  5
123
100
AcDbEntity
  8
Layer_1
 62
7
100
AcDbSpline
 70
8
 71
3
 72
8
 73
4
 74
0
 40
0
 40
0
 40
0
 40
0
 40
1
 40
1
 40
1
 40
1
 10
334.825114
 20
208.073500
 30
0.0
 10
333.534001
 20
207.328128
 30
0.0
 10
331.883115
 20
207.770245
 30
0.0
 10
331.137319
 20
209.061113
 30
0.0
  0
SPLINE
  5
124
100
AcDbEntity
  8
Layer_1
 62
7
100
AcDbSpline
 70
8
 71
3
 72
8
 73
4
 74
0
 40
0
 40
0
 40
0
 40
0
 40
1
 40
1
 40
1
 40
1
 10
331.137319
 20
209.061113
 30
0.0
 10
331.137319
 20
209.061113
 30
0.0
 10
326.137586
 20
217.721523
 30
0.0
 10
326.137586
 20
217.721523
 30
0.0
  0
SPLINE
  5
125
100
AcDbEntity
  8
Layer_1
 62
7
100
AcDbSpline
 70
8
 71
3
 72
8
 73
4
 74
0
 40
0
 40
0
 40
0
 40
0
 40
1
 40
1
 40
1
 40
1
 10
326.137586
 20
217.721523
 30
0.0
 10
325.392578
 20
219.012886
 30
0.0
 10
325.835222
 20
220.663682
 30
0.0
 10
327.126366
 20
221.409071
 30
0.0
  0
SPLINE
  5
126
100
AcDbEntity
  8
Layer_1
 62
7
100
AcDbSpline
 70
8
 71
3
 72
8
 73
4
 74
0
 40
0
 40
0
 40
0
 40
0
 40
1
 40
1
 40
1
 40
1
 10
327.126366
 20
221.409071
 30
0.0
 10
328.417510
 20
222.154460
 30
0.0
 10
330.068436
 20
221.712303
 30
0.0
 10
330.814206
 20
220.421379
 30
0.0
  0
LINE
  5
127
100
AcDbEntity
  8
Layer_1
 62
7
100
AcDbLine
 10
330.814206
 20
220.421379
 30
0.0
 11
335.813939
 21
211.760970
 31
0.0
  0
LINE
  5
128
100
AcDbEntity
  8
Layer_1
 62
7
100
AcDbLine
 10
335.813939
 20
211.760970
 30
0.0
 11
335.813939
 21
211.760970
 31
0.0
  0
SPLINE
  5
129
100
AcDbEntity
  8
Layer_1
 62
7
100
AcDbSpline
 70
8
 71
3
 72
8
 73
4
 74
0
 40
0
 40
0
 40
0
 40
0
 40
1
 40
1
 40
1
 40
1
 10
330.312818
 20
202.258838
 30
0.0
 10
335.473445
 20
201.984756
 30
0.0
 10
340.270677
 20
204.914661
 30
0.0
 10
342.383433
 20
209.630957
 30
0.0
  0
SPLINE
  5
12a
100
AcDbEntity
  8
Layer_1
 62
7
100
AcDbSpline
 70
8
 71
3
 72
8
 73
4
 74
0
 40
0
 40
0
 40
0
 40
0
 40
1
 40
1
 40
1
 40
1
 10
342.383433
 20
209.630957
 30
0.0
 10
344.496190
 20
214.347253
 30
0.0
 10
343.488824
 20
219.877442
 30
0.0
 10
339.848735
 20
223.545812
 30
0.0
  0
SPLINE
  5
12b
100
AcDbEntity
  8
Layer_1
 62
7
100
AcDbSpline
 70
8
 71
3
 72
8
 73
4
 74
0
 40
0
 40
0
 40
0
 40
0
 40
1
 40
1
 40
1
 40
1
 10
339.848735
 20
223.545812
 30
0.0
 10
336.208646
 20
227.214182
 30
0.0
 10
330.686419
 20
228.264318
 30
0.0
 10
325.953913
 20
226.188125
 30
0.0
  0
LINE
  5
12c
100
AcDbEntity
  8
Layer_1
 62
7
100
AcDbLine
 10
326.674878
 20
133.761168
 30
0.0
 11
330.312818
 21
202.258838
 31
0.0
  0
LINE
  5
12d
100
AcDbEntity
  8
Layer_1
 62
7
100
AcDbLine
 10
325.953913
 20
226.188125
 30
0.0
 11
224.651127
 21
249.915645
 31
0.0
  0
SPLINE
  5
12e
100
AcDbEntity
  8
Layer_1
 62
7
100
AcDbSpline
 70
8
 71
3
 72
8
 73
4
 74
0
 40
0
 40
0
 40
0
 40
0
 40
1
 40
1
 40
1
 40
1
 10
326.144213
 20
113.775235
 30
0.0
 10
331.563849
 20
113.774993
 30
0.0
 10
335.997285
 20
118.092082
 30
0.0
 10
336.141136
 20
123.509809
 30
0.0
  0
SPLINE
  5
12f
100
AcDbEntity
  8
Layer_1
 62
7
100
AcDbSpline
 70
8
 71
3
 72
8
 73
4
 74
0
 40
0
 40
0
 40
0
 40
0
 40
1
 40
1
 40
1
 40
1
 10
336.141136
 20
123.509809
 30
0.0
 10
336.284987
 20
128.927535
 30
0.0
 10
332.086890
 20
133.473809
 30
0.0
 10
326.674878
 20
133.761168
 30
0.0
  0
SPLINE
  5
130
100
AcDbEntity
  8
Layer_1
 62
7
100
AcDbSpline
 70
8
 71
3
 72
8
 73
4
 74
0
 40
0
 40
0
 40
0
 40
0
 40
1
 40
1
 40
1
 40
1
 10
328.844523
 20
123.775243
 30
0.0
 10
328.844523
 20
124.739860
 30
0.0
 10
328.329906
 20
125.631203
 30
0.0
 10
327.494523
 20
126.113512
 30
0.0
  0
SPLINE
  5
131
100
AcDbEntity
  8
Layer_1
 62
7
100
AcDbSpline
 70
8
 71
3
 72
8
 73
4
 74
0
 40
0
 40
0
 40
0
 40
0
 40
1
 40
1
 40
1
 40
1
 10
327.494523
 20
126.113512
 30
0.0
 10
326.659140
 20
126.595820
 30
0.0
 10
325.629906
 20
126.595820
 30
0.0
 10
324.794523
 20
126.113512
 30
0.0
  0
SPLINE
  5
132
100
AcDbEntity
  8
Layer_1
 62
7
100
AcDbSpline
 70
8
 71
3
 72
8
 73
4
 74
0
 40
0
 40
0
 40
0
 40
0
 40
1
 40
1
 40
1
 40
1
 10
324.794523
 20
126.113512
 30
0.0
 10
323.959140
 20
125.631203
 30
0.0
 10
323.444523
 20
124.739860
 30
0.0
 10
323.444523
 20
123.775243
 30
0.0
  0
SPLINE
  5
133
100
AcDbEntity
  8
Layer_1
 62
7
100
AcDbSpline
 70
8
 71
3
 72
8
 73
4
 74
0
 40
0
 40
0
 40
0
 40
0
 40
1
 40
1
 40
1
 40
1
 10
323.444523
 20
123.775243
 30
0.0
 10
323.444523
 20
122.810626
 30
0.0
 10
323.959140
 20
121.919283
 30
0.0
 10
324.794523
 20
121.436974
 30
0.0
  0
SPLINE
  5
134
100
AcDbEntity
  8
Layer_1
 62
7
100
AcDbSpline
 70
8
 71
3
 72
8
 73
4
 74
0
 40
0
 40
0
 40
0
 40
0
 40
1
 40
1
 40
1
 40
1
 10
324.794523
 20
121.436974
 30
0.0
 10
325.629906
 20
120.954665
 30
0.0
 10
326.659140
 20
120.954665
 30
0.0
 10
327.494523
 20
121.436974
 30
0.0
  0
SPLINE
  5
135
100
AcDbEntity
  8
Layer_1
 62
7
100
AcDbSpline
 70
8
 71
3
 72
8
 73
4
 74
0
 40
0
 40
0
 40
0
 40
0
 40
1
 40
1
 40
1
 40
1
 10
327.494523
 20
121.436974
 30
0.0
 10
328.329906
 20
121.919283
 30
0.0
 10
328.844523
 20
122.810626
 30
0.0
 10
328.844523
 20
123.775243
 30
0.0
  0
LINE
  5
136
100
AcDbEntity
  8
Layer_1
 62
7
100
AcDbLine
 10
328.844523
 20
123.775243
 30
0.0
 11
328.844523
 21
123.775243
 31
0.0
  0
LINE
  5
137
100
AcDbEntity
  8
Layer_1
 62
7
100
AcDbLine
 10
326.141568
 20
28.205485
 30
0.0
 11
326.144108
 21
113.775235
 31
0.0
  0
SPLINE
  5
138
100
AcDbEntity
  8
Layer_1
 62
7
100
AcDbSpline
 70
8
 71
3
 72
8
 73
4
 74
0
 40
0
 40
0
 40
0
 40
0
 40
1
 40
1
 40
1
 40
1
 10
328.841258
 20
18.205505
 30
0.0
 10
328.841258
 20
19.170122
 30
0.0
 10
328.326641
 20
20.061465
 30
0.0
 10
327.491258
 20
20.543774
 30
0.0
  0
SPLINE
  5
139
100
AcDbEntity
  8
Layer_1
 62
7
100
AcDbSpline
 70
8
 71
3
 72
8
 73
4
 74
0
 40
0
 40
0
 40
0
 40
0
 40
1
 40
1
 40
1
 40
1
 10
327.491258
 20
20.543774
 30
0.0
 10
326.655875
 20
21.026082
 30
0.0
 10
325.626641
 20
21.026082
 30
0.0
 10
324.791258
 20
20.543774
 30
0.0
  0
SPLINE
  5
13a
100
AcDbEntity
  8
Layer_1
 62
7
100
AcDbSpline
 70
8
 71
3
 72
8
 73
4
 74
0
 40
0
 40
0
 40
0
 40
0
 40
1
 40
1
 40
1
 40
1
 10
324.791258
 20
20.543774
 30
0.0
 10
323.955875
 20
20.061465
 30
0.0
 10
323.441258
 20
19.170122
 30
0.0
 10
323.441258
 20
18.205505
 30
0.0
  0
SPLINE
  5
13b
100
AcDbEntity
  8
Layer_1
 62
7
100
AcDbSpline
 70
8
 71
3
 72
8
 73
4
 74
0
 40
0
 40
0
 40
0
 40
0
 40
1
 40
1
 40
1
 40
1
 10
323.441258
 20
18.205505
 30
0.0
 10
323.441258
 20
17.240888
 30
0.0
 10
323.955875
 20
16.349545
 30
0.0
 10
324.791258
 20
15.867236
 30
0.0
  0
SPLINE
  5
13c
100
AcDbEntity
  8
Layer_1
 62
7
100
AcDbSpline
 70
8
 71
3
 72
8
 73
4
 74
0
 40
0
 40
0
 40
0
 40
0
 40
1
 40
1
 40
1
 40
1
 10
324.791258
 20
15.867236
 30
0.0
 10
325.626641
 20
15.384928
 30
0.0
 10
326.655875
 20
15.384928
 30
0.0
 10
327.491258
 20
15.867236
 30
0.0
  0
SPLINE
  5
13d
100
AcDbEntity
  8
Layer_1
 62
7
100
AcDbSpline
 70
8
 71
3
 72
8
 73
4
 74
0
 40
0
 40
0
 40
0
 40
0
 40
1
 40
1
 40
1
 40
1
 10
327.491258
 20
15.867236
 30
0.0
 10
328.326641
 20
16.349545
 30
0.0
 10
328.841258
 20
17.240888
 30
0.0
 10
328.841258
 20
18.205505
 30
0.0
  0
LINE
  5
13e
100
AcDbEntity
  8
Layer_1
 62
7
100
AcDbLine
 10
328.841258
 20
18.205505
 30
0.0
 11
328.841258
 21
18.205505
 31
0.0
  0
SPLINE
  5
13f
100
AcDbEntity
  8
Layer_1
 62
7
100
AcDbSpline
 70
8
 71
3
 72
8
 73
4
 74
0
 40
0
 40
0
 40
0
 40
0
 40
1
 40
1
 40
1
 40
1
 10
326.141103
 20
8.205497
 30
0.0
 10
331.659697
 20
8.211347
 30
0.0
 10
336.130345
 20
12.686611
 30
0.0
 10
336.130501
 20
18.205209
 30
0.0
  0
SPLINE
  5
140
100
AcDbEntity
  8
Layer_1
 62
7
100
AcDbSpline
 70
8
 71
3
 72
8
 73
4
 74
0
 40
0
 40
0
 40
0
 40
0
 40
1
 40
1
 40
1
 40
1
 10
336.130501
 20
18.205209
 30
0.0
 10
336.130657
 20
23.723807
 30
0.0
 10
331.660261
 20
28.199323
 30
0.0
 10
326.141667
 20
28.205485
 30
0.0
  0
LINE
  5
141
100
AcDbEntity
  8
Layer_1
 62
7
100
AcDbLine
 10
326.141103
 20
8.205497
 30
0.0
 11
201.037034
 21
3.305301
 31
0.0
  0
LINE
  5
142
100
AcDbEntity
  8
Layer_1
 62
7
100
AcDbLine
 10
66.141259
 20
8.209504
 30
0.0
 11
191.248550
 21
3.305442
 31
0.0
  0
SPLINE
  5
143
100
AcDbEntity
  8
Layer_1
 62
7
100
AcDbSpline
 70
8
 71
3
 72
8
 73
4
 74
0
 40
0
 40
0
 40
0
 40
0
 40
1
 40
1
 40
1
 40
1
 10
191.248550
 20
3.305442
 30
0.0
 10
194.510125
 20
3.177593
 30
0.0
 10
197.775456
 20
3.177546
 30
0.0
 10
201.037034
 20
3.305301
 30
0.0
  0
ENDSEC
  0
SECTION
  2
OBJECTS
  0
DICTIONARY
  5
C
330
0
100
AcDbDictionary
  3
ACAD_GROUP
350
D
  3
ACAD_MLINESTYLE
350
17
  0
DICTIONARY
  5
D
330
C
100
AcDbDictionary
  0
DICTIONARY
  5
1A
330
C
100
AcDbDictionary
  0
DICTIONARY
  5
17
330
C
100
AcDbDictionary
  3
STANDARD
350
18
  0
DICTIONARY
  5
19
330
C
100
AcDbDictionary
  0
ENDSEC
  0
EOF
