999
DXF created by Inkscape
  0
SECTION
  2
HEADER
  9
$ACADVER
  1
AC1014
  9
$HANDSEED
  5
FFFF
  9
$MEASUREMENT
 70
     1
  0
ENDSEC
  0
SECTION
  2
TABLES
  0
TABLE
  2
VPORT
  5
8
330
0
100
AcDbSymbolTable
 70
     4
  0
VPORT
  5
2E
330
8
100
AcDbSymbolTableRecord
100
AcDbViewportTableRecord
  2
*ACTIVE
 70
     0
 10
0.0
 20
0.0
 11
1.0
 21
1.0
 12
210.0
 22
148.5
 13
0.0
 23
0.0
 14
10.0
 24
10.0
 15
10.0
 25
10.0
 16
0.0
 26
0.0
 36
1.0
 17
0.0
 27
0.0
 37
0.0
 40
341.0
 41
1.24
 42
50.0
 43
0.0
 44
0.0
 50
0.0
 51
0.0
 71
     0
 72
   100
 73
     1
 74
     3
 75
     0
 76
     0
 77
     0
 78
     0
  0
ENDTAB
  0
TABLE
  2
LTYPE
  5
5
330
0
100
AcDbSymbolTable
 70
     1
  0
LTYPE
  5
14
330
5
100
AcDbSymbolTableRecord
100
AcDbLinetypeTableRecord
  2
BYBLOCK
 70
     0
  3

 72
    65
 73
     0
 40
0.0
  0
LTYPE
  5
15
330
5
100
AcDbSymbolTableRecord
100
AcDbLinetypeTableRecord
  2
BYLAYER
 70
     0
  3

 72
    65
 73
     0
 40
0.0
  0
LTYPE
  5
16
330
5
100
AcDbSymbolTableRecord
100
AcDbLinetypeTableRecord
  2
CONTINUOUS
 70
     0
  3
Solid line
 72
    65
 73
     0
 40
0.0
  0
ENDTAB
  0
TABLE
  2
LAYER
  5
2
100
AcDbSymbolTable
 70
2
  0
LAYER
  5
50
100
AcDbSymbolTableRecord
100
AcDbLayerTableRecord
  2
0
 70
0
  6
CONTINUOUS
  0
LAYER
  5
51
100
AcDbSymbolTableRecord
100
AcDbLayerTableRecord
  2
Layer_1
 70
0
  6
CONTINUOUS
  0
ENDTAB
  0
TABLE
  2
STYLE
  5
3
330
0
100
AcDbSymbolTable
 70
     1
  0
STYLE
  5
11
330
3
100
AcDbSymbolTableRecord
100
AcDbTextStyleTableRecord
  2
STANDARD
 70
     0
 40
0.0
 41
1.0
 50
0.0
 71
     0
 42
2.5
  3
txt
  4

  0
ENDTAB
  0
TABLE
  2
VIEW
  5
6
330
0
100
AcDbSymbolTable
 70
     0
  0
ENDTAB
  0
TABLE
  2
UCS
  5
7
330
0
100
AcDbSymbolTable
 70
     0
  0
ENDTAB
  0
TABLE
  2
APPID
  5
9
330
0
100
AcDbSymbolTable
 70
     2
  0
APPID
  5
12
330
9
100
AcDbSymbolTableRecord
100
AcDbRegAppTableRecord
  2
ACAD
 70
     0
  0
ENDTAB
  0
TABLE
  2
DIMSTYLE
  5
A
330
0
100
AcDbSymbolTable
 70
     1
  0
DIMSTYLE
105
27
330
A
100
AcDbSymbolTableRecord
100
AcDbDimStyleTableRecord
  2
ISO-25
 70
     0
  3

  4

  5

  6

  7

 40
1.0
 41
2.5
 42
0.625
 43
3.75
 44
1.25
 45
0.0
 46
0.0
 47
0.0
 48
0.0
140
2.5
141
2.5
142
0.0
143
0.03937007874016
144
1.0
145
0.0
146
1.0
147
0.625
 71
     0
 72
     0
 73
     0
 74
     0
 75
     0
 76
     0
 77
     1
 78
     8
170
     0
171
     3
172
     1
173
     0
174
     0
175
     0
176
     0
177
     0
178
     0
270
     2
271
     2
272
     2
273
     2
274
     3
340
11
275
     0
280
     0
281
     0
282
     0
283
     0
284
     8
285
     0
286
     0
287
     3
288
     0
  0
ENDTAB
  0
TABLE
  2
BLOCK_RECORD
  5
1
330
0
100
AcDbSymbolTable
 70
     1
  0
BLOCK_RECORD
  5
1F
330
1
100
AcDbSymbolTableRecord
100
AcDbBlockTableRecord
  2
*MODEL_SPACE
  0
BLOCK_RECORD
  5
1B
330
1
100
AcDbSymbolTableRecord
100
AcDbBlockTableRecord
  2
*PAPER_SPACE
  0
ENDTAB
  0
ENDSEC
  0
SECTION
  2
BLOCKS
  0
BLOCK
  5
20
330
1F
100
AcDbEntity
  8
0
100
AcDbBlockBegin
  2
*MODEL_SPACE
 70
     0
 10
0.0
 20
0.0
 30
0.0
  3
*MODEL_SPACE
  1

  0
ENDBLK
  5
21
330
1F
100
AcDbEntity
  8
0
100
AcDbBlockEnd
  0
BLOCK
  5
1C
330
1B
100
AcDbEntity
 67
     1
  8
0
100
AcDbBlockBegin
  2
*PAPER_SPACE
  1

  0
ENDBLK
  5
1D
330
1B
100
AcDbEntity
 67
     1
  8
0
100
AcDbBlockEnd
  0
ENDSEC
  0
SECTION
  2
ENTITIES
  0
LINE
  5
100
100
AcDbEntity
  8
Layer_1
 62
7
100
AcDbLine
 10
-127.524475
 20
216.579011
 30
0.0
 11
-26.220955
 21
240.303398
 31
0.0
  0
SPLINE
  5
101
100
AcDbEntity
  8
Layer_1
 62
7
100
AcDbSpline
 70
8
 71
3
 72
8
 73
4
 74
0
 40
0
 40
0
 40
0
 40
0
 40
1
 40
1
 40
1
 40
1
 10
30.791527
 20
240.301742
 30
0.0
 10
12.041225
 20
244.694059
 30
0.0
 10
-7.470392
 20
244.694638
 30
0.0
 10
-26.220955
 20
240.303435
 30
0.0
  0
SPLINE
  5
102
100
AcDbEntity
  8
Layer_1
 62
7
100
AcDbSpline
 70
8
 71
3
 72
8
 73
4
 74
0
 40
0
 40
0
 40
0
 40
0
 40
1
 40
1
 40
1
 40
1
 10
-132.384948
 20
210.812415
 30
0.0
 10
-132.384948
 20
210.812415
 30
0.0
 10
-137.384947
 20
202.152161
 30
0.0
 10
-137.384947
 20
202.152161
 30
0.0
  0
SPLINE
  5
103
100
AcDbEntity
  8
Layer_1
 62
7
100
AcDbSpline
 70
8
 71
3
 72
8
 73
4
 74
0
 40
0
 40
0
 40
0
 40
0
 40
1
 40
1
 40
1
 40
1
 10
-137.384947
 20
202.152161
 30
0.0
 10
-138.130531
 20
200.860771
 30
0.0
 10
-137.688068
 20
199.209476
 30
0.0
 10
-136.396678
 20
198.463892
 30
0.0
  0
SPLINE
  5
104
100
AcDbEntity
  8
Layer_1
 62
7
100
AcDbSpline
 70
8
 71
3
 72
8
 73
4
 74
0
 40
0
 40
0
 40
0
 40
0
 40
1
 40
1
 40
1
 40
1
 10
-136.396678
 20
198.463892
 30
0.0
 10
-135.105287
 20
197.718307
 30
0.0
 10
-133.453993
 20
198.160770
 30
0.0
 10
-132.708409
 20
199.452161
 30
0.0
  0
SPLINE
  5
105
100
AcDbEntity
  8
Layer_1
 62
7
100
AcDbSpline
 70
8
 71
3
 72
8
 73
4
 74
0
 40
0
 40
0
 40
0
 40
0
 40
1
 40
1
 40
1
 40
1
 10
-132.708409
 20
199.452161
 30
0.0
 10
-132.708409
 20
199.452161
 30
0.0
 10
-127.708410
 20
208.112415
 30
0.0
 10
-127.708410
 20
208.112415
 30
0.0
  0
SPLINE
  5
106
100
AcDbEntity
  8
Layer_1
 62
7
100
AcDbSpline
 70
8
 71
3
 72
8
 73
4
 74
0
 40
0
 40
0
 40
0
 40
0
 40
1
 40
1
 40
1
 40
1
 10
-127.708410
 20
208.112415
 30
0.0
 10
-127.226102
 20
208.947798
 30
0.0
 10
-127.226102
 20
209.977032
 30
0.0
 10
-127.708410
 20
210.812415
 30
0.0
  0
SPLINE
  5
107
100
AcDbEntity
  8
Layer_1
 62
7
100
AcDbSpline
 70
8
 71
3
 72
8
 73
4
 74
0
 40
0
 40
0
 40
0
 40
0
 40
1
 40
1
 40
1
 40
1
 10
-127.708410
 20
210.812415
 30
0.0
 10
-128.190719
 20
211.647798
 30
0.0
 10
-129.082062
 20
212.162415
 30
0.0
 10
-130.046679
 20
212.162415
 30
0.0
  0
SPLINE
  5
108
100
AcDbEntity
  8
Layer_1
 62
7
100
AcDbSpline
 70
8
 71
3
 72
8
 73
4
 74
0
 40
0
 40
0
 40
0
 40
0
 40
1
 40
1
 40
1
 40
1
 10
-130.046679
 20
212.162415
 30
0.0
 10
-131.011296
 20
212.162415
 30
0.0
 10
-131.902640
 20
211.647798
 30
0.0
 10
-132.384948
 20
210.812415
 30
0.0
  0
LINE
  5
109
100
AcDbEntity
  8
Layer_1
 62
7
100
AcDbLine
 10
-132.384948
 20
210.812415
 30
0.0
 11
-132.384948
 21
210.812415
 31
0.0
  0
LINE
  5
10a
100
AcDbEntity
  8
Layer_1
 62
7
100
AcDbLine
 10
-128.248298
 20
124.152077
 30
0.0
 11
-131.884119
 21
192.649860
 31
0.0
  0
SPLINE
  5
10b
100
AcDbEntity
  8
Layer_1
 62
7
100
AcDbSpline
 70
8
 71
3
 72
8
 73
4
 74
0
 40
0
 40
0
 40
0
 40
0
 40
1
 40
1
 40
1
 40
1
 10
-128.248298
 20
124.152077
 30
0.0
 10
-133.660191
 20
123.864724
 30
0.0
 10
-137.858245
 20
119.318638
 30
0.0
 10
-137.714564
 20
113.901027
 30
0.0
  0
SPLINE
  5
10c
100
AcDbEntity
  8
Layer_1
 62
7
100
AcDbSpline
 70
8
 71
3
 72
8
 73
4
 74
0
 40
0
 40
0
 40
0
 40
0
 40
1
 40
1
 40
1
 40
1
 10
-137.714564
 20
113.901027
 30
0.0
 10
-137.570884
 20
108.483416
 30
0.0
 10
-133.137767
 20
104.166237
 30
0.0
 10
-127.718251
 20
104.166144
 30
0.0
  0
SPLINE
  5
10d
100
AcDbEntity
  8
Layer_1
 62
7
100
AcDbSpline
 70
8
 71
3
 72
8
 73
4
 74
0
 40
0
 40
0
 40
0
 40
0
 40
1
 40
1
 40
1
 40
1
 10
-125.018251
 20
114.166152
 30
0.0
 10
-125.018251
 20
115.130769
 30
0.0
 10
-125.532868
 20
116.022112
 30
0.0
 10
-126.368251
 20
116.504421
 30
0.0
  0
SPLINE
  5
10e
100
AcDbEntity
  8
Layer_1
 62
7
100
AcDbSpline
 70
8
 71
3
 72
8
 73
4
 74
0
 40
0
 40
0
 40
0
 40
0
 40
1
 40
1
 40
1
 40
1
 10
-126.368251
 20
116.504421
 30
0.0
 10
-127.203634
 20
116.986729
 30
0.0
 10
-128.232868
 20
116.986729
 30
0.0
 10
-129.068251
 20
116.504421
 30
0.0
  0
SPLINE
  5
10f
100
AcDbEntity
  8
Layer_1
 62
7
100
AcDbSpline
 70
8
 71
3
 72
8
 73
4
 74
0
 40
0
 40
0
 40
0
 40
0
 40
1
 40
1
 40
1
 40
1
 10
-129.068251
 20
116.504421
 30
0.0
 10
-129.903634
 20
116.022112
 30
0.0
 10
-130.418252
 20
115.130769
 30
0.0
 10
-130.418252
 20
114.166152
 30
0.0
  0
SPLINE
  5
110
100
AcDbEntity
  8
Layer_1
 62
7
100
AcDbSpline
 70
8
 71
3
 72
8
 73
4
 74
0
 40
0
 40
0
 40
0
 40
0
 40
1
 40
1
 40
1
 40
1
 10
-130.418252
 20
114.166152
 30
0.0
 10
-130.418252
 20
113.201535
 30
0.0
 10
-129.903634
 20
112.310192
 30
0.0
 10
-129.068251
 20
111.827883
 30
0.0
  0
SPLINE
  5
111
100
AcDbEntity
  8
Layer_1
 62
7
100
AcDbSpline
 70
8
 71
3
 72
8
 73
4
 74
0
 40
0
 40
0
 40
0
 40
0
 40
1
 40
1
 40
1
 40
1
 10
-129.068251
 20
111.827883
 30
0.0
 10
-128.232868
 20
111.345574
 30
0.0
 10
-127.203634
 20
111.345574
 30
0.0
 10
-126.368251
 20
111.827883
 30
0.0
  0
SPLINE
  5
112
100
AcDbEntity
  8
Layer_1
 62
7
100
AcDbSpline
 70
8
 71
3
 72
8
 73
4
 74
0
 40
0
 40
0
 40
0
 40
0
 40
1
 40
1
 40
1
 40
1
 10
-126.368251
 20
111.827883
 30
0.0
 10
-125.532868
 20
112.310192
 30
0.0
 10
-125.018251
 20
113.201535
 30
0.0
 10
-125.018251
 20
114.166152
 30
0.0
  0
LINE
  5
113
100
AcDbEntity
  8
Layer_1
 62
7
100
AcDbLine
 10
-125.018251
 20
114.166152
 30
0.0
 11
-125.018251
 21
114.166152
 31
0.0
  0
SPLINE
  5
114
100
AcDbEntity
  8
Layer_1
 62
7
100
AcDbSpline
 70
8
 71
3
 72
8
 73
4
 74
0
 40
0
 40
0
 40
0
 40
0
 40
1
 40
1
 40
1
 40
1
 10
-125.018251
 20
8.596386
 30
0.0
 10
-125.018251
 20
9.561003
 30
0.0
 10
-125.532868
 20
10.452346
 30
0.0
 10
-126.368251
 20
10.934655
 30
0.0
  0
SPLINE
  5
115
100
AcDbEntity
  8
Layer_1
 62
7
100
AcDbSpline
 70
8
 71
3
 72
8
 73
4
 74
0
 40
0
 40
0
 40
0
 40
0
 40
1
 40
1
 40
1
 40
1
 10
-126.368251
 20
10.934655
 30
0.0
 10
-127.203634
 20
11.416963
 30
0.0
 10
-128.232868
 20
11.416963
 30
0.0
 10
-129.068251
 20
10.934655
 30
0.0
  0
SPLINE
  5
116
100
AcDbEntity
  8
Layer_1
 62
7
100
AcDbSpline
 70
8
 71
3
 72
8
 73
4
 74
0
 40
0
 40
0
 40
0
 40
0
 40
1
 40
1
 40
1
 40
1
 10
-129.068251
 20
10.934655
 30
0.0
 10
-129.903634
 20
10.452346
 30
0.0
 10
-130.418252
 20
9.561003
 30
0.0
 10
-130.418252
 20
8.596386
 30
0.0
  0
SPLINE
  5
117
100
AcDbEntity
  8
Layer_1
 62
7
100
AcDbSpline
 70
8
 71
3
 72
8
 73
4
 74
0
 40
0
 40
0
 40
0
 40
0
 40
1
 40
1
 40
1
 40
1
 10
-130.418252
 20
8.596386
 30
0.0
 10
-130.418252
 20
7.631769
 30
0.0
 10
-129.903634
 20
6.740426
 30
0.0
 10
-129.068251
 20
6.258117
 30
0.0
  0
SPLINE
  5
118
100
AcDbEntity
  8
Layer_1
 62
7
100
AcDbSpline
 70
8
 71
3
 72
8
 73
4
 74
0
 40
0
 40
0
 40
0
 40
0
 40
1
 40
1
 40
1
 40
1
 10
-129.068251
 20
6.258117
 30
0.0
 10
-128.232868
 20
5.775808
 30
0.0
 10
-127.203634
 20
5.775808
 30
0.0
 10
-126.368251
 20
6.258117
 30
0.0
  0
SPLINE
  5
119
100
AcDbEntity
  8
Layer_1
 62
7
100
AcDbSpline
 70
8
 71
3
 72
8
 73
4
 74
0
 40
0
 40
0
 40
0
 40
0
 40
1
 40
1
 40
1
 40
1
 10
-126.368251
 20
6.258117
 30
0.0
 10
-125.532868
 20
6.740426
 30
0.0
 10
-125.018251
 20
7.631769
 30
0.0
 10
-125.018251
 20
8.596386
 30
0.0
  0
LINE
  5
11a
100
AcDbEntity
  8
Layer_1
 62
7
100
AcDbLine
 10
-125.018251
 20
8.596386
 30
0.0
 11
-125.018251
 21
8.596386
 31
0.0
  0
SPLINE
  5
11b
100
AcDbEntity
  8
Layer_1
 62
7
100
AcDbSpline
 70
8
 71
3
 72
8
 73
4
 74
0
 40
0
 40
0
 40
0
 40
0
 40
1
 40
1
 40
1
 40
1
 10
-127.718251
 20
18.596394
 30
0.0
 10
-131.290910
 20
18.596394
 30
0.0
 10
-134.592183
 20
16.690403
 30
0.0
 10
-136.378512
 20
13.596390
 30
0.0
  0
SPLINE
  5
11c
100
AcDbEntity
  8
Layer_1
 62
7
100
AcDbSpline
 70
8
 71
3
 72
8
 73
4
 74
0
 40
0
 40
0
 40
0
 40
0
 40
1
 40
1
 40
1
 40
1
 10
-136.378512
 20
13.596390
 30
0.0
 10
-138.164842
 20
10.502377
 30
0.0
 10
-138.164842
 20
6.690395
 30
0.0
 10
-136.378512
 20
3.596382
 30
0.0
  0
SPLINE
  5
11d
100
AcDbEntity
  8
Layer_1
 62
7
100
AcDbSpline
 70
8
 71
3
 72
8
 73
4
 74
0
 40
0
 40
0
 40
0
 40
0
 40
1
 40
1
 40
1
 40
1
 10
-136.378512
 20
3.596382
 30
0.0
 10
-134.592183
 20
0.502368
 30
0.0
 10
-131.290910
 20
-1.403622
 30
0.0
 10
-127.718251
 20
-1.403622
 30
0.0
  0
LINE
  5
11e
100
AcDbEntity
  8
Layer_1
 62
7
100
AcDbLine
 10
-127.718251
 20
18.596394
 30
0.0
 11
-127.718251
 21
104.166144
 31
0.0
  0
SPLINE
  5
11f
100
AcDbEntity
  8
Layer_1
 62
7
100
AcDbSpline
 70
8
 71
3
 72
8
 73
4
 74
0
 40
0
 40
0
 40
0
 40
0
 40
1
 40
1
 40
1
 40
1
 10
-127.524475
 20
216.579011
 30
0.0
 10
-132.256916
 20
218.655351
 30
0.0
 10
-137.779176
 20
217.605387
 30
0.0
 10
-141.419379
 20
213.937129
 30
0.0
  0
SPLINE
  5
120
100
AcDbEntity
  8
Layer_1
 62
7
100
AcDbSpline
 70
8
 71
3
 72
8
 73
4
 74
0
 40
0
 40
0
 40
0
 40
0
 40
1
 40
1
 40
1
 40
1
 10
-141.419379
 20
213.937129
 30
0.0
 10
-145.059582
 20
210.268871
 30
0.0
 10
-146.067120
 20
204.738713
 30
0.0
 10
-143.954508
 20
200.022351
 30
0.0
  0
SPLINE
  5
121
100
AcDbEntity
  8
Layer_1
 62
7
100
AcDbSpline
 70
8
 71
3
 72
8
 73
4
 74
0
 40
0
 40
0
 40
0
 40
0
 40
1
 40
1
 40
1
 40
1
 10
-143.954508
 20
200.022351
 30
0.0
 10
-141.841897
 20
195.305990
 30
0.0
 10
-137.044755
 20
192.375936
 30
0.0
 10
-131.884119
 20
192.649860
 30
0.0
  0
SPLINE
  5
122
100
AcDbEntity
  8
Layer_1
 62
7
100
AcDbSpline
 70
8
 71
3
 72
8
 73
4
 74
0
 40
0
 40
0
 40
0
 40
0
 40
1
 40
1
 40
1
 40
1
 10
141.954429
 20
202.147843
 30
0.0
 10
142.699377
 20
200.856485
 30
0.0
 10
142.256717
 20
199.205745
 30
0.0
 10
140.965604
 20
198.460373
 30
0.0
  0
SPLINE
  5
123
100
AcDbEntity
  8
Layer_1
 62
7
100
AcDbSpline
 70
8
 71
3
 72
8
 73
4
 74
0
 40
0
 40
0
 40
0
 40
0
 40
1
 40
1
 40
1
 40
1
 10
140.965604
 20
198.460373
 30
0.0
 10
139.674491
 20
197.715001
 30
0.0
 10
138.023605
 20
198.157119
 30
0.0
 10
137.277809
 20
199.447987
 30
0.0
  0
SPLINE
  5
124
100
AcDbEntity
  8
Layer_1
 62
7
100
AcDbSpline
 70
8
 71
3
 72
8
 73
4
 74
0
 40
0
 40
0
 40
0
 40
0
 40
1
 40
1
 40
1
 40
1
 10
137.277809
 20
199.447987
 30
0.0
 10
137.277809
 20
199.447987
 30
0.0
 10
132.278076
 20
208.108396
 30
0.0
 10
132.278076
 20
208.108396
 30
0.0
  0
SPLINE
  5
125
100
AcDbEntity
  8
Layer_1
 62
7
100
AcDbSpline
 70
8
 71
3
 72
8
 73
4
 74
0
 40
0
 40
0
 40
0
 40
0
 40
1
 40
1
 40
1
 40
1
 10
132.278076
 20
208.108396
 30
0.0
 10
131.533068
 20
209.399760
 30
0.0
 10
131.975713
 20
211.050555
 30
0.0
 10
133.266856
 20
211.795944
 30
0.0
  0
SPLINE
  5
126
100
AcDbEntity
  8
Layer_1
 62
7
100
AcDbSpline
 70
8
 71
3
 72
8
 73
4
 74
0
 40
0
 40
0
 40
0
 40
0
 40
1
 40
1
 40
1
 40
1
 10
133.266856
 20
211.795944
 30
0.0
 10
134.558000
 20
212.541334
 30
0.0
 10
136.208926
 20
212.099176
 30
0.0
 10
136.954696
 20
210.808252
 30
0.0
  0
LINE
  5
127
100
AcDbEntity
  8
Layer_1
 62
7
100
AcDbLine
 10
136.954696
 20
210.808252
 30
0.0
 11
141.954429
 21
202.147843
 31
0.0
  0
LINE
  5
128
100
AcDbEntity
  8
Layer_1
 62
7
100
AcDbLine
 10
141.954429
 20
202.147843
 30
0.0
 11
141.954429
 21
202.147843
 31
0.0
  0
SPLINE
  5
129
100
AcDbEntity
  8
Layer_1
 62
7
100
AcDbSpline
 70
8
 71
3
 72
8
 73
4
 74
0
 40
0
 40
0
 40
0
 40
0
 40
1
 40
1
 40
1
 40
1
 10
136.453309
 20
192.645711
 30
0.0
 10
141.613935
 20
192.371629
 30
0.0
 10
146.411167
 20
195.301534
 30
0.0
 10
148.523924
 20
200.017830
 30
0.0
  0
SPLINE
  5
12a
100
AcDbEntity
  8
Layer_1
 62
7
100
AcDbSpline
 70
8
 71
3
 72
8
 73
4
 74
0
 40
0
 40
0
 40
0
 40
0
 40
1
 40
1
 40
1
 40
1
 10
148.523924
 20
200.017830
 30
0.0
 10
150.636681
 20
204.734126
 30
0.0
 10
149.629314
 20
210.264315
 30
0.0
 10
145.989225
 20
213.932685
 30
0.0
  0
SPLINE
  5
12b
100
AcDbEntity
  8
Layer_1
 62
7
100
AcDbSpline
 70
8
 71
3
 72
8
 73
4
 74
0
 40
0
 40
0
 40
0
 40
0
 40
1
 40
1
 40
1
 40
1
 10
145.989225
 20
213.932685
 30
0.0
 10
142.349136
 20
217.601055
 30
0.0
 10
136.826909
 20
218.651191
 30
0.0
 10
132.094403
 20
216.574998
 30
0.0
  0
LINE
  5
12c
100
AcDbEntity
  8
Layer_1
 62
7
100
AcDbLine
 10
132.815368
 20
124.148041
 30
0.0
 11
136.453309
 21
192.645711
 31
0.0
  0
LINE
  5
12d
100
AcDbEntity
  8
Layer_1
 62
7
100
AcDbLine
 10
132.094403
 20
216.574998
 30
0.0
 11
30.791617
 21
240.302518
 31
0.0
  0
SPLINE
  5
12e
100
AcDbEntity
  8
Layer_1
 62
7
100
AcDbSpline
 70
8
 71
3
 72
8
 73
4
 74
0
 40
0
 40
0
 40
0
 40
0
 40
1
 40
1
 40
1
 40
1
 10
132.284703
 20
104.162108
 30
0.0
 10
137.704339
 20
104.161866
 30
0.0
 10
142.137775
 20
108.478955
 30
0.0
 10
142.281626
 20
113.896682
 30
0.0
  0
SPLINE
  5
12f
100
AcDbEntity
  8
Layer_1
 62
7
100
AcDbSpline
 70
8
 71
3
 72
8
 73
4
 74
0
 40
0
 40
0
 40
0
 40
0
 40
1
 40
1
 40
1
 40
1
 10
142.281626
 20
113.896682
 30
0.0
 10
142.425477
 20
119.314409
 30
0.0
 10
138.227381
 20
123.860682
 30
0.0
 10
132.815368
 20
124.148041
 30
0.0
  0
SPLINE
  5
130
100
AcDbEntity
  8
Layer_1
 62
7
100
AcDbSpline
 70
8
 71
3
 72
8
 73
4
 74
0
 40
0
 40
0
 40
0
 40
0
 40
1
 40
1
 40
1
 40
1
 10
134.985014
 20
114.162116
 30
0.0
 10
134.985014
 20
115.126733
 30
0.0
 10
134.470397
 20
116.018076
 30
0.0
 10
133.635013
 20
116.500385
 30
0.0
  0
SPLINE
  5
131
100
AcDbEntity
  8
Layer_1
 62
7
100
AcDbSpline
 70
8
 71
3
 72
8
 73
4
 74
0
 40
0
 40
0
 40
0
 40
0
 40
1
 40
1
 40
1
 40
1
 10
133.635013
 20
116.500385
 30
0.0
 10
132.799630
 20
116.982694
 30
0.0
 10
131.770396
 20
116.982694
 30
0.0
 10
130.935013
 20
116.500385
 30
0.0
  0
SPLINE
  5
132
100
AcDbEntity
  8
Layer_1
 62
7
100
AcDbSpline
 70
8
 71
3
 72
8
 73
4
 74
0
 40
0
 40
0
 40
0
 40
0
 40
1
 40
1
 40
1
 40
1
 10
130.935013
 20
116.500385
 30
0.0
 10
130.099630
 20
116.018076
 30
0.0
 10
129.585013
 20
115.126733
 30
0.0
 10
129.585013
 20
114.162116
 30
0.0
  0
SPLINE
  5
133
100
AcDbEntity
  8
Layer_1
 62
7
100
AcDbSpline
 70
8
 71
3
 72
8
 73
4
 74
0
 40
0
 40
0
 40
0
 40
0
 40
1
 40
1
 40
1
 40
1
 10
129.585013
 20
114.162116
 30
0.0
 10
129.585013
 20
113.197499
 30
0.0
 10
130.099630
 20
112.306156
 30
0.0
 10
130.935013
 20
111.823847
 30
0.0
  0
SPLINE
  5
134
100
AcDbEntity
  8
Layer_1
 62
7
100
AcDbSpline
 70
8
 71
3
 72
8
 73
4
 74
0
 40
0
 40
0
 40
0
 40
0
 40
1
 40
1
 40
1
 40
1
 10
130.935013
 20
111.823847
 30
0.0
 10
131.770396
 20
111.341539
 30
0.0
 10
132.799630
 20
111.341539
 30
0.0
 10
133.635013
 20
111.823847
 30
0.0
  0
SPLINE
  5
135
100
AcDbEntity
  8
Layer_1
 62
7
100
AcDbSpline
 70
8
 71
3
 72
8
 73
4
 74
0
 40
0
 40
0
 40
0
 40
0
 40
1
 40
1
 40
1
 40
1
 10
133.635013
 20
111.823847
 30
0.0
 10
134.470396
 20
112.306156
 30
0.0
 10
134.985014
 20
113.197499
 30
0.0
 10
134.985014
 20
114.162116
 30
0.0
  0
LINE
  5
136
100
AcDbEntity
  8
Layer_1
 62
7
100
AcDbLine
 10
134.985014
 20
114.162116
 30
0.0
 11
134.985014
 21
114.162116
 31
0.0
  0
LINE
  5
137
100
AcDbEntity
  8
Layer_1
 62
7
100
AcDbLine
 10
132.282058
 20
18.592358
 30
0.0
 11
132.284598
 21
104.162108
 31
0.0
  0
SPLINE
  5
138
100
AcDbEntity
  8
Layer_1
 62
7
100
AcDbSpline
 70
8
 71
3
 72
8
 73
4
 74
0
 40
0
 40
0
 40
0
 40
0
 40
1
 40
1
 40
1
 40
1
 10
134.981748
 20
8.592378
 30
0.0
 10
134.981748
 20
9.556995
 30
0.0
 10
134.467131
 20
10.448338
 30
0.0
 10
133.631748
 20
10.930647
 30
0.0
  0
SPLINE
  5
139
100
AcDbEntity
  8
Layer_1
 62
7
100
AcDbSpline
 70
8
 71
3
 72
8
 73
4
 74
0
 40
0
 40
0
 40
0
 40
0
 40
1
 40
1
 40
1
 40
1
 10
133.631748
 20
10.930647
 30
0.0
 10
132.796365
 20
11.412956
 30
0.0
 10
131.767131
 20
11.412956
 30
0.0
 10
130.931748
 20
10.930647
 30
0.0
  0
SPLINE
  5
13a
100
AcDbEntity
  8
Layer_1
 62
7
100
AcDbSpline
 70
8
 71
3
 72
8
 73
4
 74
0
 40
0
 40
0
 40
0
 40
0
 40
1
 40
1
 40
1
 40
1
 10
130.931748
 20
10.930647
 30
0.0
 10
130.096365
 20
10.448338
 30
0.0
 10
129.581748
 20
9.556995
 30
0.0
 10
129.581748
 20
8.592378
 30
0.0
  0
SPLINE
  5
13b
100
AcDbEntity
  8
Layer_1
 62
7
100
AcDbSpline
 70
8
 71
3
 72
8
 73
4
 74
0
 40
0
 40
0
 40
0
 40
0
 40
1
 40
1
 40
1
 40
1
 10
129.581748
 20
8.592378
 30
0.0
 10
129.581748
 20
7.627761
 30
0.0
 10
130.096365
 20
6.736418
 30
0.0
 10
130.931748
 20
6.254109
 30
0.0
  0
SPLINE
  5
13c
100
AcDbEntity
  8
Layer_1
 62
7
100
AcDbSpline
 70
8
 71
3
 72
8
 73
4
 74
0
 40
0
 40
0
 40
0
 40
0
 40
1
 40
1
 40
1
 40
1
 10
130.931748
 20
6.254109
 30
0.0
 10
131.767131
 20
5.771801
 30
0.0
 10
132.796365
 20
5.771801
 30
0.0
 10
133.631748
 20
6.254109
 30
0.0
  0
SPLINE
  5
13d
100
AcDbEntity
  8
Layer_1
 62
7
100
AcDbSpline
 70
8
 71
3
 72
8
 73
4
 74
0
 40
0
 40
0
 40
0
 40
0
 40
1
 40
1
 40
1
 40
1
 10
133.631748
 20
6.254109
 30
0.0
 10
134.467131
 20
6.736418
 30
0.0
 10
134.981748
 20
7.627761
 30
0.0
 10
134.981748
 20
8.592378
 30
0.0
  0
LINE
  5
13e
100
AcDbEntity
  8
Layer_1
 62
7
100
AcDbLine
 10
134.981748
 20
8.592378
 30
0.0
 11
134.981748
 21
8.592378
 31
0.0
  0
SPLINE
  5
13f
100
AcDbEntity
  8
Layer_1
 62
7
100
AcDbSpline
 70
8
 71
3
 72
8
 73
4
 74
0
 40
0
 40
0
 40
0
 40
0
 40
1
 40
1
 40
1
 40
1
 10
132.281593
 20
-1.407630
 30
0.0
 10
137.800187
 20
-1.401779
 30
0.0
 10
142.270836
 20
3.073485
 30
0.0
 10
142.270991
 20
8.592082
 30
0.0
  0
SPLINE
  5
140
100
AcDbEntity
  8
Layer_1
 62
7
100
AcDbSpline
 70
8
 71
3
 72
8
 73
4
 74
0
 40
0
 40
0
 40
0
 40
0
 40
1
 40
1
 40
1
 40
1
 10
142.270991
 20
8.592082
 30
0.0
 10
142.271147
 20
14.110680
 30
0.0
 10
137.800751
 20
18.586196
 30
0.0
 10
132.282157
 20
18.592358
 30
0.0
  0
LINE
  5
141
100
AcDbEntity
  8
Layer_1
 62
7
100
AcDbLine
 10
132.281593
 20
-1.407630
 30
0.0
 11
7.177524
 21
-6.307826
 31
0.0
  0
LINE
  5
142
100
AcDbEntity
  8
Layer_1
 62
7
100
AcDbLine
 10
-127.718251
 20
-1.403622
 30
0.0
 11
-2.610960
 21
-6.307685
 31
0.0
  0
SPLINE
  5
143
100
AcDbEntity
  8
Layer_1
 62
7
100
AcDbSpline
 70
8
 71
3
 72
8
 73
4
 74
0
 40
0
 40
0
 40
0
 40
0
 40
1
 40
1
 40
1
 40
1
 10
-2.610960
 20
-6.307685
 30
0.0
 10
0.650615
 20
-6.435534
 30
0.0
 10
3.915946
 20
-6.435581
 30
0.0
 10
7.177524
 20
-6.307826
 30
0.0
  0
SPLINE
  5
144
100
AcDbEntity
  8
Layer_1
 62
7
100
AcDbSpline
 70
8
 71
3
 72
8
 73
4
 74
0
 40
0
 40
0
 40
0
 40
0
 40
1
 40
1
 40
1
 40
1
 10
148.966230
 20
123.030687
 30
0.0
 10
148.966230
 20
122.066070
 30
0.0
 10
149.480847
 20
121.174727
 30
0.0
 10
150.316231
 20
120.692418
 30
0.0
  0
SPLINE
  5
145
100
AcDbEntity
  8
Layer_1
 62
7
100
AcDbSpline
 70
8
 71
3
 72
8
 73
4
 74
0
 40
0
 40
0
 40
0
 40
0
 40
1
 40
1
 40
1
 40
1
 10
150.316231
 20
120.692418
 30
0.0
 10
151.151614
 20
120.210109
 30
0.0
 10
152.180848
 20
120.210109
 30
0.0
 10
153.016231
 20
120.692418
 30
0.0
  0
SPLINE
  5
146
100
AcDbEntity
  8
Layer_1
 62
7
100
AcDbSpline
 70
8
 71
3
 72
8
 73
4
 74
0
 40
0
 40
0
 40
0
 40
0
 40
1
 40
1
 40
1
 40
1
 10
153.016231
 20
120.692418
 30
0.0
 10
153.851614
 20
121.174727
 30
0.0
 10
154.366231
 20
122.066070
 30
0.0
 10
154.366231
 20
123.030687
 30
0.0
  0
SPLINE
  5
147
100
AcDbEntity
  8
Layer_1
 62
7
100
AcDbSpline
 70
8
 71
3
 72
8
 73
4
 74
0
 40
0
 40
0
 40
0
 40
0
 40
1
 40
1
 40
1
 40
1
 10
154.366231
 20
123.030687
 30
0.0
 10
154.366231
 20
123.995304
 30
0.0
 10
153.851614
 20
124.886647
 30
0.0
 10
153.016231
 20
125.368956
 30
0.0
  0
SPLINE
  5
148
100
AcDbEntity
  8
Layer_1
 62
7
100
AcDbSpline
 70
8
 71
3
 72
8
 73
4
 74
0
 40
0
 40
0
 40
0
 40
0
 40
1
 40
1
 40
1
 40
1
 10
153.016231
 20
125.368956
 30
0.0
 10
152.180848
 20
125.851264
 30
0.0
 10
151.151614
 20
125.851264
 30
0.0
 10
150.316231
 20
125.368956
 30
0.0
  0
SPLINE
  5
149
100
AcDbEntity
  8
Layer_1
 62
7
100
AcDbSpline
 70
8
 71
3
 72
8
 73
4
 74
0
 40
0
 40
0
 40
0
 40
0
 40
1
 40
1
 40
1
 40
1
 10
150.316231
 20
125.368956
 30
0.0
 10
149.480848
 20
124.886647
 30
0.0
 10
148.966230
 20
123.995304
 30
0.0
 10
148.966230
 20
123.030687
 30
0.0
  0
LINE
  5
14a
100
AcDbEntity
  8
Layer_1
 62
7
100
AcDbLine
 10
148.966230
 20
123.030687
 30
0.0
 11
148.966230
 21
123.030687
 31
0.0
  0
SPLINE
  5
14b
100
AcDbEntity
  8
Layer_1
 62
7
100
AcDbSpline
 70
8
 71
3
 72
8
 73
4
 74
0
 40
0
 40
0
 40
0
 40
0
 40
1
 40
1
 40
1
 40
1
 10
141.996815
 20
35.044960
 30
0.0
 10
141.996815
 20
35.044960
 30
0.0
 10
146.996548
 20
26.384550
 30
0.0
 10
146.996548
 20
26.384550
 30
0.0
  0
SPLINE
  5
14c
100
AcDbEntity
  8
Layer_1
 62
7
100
AcDbSpline
 70
8
 71
3
 72
8
 73
4
 74
0
 40
0
 40
0
 40
0
 40
0
 40
1
 40
1
 40
1
 40
1
 10
146.996548
 20
26.384550
 30
0.0
 10
147.742318
 20
25.093627
 30
0.0
 10
149.393244
 20
24.651469
 30
0.0
 10
150.684388
 20
25.396858
 30
0.0
  0
SPLINE
  5
14d
100
AcDbEntity
  8
Layer_1
 62
7
100
AcDbSpline
 70
8
 71
3
 72
8
 73
4
 74
0
 40
0
 40
0
 40
0
 40
0
 40
1
 40
1
 40
1
 40
1
 10
150.684388
 20
25.396858
 30
0.0
 10
151.975531
 20
26.142248
 30
0.0
 10
152.418176
 20
27.793043
 30
0.0
 10
151.673168
 20
29.084407
 30
0.0
  0
LINE
  5
14e
100
AcDbEntity
  8
Layer_1
 62
7
100
AcDbLine
 10
151.673168
 20
29.084407
 30
0.0
 11
146.673435
 21
37.744816
 31
0.0
  0
SPLINE
  5
14f
100
AcDbEntity
  8
Layer_1
 62
7
100
AcDbSpline
 70
8
 71
3
 72
8
 73
4
 74
0
 40
0
 40
0
 40
0
 40
0
 40
1
 40
1
 40
1
 40
1
 10
146.673435
 20
37.744816
 30
0.0
 10
145.927639
 20
39.035684
 30
0.0
 10
144.276753
 20
39.477801
 30
0.0
 10
142.985640
 20
38.732430
 30
0.0
  0
SPLINE
  5
150
100
AcDbEntity
  8
Layer_1
 62
7
100
AcDbSpline
 70
8
 71
3
 72
8
 73
4
 74
0
 40
0
 40
0
 40
0
 40
0
 40
1
 40
1
 40
1
 40
1
 10
142.985640
 20
38.732430
 30
0.0
 10
141.694527
 20
37.987058
 30
0.0
 10
141.251867
 20
36.336318
 30
0.0
 10
141.996815
 20
35.044960
 30
0.0
  0
LINE
  5
151
100
AcDbEntity
  8
Layer_1
 62
7
100
AcDbLine
 10
141.996815
 20
35.044960
 30
0.0
 11
141.996815
 21
35.044960
 31
0.0
  0
SPLINE
  5
152
100
AcDbEntity
  8
Layer_1
 62
7
100
AcDbSpline
 70
8
 71
3
 72
8
 73
4
 74
0
 40
0
 40
0
 40
0
 40
0
 40
1
 40
1
 40
1
 40
1
 10
408.969495
 20
228.596417
 30
0.0
 10
408.969495
 20
227.631800
 30
0.0
 10
409.484112
 20
226.740457
 30
0.0
 10
410.319495
 20
226.258148
 30
0.0
  0
SPLINE
  5
153
100
AcDbEntity
  8
Layer_1
 62
7
100
AcDbSpline
 70
8
 71
3
 72
8
 73
4
 74
0
 40
0
 40
0
 40
0
 40
0
 40
1
 40
1
 40
1
 40
1
 10
410.319495
 20
226.258148
 30
0.0
 10
411.154878
 20
225.775840
 30
0.0
 10
412.184112
 20
225.775840
 30
0.0
 10
413.019495
 20
226.258148
 30
0.0
  0
SPLINE
  5
154
100
AcDbEntity
  8
Layer_1
 62
7
100
AcDbSpline
 70
8
 71
3
 72
8
 73
4
 74
0
 40
0
 40
0
 40
0
 40
0
 40
1
 40
1
 40
1
 40
1
 10
413.019495
 20
226.258148
 30
0.0
 10
413.854878
 20
226.740457
 30
0.0
 10
414.369496
 20
227.631800
 30
0.0
 10
414.369496
 20
228.596417
 30
0.0
  0
SPLINE
  5
155
100
AcDbEntity
  8
Layer_1
 62
7
100
AcDbSpline
 70
8
 71
3
 72
8
 73
4
 74
0
 40
0
 40
0
 40
0
 40
0
 40
1
 40
1
 40
1
 40
1
 10
414.369496
 20
228.596417
 30
0.0
 10
414.369496
 20
229.561034
 30
0.0
 10
413.854878
 20
230.452377
 30
0.0
 10
413.019495
 20
230.934686
 30
0.0
  0
SPLINE
  5
156
100
AcDbEntity
  8
Layer_1
 62
7
100
AcDbSpline
 70
8
 71
3
 72
8
 73
4
 74
0
 40
0
 40
0
 40
0
 40
0
 40
1
 40
1
 40
1
 40
1
 10
413.019495
 20
230.934686
 30
0.0
 10
412.184112
 20
231.416994
 30
0.0
 10
411.154878
 20
231.416994
 30
0.0
 10
410.319495
 20
230.934686
 30
0.0
  0
SPLINE
  5
157
100
AcDbEntity
  8
Layer_1
 62
7
100
AcDbSpline
 70
8
 71
3
 72
8
 73
4
 74
0
 40
0
 40
0
 40
0
 40
0
 40
1
 40
1
 40
1
 40
1
 10
410.319495
 20
230.934686
 30
0.0
 10
409.484112
 20
230.452377
 30
0.0
 10
408.969495
 20
229.561034
 30
0.0
 10
408.969495
 20
228.596417
 30
0.0
  0
LINE
  5
158
100
AcDbEntity
  8
Layer_1
 62
7
100
AcDbLine
 10
408.969495
 20
228.596417
 30
0.0
 11
408.969495
 21
228.596417
 31
0.0
  0
SPLINE
  5
159
100
AcDbEntity
  8
Layer_1
 62
7
100
AcDbSpline
 70
8
 71
3
 72
8
 73
4
 74
0
 40
0
 40
0
 40
0
 40
0
 40
1
 40
1
 40
1
 40
1
 10
148.969496
 20
228.600425
 30
0.0
 10
148.969496
 20
227.635807
 30
0.0
 10
149.484113
 20
226.744464
 30
0.0
 10
150.319496
 20
226.262156
 30
0.0
  0
SPLINE
  5
15a
100
AcDbEntity
  8
Layer_1
 62
7
100
AcDbSpline
 70
8
 71
3
 72
8
 73
4
 74
0
 40
0
 40
0
 40
0
 40
0
 40
1
 40
1
 40
1
 40
1
 10
150.319496
 20
226.262156
 30
0.0
 10
151.154879
 20
225.779847
 30
0.0
 10
152.184113
 20
225.779847
 30
0.0
 10
153.019496
 20
226.262156
 30
0.0
  0
SPLINE
  5
15b
100
AcDbEntity
  8
Layer_1
 62
7
100
AcDbSpline
 70
8
 71
3
 72
8
 73
4
 74
0
 40
0
 40
0
 40
0
 40
0
 40
1
 40
1
 40
1
 40
1
 10
153.019496
 20
226.262156
 30
0.0
 10
153.854879
 20
226.744464
 30
0.0
 10
154.369496
 20
227.635807
 30
0.0
 10
154.369496
 20
228.600425
 30
0.0
  0
SPLINE
  5
15c
100
AcDbEntity
  8
Layer_1
 62
7
100
AcDbSpline
 70
8
 71
3
 72
8
 73
4
 74
0
 40
0
 40
0
 40
0
 40
0
 40
1
 40
1
 40
1
 40
1
 10
154.369496
 20
228.600425
 30
0.0
 10
154.369496
 20
229.565042
 30
0.0
 10
153.854879
 20
230.456385
 30
0.0
 10
153.019496
 20
230.938693
 30
0.0
  0
SPLINE
  5
15d
100
AcDbEntity
  8
Layer_1
 62
7
100
AcDbSpline
 70
8
 71
3
 72
8
 73
4
 74
0
 40
0
 40
0
 40
0
 40
0
 40
1
 40
1
 40
1
 40
1
 10
153.019496
 20
230.938693
 30
0.0
 10
152.184113
 20
231.421002
 30
0.0
 10
151.154879
 20
231.421002
 30
0.0
 10
150.319496
 20
230.938693
 30
0.0
  0
SPLINE
  5
15e
100
AcDbEntity
  8
Layer_1
 62
7
100
AcDbSpline
 70
8
 71
3
 72
8
 73
4
 74
0
 40
0
 40
0
 40
0
 40
0
 40
1
 40
1
 40
1
 40
1
 10
150.319496
 20
230.938693
 30
0.0
 10
149.484113
 20
230.456385
 30
0.0
 10
148.969496
 20
229.565042
 30
0.0
 10
148.969496
 20
228.600425
 30
0.0
  0
LINE
  5
15f
100
AcDbEntity
  8
Layer_1
 62
7
100
AcDbLine
 10
148.969496
 20
228.600425
 30
0.0
 11
148.969496
 21
228.600425
 31
0.0
  0
SPLINE
  5
160
100
AcDbEntity
  8
Layer_1
 62
7
100
AcDbSpline
 70
8
 71
3
 72
8
 73
4
 74
0
 40
0
 40
0
 40
0
 40
0
 40
1
 40
1
 40
1
 40
1
 10
421.336191
 20
35.040642
 30
0.0
 10
422.081775
 20
36.332032
 30
0.0
 10
421.639312
 20
37.983326
 30
0.0
 10
420.347922
 20
38.728911
 30
0.0
  0
SPLINE
  5
161
100
AcDbEntity
  8
Layer_1
 62
7
100
AcDbSpline
 70
8
 71
3
 72
8
 73
4
 74
0
 40
0
 40
0
 40
0
 40
0
 40
1
 40
1
 40
1
 40
1
 10
420.347922
 20
38.728911
 30
0.0
 10
419.056531
 20
39.474495
 30
0.0
 10
417.405237
 20
39.032032
 30
0.0
 10
416.659653
 20
37.740642
 30
0.0
  0
LINE
  5
162
100
AcDbEntity
  8
Layer_1
 62
7
100
AcDbLine
 10
421.336191
 20
35.040642
 30
0.0
 11
416.336192
 21
26.380388
 31
0.0
  0
SPLINE
  5
163
100
AcDbEntity
  8
Layer_1
 62
7
100
AcDbSpline
 70
8
 71
3
 72
8
 73
4
 74
0
 40
0
 40
0
 40
0
 40
0
 40
1
 40
1
 40
1
 40
1
 10
411.659654
 20
29.080388
 30
0.0
 10
411.177346
 20
28.245005
 30
0.0
 10
411.177346
 20
27.215771
 30
0.0
 10
411.659654
 20
26.380388
 30
0.0
  0
SPLINE
  5
164
100
AcDbEntity
  8
Layer_1
 62
7
100
AcDbSpline
 70
8
 71
3
 72
8
 73
4
 74
0
 40
0
 40
0
 40
0
 40
0
 40
1
 40
1
 40
1
 40
1
 10
411.659654
 20
26.380388
 30
0.0
 10
412.141963
 20
25.545005
 30
0.0
 10
413.033306
 20
25.030387
 30
0.0
 10
413.997923
 20
25.030387
 30
0.0
  0
SPLINE
  5
165
100
AcDbEntity
  8
Layer_1
 62
7
100
AcDbSpline
 70
8
 71
3
 72
8
 73
4
 74
0
 40
0
 40
0
 40
0
 40
0
 40
1
 40
1
 40
1
 40
1
 10
413.997923
 20
25.030387
 30
0.0
 10
414.962540
 20
25.030387
 30
0.0
 10
415.853884
 20
25.545005
 30
0.0
 10
416.336192
 20
26.380388
 30
0.0
  0
LINE
  5
166
100
AcDbEntity
  8
Layer_1
 62
7
100
AcDbLine
 10
411.659654
 20
29.080388
 30
0.0
 11
416.659653
 21
37.740642
 31
0.0
  0
SPLINE
  5
167
100
AcDbEntity
  8
Layer_1
 62
7
100
AcDbSpline
 70
8
 71
3
 72
8
 73
4
 74
0
 40
0
 40
0
 40
0
 40
0
 40
1
 40
1
 40
1
 40
1
 10
408.969495
 20
123.026651
 30
0.0
 10
408.969495
 20
122.062034
 30
0.0
 10
409.484112
 20
121.170691
 30
0.0
 10
410.319495
 20
120.688382
 30
0.0
  0
SPLINE
  5
168
100
AcDbEntity
  8
Layer_1
 62
7
100
AcDbSpline
 70
8
 71
3
 72
8
 73
4
 74
0
 40
0
 40
0
 40
0
 40
0
 40
1
 40
1
 40
1
 40
1
 10
410.319495
 20
120.688382
 30
0.0
 10
411.154878
 20
120.206074
 30
0.0
 10
412.184112
 20
120.206074
 30
0.0
 10
413.019495
 20
120.688382
 30
0.0
  0
SPLINE
  5
169
100
AcDbEntity
  8
Layer_1
 62
7
100
AcDbSpline
 70
8
 71
3
 72
8
 73
4
 74
0
 40
0
 40
0
 40
0
 40
0
 40
1
 40
1
 40
1
 40
1
 10
413.019495
 20
120.688382
 30
0.0
 10
413.854878
 20
121.170691
 30
0.0
 10
414.369496
 20
122.062034
 30
0.0
 10
414.369496
 20
123.026651
 30
0.0
  0
SPLINE
  5
16a
100
AcDbEntity
  8
Layer_1
 62
7
100
AcDbSpline
 70
8
 71
3
 72
8
 73
4
 74
0
 40
0
 40
0
 40
0
 40
0
 40
1
 40
1
 40
1
 40
1
 10
414.369496
 20
123.026651
 30
0.0
 10
414.369496
 20
123.991268
 30
0.0
 10
413.854878
 20
124.882611
 30
0.0
 10
413.019495
 20
125.364920
 30
0.0
  0
SPLINE
  5
16b
100
AcDbEntity
  8
Layer_1
 62
7
100
AcDbSpline
 70
8
 71
3
 72
8
 73
4
 74
0
 40
0
 40
0
 40
0
 40
0
 40
1
 40
1
 40
1
 40
1
 10
413.019495
 20
125.364920
 30
0.0
 10
412.184112
 20
125.847228
 30
0.0
 10
411.154878
 20
125.847228
 30
0.0
 10
410.319495
 20
125.364920
 30
0.0
  0
SPLINE
  5
16c
100
AcDbEntity
  8
Layer_1
 62
7
100
AcDbSpline
 70
8
 71
3
 72
8
 73
4
 74
0
 40
0
 40
0
 40
0
 40
0
 40
1
 40
1
 40
1
 40
1
 10
410.319495
 20
125.364920
 30
0.0
 10
409.484112
 20
124.882611
 30
0.0
 10
408.969495
 20
123.991268
 30
0.0
 10
408.969495
 20
123.026651
 30
0.0
  0
LINE
  5
16d
100
AcDbEntity
  8
Layer_1
 62
7
100
AcDbLine
 10
408.969495
 20
123.026651
 30
0.0
 11
408.969495
 21
123.026651
 31
0.0
  0
SPLINE
  5
16e
100
AcDbEntity
  8
Layer_1
 62
7
100
AcDbSpline
 70
8
 71
3
 72
8
 73
4
 74
0
 40
0
 40
0
 40
0
 40
0
 40
1
 40
1
 40
1
 40
1
 10
151.669651
 20
238.600433
 30
0.0
 10
146.151057
 20
238.594582
 30
0.0
 10
141.680408
 20
234.119318
 30
0.0
 10
141.680253
 20
228.600721
 30
0.0
  0
SPLINE
  5
16f
100
AcDbEntity
  8
Layer_1
 62
7
100
AcDbSpline
 70
8
 71
3
 72
8
 73
4
 74
0
 40
0
 40
0
 40
0
 40
0
 40
1
 40
1
 40
1
 40
1
 10
141.680253
 20
228.600721
 30
0.0
 10
141.680097
 20
223.082123
 30
0.0
 10
146.150493
 20
218.606607
 30
0.0
 10
151.669087
 20
218.600445
 30
0.0
  0
LINE
  5
170
100
AcDbEntity
  8
Layer_1
 62
7
100
AcDbLine
 10
151.669186
 20
218.600445
 30
0.0
 11
151.666646
 21
133.030695
 31
0.0
  0
SPLINE
  5
171
100
AcDbEntity
  8
Layer_1
 62
7
100
AcDbSpline
 70
8
 71
3
 72
8
 73
4
 74
0
 40
0
 40
0
 40
0
 40
0
 40
1
 40
1
 40
1
 40
1
 10
151.666541
 20
133.030695
 30
0.0
 10
146.246905
 20
133.030937
 30
0.0
 10
141.813469
 20
128.713848
 30
0.0
 10
141.669618
 20
123.296121
 30
0.0
  0
SPLINE
  5
172
100
AcDbEntity
  8
Layer_1
 62
7
100
AcDbSpline
 70
8
 71
3
 72
8
 73
4
 74
0
 40
0
 40
0
 40
0
 40
0
 40
1
 40
1
 40
1
 40
1
 10
141.669618
 20
123.296121
 30
0.0
 10
141.525767
 20
117.878394
 30
0.0
 10
145.723863
 20
113.332121
 30
0.0
 10
151.135876
 20
113.044762
 30
0.0
  0
LINE
  5
173
100
AcDbEntity
  8
Layer_1
 62
7
100
AcDbLine
 10
151.135876
 20
113.044762
 30
0.0
 11
147.497935
 21
44.547091
 31
0.0
  0
SPLINE
  5
174
100
AcDbEntity
  8
Layer_1
 62
7
100
AcDbSpline
 70
8
 71
3
 72
8
 73
4
 74
0
 40
0
 40
0
 40
0
 40
0
 40
1
 40
1
 40
1
 40
1
 10
147.497935
 20
44.547091
 30
0.0
 10
142.337309
 20
44.821174
 30
0.0
 10
137.540077
 20
41.891268
 30
0.0
 10
135.427320
 20
37.174973
 30
0.0
  0
SPLINE
  5
175
100
AcDbEntity
  8
Layer_1
 62
7
100
AcDbSpline
 70
8
 71
3
 72
8
 73
4
 74
0
 40
0
 40
0
 40
0
 40
0
 40
1
 40
1
 40
1
 40
1
 10
135.427320
 20
37.174973
 30
0.0
 10
133.314563
 20
32.458677
 30
0.0
 10
134.321930
 20
26.928488
 30
0.0
 10
137.962019
 20
23.260118
 30
0.0
  0
SPLINE
  5
176
100
AcDbEntity
  8
Layer_1
 62
7
100
AcDbSpline
 70
8
 71
3
 72
8
 73
4
 74
0
 40
0
 40
0
 40
0
 40
0
 40
1
 40
1
 40
1
 40
1
 10
137.962019
 20
23.260118
 30
0.0
 10
141.602108
 20
19.591748
 30
0.0
 10
147.124335
 20
18.541612
 30
0.0
 10
151.856841
 20
20.617805
 30
0.0
  0
LINE
  5
177
100
AcDbEntity
  8
Layer_1
 62
7
100
AcDbLine
 10
151.856841
 20
20.617805
 30
0.0
 11
253.159627
 21
-3.109715
 31
0.0
  0
SPLINE
  5
178
100
AcDbEntity
  8
Layer_1
 62
7
100
AcDbSpline
 70
8
 71
3
 72
8
 73
4
 74
0
 40
0
 40
0
 40
0
 40
0
 40
1
 40
1
 40
1
 40
1
 10
253.159627
 20
-3.109715
 30
0.0
 10
262.503754
 20
-5.298331
 30
0.0
 10
272.068844
 20
-6.403570
 30
0.0
 10
281.665862
 20
-6.403587
 30
0.0
  0
SPLINE
  5
179
100
AcDbEntity
  8
Layer_1
 62
7
100
AcDbSpline
 70
8
 71
3
 72
8
 73
4
 74
0
 40
0
 40
0
 40
0
 40
0
 40
1
 40
1
 40
1
 40
1
 10
281.665863
 20
-6.403587
 30
0.0
 10
291.262881
 20
-6.403866
 30
0.0
 10
300.828005
 20
-5.298923
 30
0.0
 10
310.172199
 20
-3.110596
 30
0.0
  0
LINE
  5
17a
100
AcDbEntity
  8
Layer_1
 62
7
100
AcDbLine
 10
310.172199
 20
-3.110596
 30
0.0
 11
411.475719
 21
20.613792
 31
0.0
  0
SPLINE
  5
17b
100
AcDbEntity
  8
Layer_1
 62
7
100
AcDbSpline
 70
8
 71
3
 72
8
 73
4
 74
0
 40
0
 40
0
 40
0
 40
0
 40
1
 40
1
 40
1
 40
1
 10
411.475719
 20
20.613792
 30
0.0
 10
416.208160
 20
18.537451
 30
0.0
 10
421.730420
 20
19.587416
 30
0.0
 10
425.370623
 20
23.255674
 30
0.0
  0
SPLINE
  5
17c
100
AcDbEntity
  8
Layer_1
 62
7
100
AcDbSpline
 70
8
 71
3
 72
8
 73
4
 74
0
 40
0
 40
0
 40
0
 40
0
 40
1
 40
1
 40
1
 40
1
 10
425.370623
 20
23.255674
 30
0.0
 10
429.010826
 20
26.923932
 30
0.0
 10
430.018364
 20
32.454090
 30
0.0
 10
427.905752
 20
37.170452
 30
0.0
  0
SPLINE
  5
17d
100
AcDbEntity
  8
Layer_1
 62
7
100
AcDbSpline
 70
8
 71
3
 72
8
 73
4
 74
0
 40
0
 40
0
 40
0
 40
0
 40
1
 40
1
 40
1
 40
1
 10
427.905752
 20
37.170452
 30
0.0
 10
425.793141
 20
41.886813
 30
0.0
 10
420.995999
 20
44.816866
 30
0.0
 10
415.835363
 20
44.542943
 30
0.0
  0
LINE
  5
17e
100
AcDbEntity
  8
Layer_1
 62
7
100
AcDbLine
 10
415.835363
 20
44.542943
 30
0.0
 11
412.199542
 21
113.040726
 31
0.0
  0
SPLINE
  5
17f
100
AcDbEntity
  8
Layer_1
 62
7
100
AcDbSpline
 70
8
 71
3
 72
8
 73
4
 74
0
 40
0
 40
0
 40
0
 40
0
 40
1
 40
1
 40
1
 40
1
 10
412.199542
 20
113.040726
 30
0.0
 10
417.611435
 20
113.328079
 30
0.0
 10
421.809489
 20
117.874165
 30
0.0
 10
421.665808
 20
123.291776
 30
0.0
  0
SPLINE
  5
180
100
AcDbEntity
  8
Layer_1
 62
7
100
AcDbSpline
 70
8
 71
3
 72
8
 73
4
 74
0
 40
0
 40
0
 40
0
 40
0
 40
1
 40
1
 40
1
 40
1
 10
421.665808
 20
123.291776
 30
0.0
 10
421.522128
 20
128.709387
 30
0.0
 10
417.089011
 20
133.026566
 30
0.0
 10
411.669495
 20
133.026659
 30
0.0
  0
LINE
  5
181
100
AcDbEntity
  8
Layer_1
 62
7
100
AcDbLine
 10
411.669495
 20
133.026659
 30
0.0
 11
411.669495
 21
218.596409
 31
0.0
  0
SPLINE
  5
182
100
AcDbEntity
  8
Layer_1
 62
7
100
AcDbSpline
 70
8
 71
3
 72
8
 73
4
 74
0
 40
0
 40
0
 40
0
 40
0
 40
1
 40
1
 40
1
 40
1
 10
411.669495
 20
218.596409
 30
0.0
 10
415.242154
 20
218.596409
 30
0.0
 10
418.543427
 20
220.502400
 30
0.0
 10
420.329756
 20
223.596413
 30
0.0
  0
SPLINE
  5
183
100
AcDbEntity
  8
Layer_1
 62
7
100
AcDbSpline
 70
8
 71
3
 72
8
 73
4
 74
0
 40
0
 40
0
 40
0
 40
0
 40
1
 40
1
 40
1
 40
1
 10
420.329756
 20
223.596413
 30
0.0
 10
422.116086
 20
226.690426
 30
0.0
 10
422.116086
 20
230.502408
 30
0.0
 10
420.329756
 20
233.596421
 30
0.0
  0
SPLINE
  5
184
100
AcDbEntity
  8
Layer_1
 62
7
100
AcDbSpline
 70
8
 71
3
 72
8
 73
4
 74
0
 40
0
 40
0
 40
0
 40
0
 40
1
 40
1
 40
1
 40
1
 10
420.329756
 20
233.596421
 30
0.0
 10
418.543427
 20
236.690435
 30
0.0
 10
415.242154
 20
238.596425
 30
0.0
 10
411.669495
 20
238.596425
 30
0.0
  0
LINE
  5
185
100
AcDbEntity
  8
Layer_1
 62
7
100
AcDbLine
 10
411.669495
 20
238.596425
 30
0.0
 11
286.562204
 21
243.500488
 31
0.0
  0
SPLINE
  5
186
100
AcDbEntity
  8
Layer_1
 62
7
100
AcDbSpline
 70
8
 71
3
 72
8
 73
4
 74
0
 40
0
 40
0
 40
0
 40
0
 40
1
 40
1
 40
1
 40
1
 10
286.562204
 20
243.500488
 30
0.0
 10
283.300629
 20
243.628337
 30
0.0
 10
280.035298
 20
243.628384
 30
0.0
 10
276.773720
 20
243.500629
 30
0.0
  0
LINE
  5
187
100
AcDbEntity
  8
Layer_1
 62
7
100
AcDbLine
 10
276.773720
 20
243.500629
 30
0.0
 11
151.669651
 21
238.600433
 31
0.0
  0
SPLINE
  5
188
100
AcDbEntity
  8
Layer_1
 62
7
100
AcDbSpline
 70
8
 71
3
 72
8
 73
4
 74
0
 40
0
 40
0
 40
0
 40
0
 40
1
 40
1
 40
1
 40
1
 10
166.169495
 20
118.596411
 30
0.0
 10
166.169495
 20
77.332236
 30
0.0
 10
188.183671
 20
39.202565
 30
0.0
 10
223.919495
 20
18.570477
 30
0.0
  0
SPLINE
  5
189
100
AcDbEntity
  8
Layer_1
 62
7
100
AcDbSpline
 70
8
 71
3
 72
8
 73
4
 74
0
 40
0
 40
0
 40
0
 40
0
 40
1
 40
1
 40
1
 40
1
 10
223.919495
 20
18.570477
 30
0.0
 10
259.655320
 20
-2.061611
 30
0.0
 10
303.683671
 20
-2.061611
 30
0.0
 10
339.419496
 20
18.570477
 30
0.0
  0
SPLINE
  5
18a
100
AcDbEntity
  8
Layer_1
 62
7
100
AcDbSpline
 70
8
 71
3
 72
8
 73
4
 74
0
 40
0
 40
0
 40
0
 40
0
 40
1
 40
1
 40
1
 40
1
 10
339.419496
 20
18.570477
 30
0.0
 10
375.155320
 20
39.202565
 30
0.0
 10
397.169496
 20
77.332236
 30
0.0
 10
397.169496
 20
118.596411
 30
0.0
  0
SPLINE
  5
18b
100
AcDbEntity
  8
Layer_1
 62
7
100
AcDbSpline
 70
8
 71
3
 72
8
 73
4
 74
0
 40
0
 40
0
 40
0
 40
0
 40
1
 40
1
 40
1
 40
1
 10
397.169496
 20
118.596411
 30
0.0
 10
397.169496
 20
159.860587
 30
0.0
 10
375.155320
 20
197.990258
 30
0.0
 10
339.419496
 20
218.622346
 30
0.0
  0
SPLINE
  5
18c
100
AcDbEntity
  8
Layer_1
 62
7
100
AcDbSpline
 70
8
 71
3
 72
8
 73
4
 74
0
 40
0
 40
0
 40
0
 40
0
 40
1
 40
1
 40
1
 40
1
 10
339.419496
 20
218.622346
 30
0.0
 10
303.683671
 20
239.254434
 30
0.0
 10
259.655320
 20
239.254434
 30
0.0
 10
223.919495
 20
218.622346
 30
0.0
  0
SPLINE
  5
18d
100
AcDbEntity
  8
Layer_1
 62
7
100
AcDbSpline
 70
8
 71
3
 72
8
 73
4
 74
0
 40
0
 40
0
 40
0
 40
0
 40
1
 40
1
 40
1
 40
1
 10
223.919495
 20
218.622346
 30
0.0
 10
188.183671
 20
197.990258
 30
0.0
 10
166.169495
 20
159.860587
 30
0.0
 10
166.169495
 20
118.596411
 30
0.0
  0
LINE
  5
18e
100
AcDbEntity
  8
Layer_1
 62
7
100
AcDbLine
 10
166.169495
 20
118.596411
 30
0.0
 11
166.169495
 21
118.596411
 31
0.0
  0
SPLINE
  5
18f
100
AcDbEntity
  8
Layer_1
 62
7
100
AcDbSpline
 70
8
 71
3
 72
8
 73
4
 74
0
 40
0
 40
0
 40
0
 40
0
 40
1
 40
1
 40
1
 40
1
 10
440.764467
 20
230.896404
 30
0.0
 10
441.729084
 20
230.896404
 30
0.0
 10
442.620427
 20
231.411021
 30
0.0
 10
443.102736
 20
232.246404
 30
0.0
  0
SPLINE
  5
190
100
AcDbEntity
  8
Layer_1
 62
7
100
AcDbSpline
 70
8
 71
3
 72
8
 73
4
 74
0
 40
0
 40
0
 40
0
 40
0
 40
1
 40
1
 40
1
 40
1
 10
443.102736
 20
232.246404
 30
0.0
 10
443.585044
 20
233.081787
 30
0.0
 10
443.585044
 20
234.111021
 30
0.0
 10
443.102736
 20
234.946404
 30
0.0
  0
SPLINE
  5
191
100
AcDbEntity
  8
Layer_1
 62
7
100
AcDbSpline
 70
8
 71
3
 72
8
 73
4
 74
0
 40
0
 40
0
 40
0
 40
0
 40
1
 40
1
 40
1
 40
1
 10
443.102736
 20
234.946404
 30
0.0
 10
442.620427
 20
235.781787
 30
0.0
 10
441.729084
 20
236.296405
 30
0.0
 10
440.764467
 20
236.296405
 30
0.0
  0
SPLINE
  5
192
100
AcDbEntity
  8
Layer_1
 62
7
100
AcDbSpline
 70
8
 71
3
 72
8
 73
4
 74
0
 40
0
 40
0
 40
0
 40
0
 40
1
 40
1
 40
1
 40
1
 10
440.764467
 20
236.296405
 30
0.0
 10
439.799850
 20
236.296405
 30
0.0
 10
438.908507
 20
235.781787
 30
0.0
 10
438.426198
 20
234.946404
 30
0.0
  0
SPLINE
  5
193
100
AcDbEntity
  8
Layer_1
 62
7
100
AcDbSpline
 70
8
 71
3
 72
8
 73
4
 74
0
 40
0
 40
0
 40
0
 40
0
 40
1
 40
1
 40
1
 40
1
 10
438.426198
 20
234.946404
 30
0.0
 10
437.943889
 20
234.111021
 30
0.0
 10
437.943889
 20
233.081787
 30
0.0
 10
438.426198
 20
232.246404
 30
0.0
  0
SPLINE
  5
194
100
AcDbEntity
  8
Layer_1
 62
7
100
AcDbSpline
 70
8
 71
3
 72
8
 73
4
 74
0
 40
0
 40
0
 40
0
 40
0
 40
1
 40
1
 40
1
 40
1
 10
438.426198
 20
232.246404
 30
0.0
 10
438.908507
 20
231.411021
 30
0.0
 10
439.799850
 20
230.896404
 30
0.0
 10
440.764467
 20
230.896404
 30
0.0
  0
LINE
  5
195
100
AcDbEntity
  8
Layer_1
 62
7
100
AcDbLine
 10
440.764467
 20
230.896404
 30
0.0
 11
440.764467
 21
230.896404
 31
0.0
  0
SPLINE
  5
196
100
AcDbEntity
  8
Layer_1
 62
7
100
AcDbSpline
 70
8
 71
3
 72
8
 73
4
 74
0
 40
0
 40
0
 40
0
 40
0
 40
1
 40
1
 40
1
 40
1
 10
440.760459
 20
-29.103578
 30
0.0
 10
442.248984
 20
-29.099851
 30
0.0
 10
443.453698
 20
-27.892116
 30
0.0
 10
443.453698
 20
-26.403587
 30
0.0
  0
SPLINE
  5
197
100
AcDbEntity
  8
Layer_1
 62
7
100
AcDbSpline
 70
8
 71
3
 72
8
 73
4
 74
0
 40
0
 40
0
 40
0
 40
0
 40
1
 40
1
 40
1
 40
1
 10
443.453698
 20
-26.403587
 30
0.0
 10
443.453698
 20
-24.915057
 30
0.0
 10
442.248984
 20
-23.707323
 30
0.0
 10
440.760459
 20
-23.703595
 30
0.0
  0
SPLINE
  5
198
100
AcDbEntity
  8
Layer_1
 62
7
100
AcDbSpline
 70
8
 71
3
 72
8
 73
4
 74
0
 40
0
 40
0
 40
0
 40
0
 40
1
 40
1
 40
1
 40
1
 10
440.760459
 20
-23.703595
 30
0.0
 10
439.794235
 20
-23.701175
 30
0.0
 10
438.900369
 20
-24.215261
 30
0.0
 10
438.416557
 20
-25.051635
 30
0.0
  0
SPLINE
  5
199
100
AcDbEntity
  8
Layer_1
 62
7
100
AcDbSpline
 70
8
 71
3
 72
8
 73
4
 74
0
 40
0
 40
0
 40
0
 40
0
 40
1
 40
1
 40
1
 40
1
 10
438.416557
 20
-25.051635
 30
0.0
 10
437.932744
 20
-25.888009
 30
0.0
 10
437.932744
 20
-26.919164
 30
0.0
 10
438.416557
 20
-27.755538
 30
0.0
  0
SPLINE
  5
19a
100
AcDbEntity
  8
Layer_1
 62
7
100
AcDbSpline
 70
8
 71
3
 72
8
 73
4
 74
0
 40
0
 40
0
 40
0
 40
0
 40
1
 40
1
 40
1
 40
1
 10
438.416557
 20
-27.755538
 30
0.0
 10
438.900369
 20
-28.591912
 30
0.0
 10
439.794235
 20
-29.105998
 30
0.0
 10
440.760459
 20
-29.103578
 30
0.0
  0
LINE
  5
19b
100
AcDbEntity
  8
Layer_1
 62
7
100
AcDbLine
 10
440.760459
 20
-29.103578
 30
0.0
 11
440.760459
 21
-29.103578
 31
0.0
  0
SPLINE
  5
19c
100
AcDbEntity
  8
Layer_1
 62
7
100
AcDbSpline
 70
8
 71
3
 72
8
 73
4
 74
0
 40
0
 40
0
 40
0
 40
0
 40
1
 40
1
 40
1
 40
1
 10
450.764475
 20
233.596404
 30
0.0
 10
450.764475
 20
236.214399
 30
0.0
 10
449.686753
 20
238.816276
 30
0.0
 10
447.835545
 20
240.667476
 30
0.0
  0
SPLINE
  5
19d
100
AcDbEntity
  8
Layer_1
 62
7
100
AcDbSpline
 70
8
 71
3
 72
8
 73
4
 74
0
 40
0
 40
0
 40
0
 40
0
 40
1
 40
1
 40
1
 40
1
 10
447.835545
 20
240.667476
 30
0.0
 10
445.984336
 20
242.518679
 30
0.0
 10
443.382473
 20
243.596410
 30
0.0
 10
440.764467
 20
243.596410
 30
0.0
  0
SPLINE
  5
19e
100
AcDbEntity
  8
Layer_1
 62
7
100
AcDbSpline
 70
8
 71
3
 72
8
 73
4
 74
0
 40
0
 40
0
 40
0
 40
0
 40
1
 40
1
 40
1
 40
1
 10
440.764467
 20
243.596410
 30
0.0
 10
438.146461
 20
243.596410
 30
0.0
 10
435.544598
 20
242.518679
 30
0.0
 10
433.693389
 20
240.667476
 30
0.0
  0
SPLINE
  5
19f
100
AcDbEntity
  8
Layer_1
 62
7
100
AcDbSpline
 70
8
 71
3
 72
8
 73
4
 74
0
 40
0
 40
0
 40
0
 40
0
 40
1
 40
1
 40
1
 40
1
 10
433.693389
 20
240.667476
 30
0.0
 10
431.842181
 20
238.816276
 30
0.0
 10
430.764459
 20
236.214399
 30
0.0
 10
430.764459
 20
233.596404
 30
0.0
  0
LINE
  5
1a0
100
AcDbEntity
  8
Layer_1
 62
7
100
AcDbLine
 10
430.764459
 20
233.596404
 30
0.0
 11
430.760508
 21
-26.403445
 31
0.0
  0
SPLINE
  5
1a1
100
AcDbEntity
  8
Layer_1
 62
7
100
AcDbSpline
 70
8
 71
3
 72
8
 73
4
 74
0
 40
0
 40
0
 40
0
 40
0
 40
1
 40
1
 40
1
 40
1
 10
430.760508
 20
-26.403445
 30
0.0
 10
430.763330
 20
-29.019617
 30
0.0
 10
431.842350
 20
-31.618573
 30
0.0
 10
433.693276
 20
-33.467468
 30
0.0
  0
SPLINE
  5
1a2
100
AcDbEntity
  8
Layer_1
 62
7
100
AcDbSpline
 70
8
 71
3
 72
8
 73
4
 74
0
 40
0
 40
0
 40
0
 40
0
 40
1
 40
1
 40
1
 40
1
 10
433.693276
 20
-33.467468
 30
0.0
 10
435.544202
 20
-35.316390
 30
0.0
 10
438.144316
 20
-36.392560
 30
0.0
 10
440.760488
 20
-36.392560
 30
0.0
  0
SPLINE
  5
1a3
100
AcDbEntity
  8
Layer_1
 62
7
100
AcDbSpline
 70
8
 71
3
 72
8
 73
4
 74
0
 40
0
 40
0
 40
0
 40
0
 40
1
 40
1
 40
1
 40
1
 10
440.760488
 20
-36.392560
 30
0.0
 10
443.376688
 20
-36.392560
 30
0.0
 10
445.976801
 20
-35.316390
 30
0.0
 10
447.827727
 20
-33.467468
 30
0.0
  0
SPLINE
  5
1a4
100
AcDbEntity
  8
Layer_1
 62
7
100
AcDbSpline
 70
8
 71
3
 72
8
 73
4
 74
0
 40
0
 40
0
 40
0
 40
0
 40
1
 40
1
 40
1
 40
1
 10
447.827727
 20
-33.467468
 30
0.0
 10
449.678653
 20
-31.618573
 30
0.0
 10
450.757645
 20
-29.019617
 30
0.0
 10
450.760496
 20
-26.403445
 30
0.0
  0
LINE
  5
1a5
100
AcDbEntity
  8
Layer_1
 62
7
100
AcDbLine
 10
450.760496
 20
-26.403445
 30
0.0
 11
450.764475
 21
233.596404
 31
0.0
  0
SPLINE
  5
1a6
100
AcDbEntity
  8
Layer_1
 62
7
100
AcDbSpline
 70
8
 71
3
 72
8
 73
4
 74
0
 40
0
 40
0
 40
0
 40
0
 40
1
 40
1
 40
1
 40
1
 10
122.242292
 20
-17.717506
 30
0.0
 10
122.242292
 20
-18.682123
 30
0.0
 10
122.756909
 20
-19.573466
 30
0.0
 10
123.592292
 20
-20.055775
 30
0.0
  0
SPLINE
  5
1a7
100
AcDbEntity
  8
Layer_1
 62
7
100
AcDbSpline
 70
8
 71
3
 72
8
 73
4
 74
0
 40
0
 40
0
 40
0
 40
0
 40
1
 40
1
 40
1
 40
1
 10
123.592292
 20
-20.055775
 30
0.0
 10
124.427675
 20
-20.538084
 30
0.0
 10
125.456910
 20
-20.538084
 30
0.0
 10
126.292292
 20
-20.055775
 30
0.0
  0
SPLINE
  5
1a8
100
AcDbEntity
  8
Layer_1
 62
7
100
AcDbSpline
 70
8
 71
3
 72
8
 73
4
 74
0
 40
0
 40
0
 40
0
 40
0
 40
1
 40
1
 40
1
 40
1
 10
126.292292
 20
-20.055775
 30
0.0
 10
127.127675
 20
-19.573466
 30
0.0
 10
127.642293
 20
-18.682123
 30
0.0
 10
127.642293
 20
-17.717506
 30
0.0
  0
SPLINE
  5
1a9
100
AcDbEntity
  8
Layer_1
 62
7
100
AcDbSpline
 70
8
 71
3
 72
8
 73
4
 74
0
 40
0
 40
0
 40
0
 40
0
 40
1
 40
1
 40
1
 40
1
 10
127.642293
 20
-17.717506
 30
0.0
 10
127.642293
 20
-16.752889
 30
0.0
 10
127.127675
 20
-15.861546
 30
0.0
 10
126.292292
 20
-15.379237
 30
0.0
  0
SPLINE
  5
1aa
100
AcDbEntity
  8
Layer_1
 62
7
100
AcDbSpline
 70
8
 71
3
 72
8
 73
4
 74
0
 40
0
 40
0
 40
0
 40
0
 40
1
 40
1
 40
1
 40
1
 10
126.292292
 20
-15.379237
 30
0.0
 10
125.456910
 20
-14.896929
 30
0.0
 10
124.427675
 20
-14.896929
 30
0.0
 10
123.592292
 20
-15.379237
 30
0.0
  0
SPLINE
  5
1ab
100
AcDbEntity
  8
Layer_1
 62
7
100
AcDbSpline
 70
8
 71
3
 72
8
 73
4
 74
0
 40
0
 40
0
 40
0
 40
0
 40
1
 40
1
 40
1
 40
1
 10
123.592292
 20
-15.379237
 30
0.0
 10
122.756909
 20
-15.861546
 30
0.0
 10
122.242292
 20
-16.752889
 30
0.0
 10
122.242292
 20
-17.717506
 30
0.0
  0
LINE
  5
1ac
100
AcDbEntity
  8
Layer_1
 62
7
100
AcDbLine
 10
122.242292
 20
-17.717506
 30
0.0
 11
122.242292
 21
-17.717506
 31
0.0
  0
SPLINE
  5
1ad
100
AcDbEntity
  8
Layer_1
 62
7
100
AcDbSpline
 70
8
 71
3
 72
8
 73
4
 74
0
 40
0
 40
0
 40
0
 40
0
 40
1
 40
1
 40
1
 40
1
 10
-137.757690
 20
-17.713499
 30
0.0
 10
-137.753962
 20
-19.202023
 30
0.0
 10
-136.546227
 20
-20.406737
 30
0.0
 10
-135.057698
 20
-20.406737
 30
0.0
  0
SPLINE
  5
1ae
100
AcDbEntity
  8
Layer_1
 62
7
100
AcDbSpline
 70
8
 71
3
 72
8
 73
4
 74
0
 40
0
 40
0
 40
0
 40
0
 40
1
 40
1
 40
1
 40
1
 10
-135.057698
 20
-20.406737
 30
0.0
 10
-133.569169
 20
-20.406737
 30
0.0
 10
-132.361434
 20
-19.202023
 30
0.0
 10
-132.357707
 20
-17.713499
 30
0.0
  0
SPLINE
  5
1af
100
AcDbEntity
  8
Layer_1
 62
7
100
AcDbSpline
 70
8
 71
3
 72
8
 73
4
 74
0
 40
0
 40
0
 40
0
 40
0
 40
1
 40
1
 40
1
 40
1
 10
-132.357707
 20
-17.713499
 30
0.0
 10
-132.355287
 20
-16.747274
 30
0.0
 10
-132.869373
 20
-15.853408
 30
0.0
 10
-133.705747
 20
-15.369596
 30
0.0
  0
SPLINE
  5
1b0
100
AcDbEntity
  8
Layer_1
 62
7
100
AcDbSpline
 70
8
 71
3
 72
8
 73
4
 74
0
 40
0
 40
0
 40
0
 40
0
 40
1
 40
1
 40
1
 40
1
 10
-133.705747
 20
-15.369596
 30
0.0
 10
-134.542121
 20
-14.885784
 30
0.0
 10
-135.573276
 20
-14.885784
 30
0.0
 10
-136.409650
 20
-15.369596
 30
0.0
  0
SPLINE
  5
1b1
100
AcDbEntity
  8
Layer_1
 62
7
100
AcDbSpline
 70
8
 71
3
 72
8
 73
4
 74
0
 40
0
 40
0
 40
0
 40
0
 40
1
 40
1
 40
1
 40
1
 10
-136.409650
 20
-15.369596
 30
0.0
 10
-137.246024
 20
-15.853408
 30
0.0
 10
-137.760110
 20
-16.747274
 30
0.0
 10
-137.757690
 20
-17.713499
 30
0.0
  0
LINE
  5
1b2
100
AcDbEntity
  8
Layer_1
 62
7
100
AcDbLine
 10
-137.757690
 20
-17.713499
 30
0.0
 11
-137.757690
 21
-17.713499
 31
0.0
  0
SPLINE
  5
1b3
100
AcDbEntity
  8
Layer_1
 62
7
100
AcDbSpline
 70
8
 71
3
 72
8
 73
4
 74
0
 40
0
 40
0
 40
0
 40
0
 40
1
 40
1
 40
1
 40
1
 10
124.942292
 20
-27.717514
 30
0.0
 10
127.560287
 20
-27.717514
 30
0.0
 10
130.162165
 20
-26.639792
 30
0.0
 10
132.013365
 20
-24.788584
 30
0.0
  0
SPLINE
  5
1b4
100
AcDbEntity
  8
Layer_1
 62
7
100
AcDbSpline
 70
8
 71
3
 72
8
 73
4
 74
0
 40
0
 40
0
 40
0
 40
0
 40
1
 40
1
 40
1
 40
1
 10
132.013365
 20
-24.788584
 30
0.0
 10
133.864567
 20
-22.937376
 30
0.0
 10
134.942298
 20
-20.335512
 30
0.0
 10
134.942298
 20
-17.717506
 30
0.0
  0
SPLINE
  5
1b5
100
AcDbEntity
  8
Layer_1
 62
7
100
AcDbSpline
 70
8
 71
3
 72
8
 73
4
 74
0
 40
0
 40
0
 40
0
 40
0
 40
1
 40
1
 40
1
 40
1
 10
134.942298
 20
-17.717506
 30
0.0
 10
134.942298
 20
-15.099500
 30
0.0
 10
133.864567
 20
-12.497637
 30
0.0
 10
132.013365
 20
-10.646428
 30
0.0
  0
SPLINE
  5
1b6
100
AcDbEntity
  8
Layer_1
 62
7
100
AcDbSpline
 70
8
 71
3
 72
8
 73
4
 74
0
 40
0
 40
0
 40
0
 40
0
 40
1
 40
1
 40
1
 40
1
 10
132.013365
 20
-10.646428
 30
0.0
 10
130.162165
 20
-8.795220
 30
0.0
 10
127.560287
 20
-7.717498
 30
0.0
 10
124.942292
 20
-7.717498
 30
0.0
  0
LINE
  5
1b7
100
AcDbEntity
  8
Layer_1
 62
7
100
AcDbLine
 10
124.942292
 20
-7.717498
 30
0.0
 11
-135.057557
 21
-7.713547
 31
0.0
  0
SPLINE
  5
1b8
100
AcDbEntity
  8
Layer_1
 62
7
100
AcDbSpline
 70
8
 71
3
 72
8
 73
4
 74
0
 40
0
 40
0
 40
0
 40
0
 40
1
 40
1
 40
1
 40
1
 10
-135.057557
 20
-7.713547
 30
0.0
 10
-137.673729
 20
-7.716369
 30
0.0
 10
-140.272685
 20
-8.795389
 30
0.0
 10
-142.121580
 20
-10.646316
 30
0.0
  0
SPLINE
  5
1b9
100
AcDbEntity
  8
Layer_1
 62
7
100
AcDbSpline
 70
8
 71
3
 72
8
 73
4
 74
0
 40
0
 40
0
 40
0
 40
0
 40
1
 40
1
 40
1
 40
1
 10
-142.121580
 20
-10.646316
 30
0.0
 10
-143.970502
 20
-12.497242
 30
0.0
 10
-145.046672
 20
-15.097355
 30
0.0
 10
-145.046672
 20
-17.713527
 30
0.0
  0
SPLINE
  5
1ba
100
AcDbEntity
  8
Layer_1
 62
7
100
AcDbSpline
 70
8
 71
3
 72
8
 73
4
 74
0
 40
0
 40
0
 40
0
 40
0
 40
1
 40
1
 40
1
 40
1
 10
-145.046672
 20
-17.713527
 30
0.0
 10
-145.046672
 20
-20.329727
 30
0.0
 10
-143.970502
 20
-22.929840
 30
0.0
 10
-142.121580
 20
-24.780766
 30
0.0
  0
SPLINE
  5
1bb
100
AcDbEntity
  8
Layer_1
 62
7
100
AcDbSpline
 70
8
 71
3
 72
8
 73
4
 74
0
 40
0
 40
0
 40
0
 40
0
 40
1
 40
1
 40
1
 40
1
 10
-142.121580
 20
-24.780766
 30
0.0
 10
-140.272685
 20
-26.631693
 30
0.0
 10
-137.673729
 20
-27.710685
 30
0.0
 10
-135.057557
 20
-27.713535
 30
0.0
  0
LINE
  5
1bc
100
AcDbEntity
  8
Layer_1
 62
7
100
AcDbLine
 10
-135.057557
 20
-27.713535
 30
0.0
 11
124.942292
 21
-27.717514
 31
0.0
  0
SPLINE
  5
1bd
100
AcDbEntity
  8
Layer_1
 62
7
100
AcDbSpline
 70
8
 71
3
 72
8
 73
4
 74
0
 40
0
 40
0
 40
0
 40
0
 40
1
 40
1
 40
1
 40
1
 10
149.326352
 20
-17.725022
 30
0.0
 10
149.326352
 20
-16.760405
 30
0.0
 10
148.811735
 20
-15.869062
 30
0.0
 10
147.976352
 20
-15.386753
 30
0.0
  0
SPLINE
  5
1be
100
AcDbEntity
  8
Layer_1
 62
7
100
AcDbSpline
 70
8
 71
3
 72
8
 73
4
 74
0
 40
0
 40
0
 40
0
 40
0
 40
1
 40
1
 40
1
 40
1
 10
147.976352
 20
-15.386753
 30
0.0
 10
147.140969
 20
-14.904444
 30
0.0
 10
146.111734
 20
-14.904444
 30
0.0
 10
145.276351
 20
-15.386753
 30
0.0
  0
SPLINE
  5
1bf
100
AcDbEntity
  8
Layer_1
 62
7
100
AcDbSpline
 70
8
 71
3
 72
8
 73
4
 74
0
 40
0
 40
0
 40
0
 40
0
 40
1
 40
1
 40
1
 40
1
 10
145.276351
 20
-15.386753
 30
0.0
 10
144.440968
 20
-15.869062
 30
0.0
 10
143.926351
 20
-16.760405
 30
0.0
 10
143.926351
 20
-17.725022
 30
0.0
  0
SPLINE
  5
1c0
100
AcDbEntity
  8
Layer_1
 62
7
100
AcDbSpline
 70
8
 71
3
 72
8
 73
4
 74
0
 40
0
 40
0
 40
0
 40
0
 40
1
 40
1
 40
1
 40
1
 10
143.926351
 20
-17.725022
 30
0.0
 10
143.926351
 20
-18.689639
 30
0.0
 10
144.440968
 20
-19.580982
 30
0.0
 10
145.276351
 20
-20.063291
 30
0.0
  0
SPLINE
  5
1c1
100
AcDbEntity
  8
Layer_1
 62
7
100
AcDbSpline
 70
8
 71
3
 72
8
 73
4
 74
0
 40
0
 40
0
 40
0
 40
0
 40
1
 40
1
 40
1
 40
1
 10
145.276351
 20
-20.063291
 30
0.0
 10
146.111734
 20
-20.545599
 30
0.0
 10
147.140969
 20
-20.545599
 30
0.0
 10
147.976352
 20
-20.063291
 30
0.0
  0
SPLINE
  5
1c2
100
AcDbEntity
  8
Layer_1
 62
7
100
AcDbSpline
 70
8
 71
3
 72
8
 73
4
 74
0
 40
0
 40
0
 40
0
 40
0
 40
1
 40
1
 40
1
 40
1
 10
147.976352
 20
-20.063291
 30
0.0
 10
148.811735
 20
-19.580982
 30
0.0
 10
149.326352
 20
-18.689639
 30
0.0
 10
149.326352
 20
-17.725022
 30
0.0
  0
LINE
  5
1c3
100
AcDbEntity
  8
Layer_1
 62
7
100
AcDbLine
 10
149.326352
 20
-17.725022
 30
0.0
 11
149.326352
 21
-17.725022
 31
0.0
  0
SPLINE
  5
1c4
100
AcDbEntity
  8
Layer_1
 62
7
100
AcDbSpline
 70
8
 71
3
 72
8
 73
4
 74
0
 40
0
 40
0
 40
0
 40
0
 40
1
 40
1
 40
1
 40
1
 10
409.326334
 20
-17.729029
 30
0.0
 10
409.322606
 20
-16.240505
 30
0.0
 10
408.114871
 20
-15.035791
 30
0.0
 10
406.626342
 20
-15.035791
 30
0.0
  0
SPLINE
  5
1c5
100
AcDbEntity
  8
Layer_1
 62
7
100
AcDbSpline
 70
8
 71
3
 72
8
 73
4
 74
0
 40
0
 40
0
 40
0
 40
0
 40
1
 40
1
 40
1
 40
1
 10
406.626342
 20
-15.035791
 30
0.0
 10
405.137813
 20
-15.035791
 30
0.0
 10
403.930078
 20
-16.240505
 30
0.0
 10
403.926350
 20
-17.729029
 30
0.0
  0
SPLINE
  5
1c6
100
AcDbEntity
  8
Layer_1
 62
7
100
AcDbSpline
 70
8
 71
3
 72
8
 73
4
 74
0
 40
0
 40
0
 40
0
 40
0
 40
1
 40
1
 40
1
 40
1
 10
403.926350
 20
-17.729029
 30
0.0
 10
403.923931
 20
-18.695254
 30
0.0
 10
404.438016
 20
-19.589120
 30
0.0
 10
405.274391
 20
-20.072932
 30
0.0
  0
SPLINE
  5
1c7
100
AcDbEntity
  8
Layer_1
 62
7
100
AcDbSpline
 70
8
 71
3
 72
8
 73
4
 74
0
 40
0
 40
0
 40
0
 40
0
 40
1
 40
1
 40
1
 40
1
 10
405.274391
 20
-20.072932
 30
0.0
 10
406.110765
 20
-20.556744
 30
0.0
 10
407.141920
 20
-20.556744
 30
0.0
 10
407.978294
 20
-20.072932
 30
0.0
  0
SPLINE
  5
1c8
100
AcDbEntity
  8
Layer_1
 62
7
100
AcDbSpline
 70
8
 71
3
 72
8
 73
4
 74
0
 40
0
 40
0
 40
0
 40
0
 40
1
 40
1
 40
1
 40
1
 10
407.978294
 20
-20.072932
 30
0.0
 10
408.814668
 20
-19.589120
 30
0.0
 10
409.328754
 20
-18.695254
 30
0.0
 10
409.326334
 20
-17.729029
 30
0.0
  0
LINE
  5
1c9
100
AcDbEntity
  8
Layer_1
 62
7
100
AcDbLine
 10
409.326334
 20
-17.729029
 30
0.0
 11
409.326334
 21
-17.729029
 31
0.0
  0
SPLINE
  5
1ca
100
AcDbEntity
  8
Layer_1
 62
7
100
AcDbSpline
 70
8
 71
3
 72
8
 73
4
 74
0
 40
0
 40
0
 40
0
 40
0
 40
1
 40
1
 40
1
 40
1
 10
146.626351
 20
-7.725014
 30
0.0
 10
144.008356
 20
-7.725014
 30
0.0
 10
141.406479
 20
-8.802736
 30
0.0
 10
139.555279
 20
-10.653944
 30
0.0
  0
SPLINE
  5
1cb
100
AcDbEntity
  8
Layer_1
 62
7
100
AcDbSpline
 70
8
 71
3
 72
8
 73
4
 74
0
 40
0
 40
0
 40
0
 40
0
 40
1
 40
1
 40
1
 40
1
 10
139.555279
 20
-10.653944
 30
0.0
 10
137.704076
 20
-12.505152
 30
0.0
 10
136.626346
 20
-15.107016
 30
0.0
 10
136.626346
 20
-17.725022
 30
0.0
  0
SPLINE
  5
1cc
100
AcDbEntity
  8
Layer_1
 62
7
100
AcDbSpline
 70
8
 71
3
 72
8
 73
4
 74
0
 40
0
 40
0
 40
0
 40
0
 40
1
 40
1
 40
1
 40
1
 10
136.626346
 20
-17.725022
 30
0.0
 10
136.626346
 20
-20.343028
 30
0.0
 10
137.704076
 20
-22.944891
 30
0.0
 10
139.555279
 20
-24.796100
 30
0.0
  0
SPLINE
  5
1cd
100
AcDbEntity
  8
Layer_1
 62
7
100
AcDbSpline
 70
8
 71
3
 72
8
 73
4
 74
0
 40
0
 40
0
 40
0
 40
0
 40
1
 40
1
 40
1
 40
1
 10
139.555279
 20
-24.796100
 30
0.0
 10
141.406479
 20
-26.647308
 30
0.0
 10
144.008356
 20
-27.725030
 30
0.0
 10
146.626351
 20
-27.725030
 30
0.0
  0
LINE
  5
1ce
100
AcDbEntity
  8
Layer_1
 62
7
100
AcDbLine
 10
146.626351
 20
-27.725030
 30
0.0
 11
406.626201
 21
-27.728981
 31
0.0
  0
SPLINE
  5
1cf
100
AcDbEntity
  8
Layer_1
 62
7
100
AcDbSpline
 70
8
 71
3
 72
8
 73
4
 74
0
 40
0
 40
0
 40
0
 40
0
 40
1
 40
1
 40
1
 40
1
 10
406.626201
 20
-27.728981
 30
0.0
 10
409.242373
 20
-27.726159
 30
0.0
 10
411.841329
 20
-26.647139
 30
0.0
 10
413.690223
 20
-24.796212
 30
0.0
  0
SPLINE
  5
1d0
100
AcDbEntity
  8
Layer_1
 62
7
100
AcDbSpline
 70
8
 71
3
 72
8
 73
4
 74
0
 40
0
 40
0
 40
0
 40
0
 40
1
 40
1
 40
1
 40
1
 10
413.690223
 20
-24.796212
 30
0.0
 10
415.539146
 20
-22.945286
 30
0.0
 10
416.615316
 20
-20.345173
 30
0.0
 10
416.615316
 20
-17.729001
 30
0.0
  0
SPLINE
  5
1d1
100
AcDbEntity
  8
Layer_1
 62
7
100
AcDbSpline
 70
8
 71
3
 72
8
 73
4
 74
0
 40
0
 40
0
 40
0
 40
0
 40
1
 40
1
 40
1
 40
1
 10
416.615316
 20
-17.729001
 30
0.0
 10
416.615316
 20
-15.112801
 30
0.0
 10
415.539146
 20
-12.512688
 30
0.0
 10
413.690223
 20
-10.661762
 30
0.0
  0
SPLINE
  5
1d2
100
AcDbEntity
  8
Layer_1
 62
7
100
AcDbSpline
 70
8
 71
3
 72
8
 73
4
 74
0
 40
0
 40
0
 40
0
 40
0
 40
1
 40
1
 40
1
 40
1
 10
413.690223
 20
-10.661762
 30
0.0
 10
411.841329
 20
-8.810835
 30
0.0
 10
409.242373
 20
-7.731843
 30
0.0
 10
406.626201
 20
-7.728993
 30
0.0
  0
LINE
  5
1d3
100
AcDbEntity
  8
Layer_1
 62
7
100
AcDbLine
 10
406.626201
 20
-7.728993
 30
0.0
 11
146.626351
 21
-7.725014
 31
0.0
  0
ENDSEC
  0
SECTION
  2
OBJECTS
  0
DICTIONARY
  5
C
330
0
100
AcDbDictionary
  3
ACAD_GROUP
350
D
  3
ACAD_MLINESTYLE
350
17
  0
DICTIONARY
  5
D
330
C
100
AcDbDictionary
  0
DICTIONARY
  5
1A
330
C
100
AcDbDictionary
  0
DICTIONARY
  5
17
330
C
100
AcDbDictionary
  3
STANDARD
350
18
  0
DICTIONARY
  5
19
330
C
100
AcDbDictionary
  0
ENDSEC
  0
EOF
