0
SECTION
2
HEADER
9
$INSUNITS
70
4
9
$ACADVER
1
AC1014
9
$HANDSEED
5
FFFF
0
ENDSEC
0
SECTION
2
TABLES
0
TABLE
2
VPORT
5
8
100
AcDbSymbolTable
0
ENDTAB
0
TABLE
2
LTYPE
5
5
100
AcDbSymbolTable
0
LTYPE
5
14
100
AcDbSymbolTableRecord
100
AcDbLinetypeTableRecord
2
BYBLOCK
70
0
0
LTYPE
5
15
100
AcDbSymbolTableRecord
100
AcDbLinetypeTableRecord
2
BYLAYER
70
0
0
ENDTAB
0
TABLE
2
LAYER
5
2
100
AcDbSymbolTable
70
2
0
LAYER
5
50
100
AcDbSymbolTableRecord
100
AcDbLayerTableRecord
2
0
70
0
6
CONTINUOUS
0
ENDTAB
0
TABLE
2
STYLE
5
3
100
AcDbSymbolTable
70
1
0
STYLE
5
11
100
AcDbSymbolTableRecord
100
AcDbTextStyleTableRecord
2
STANDARD
70
0
0
ENDTAB
0
TABLE
2
VIEW
5
6
100
AcDbSymbolTable
70
0
0
ENDTAB
0
TABLE
2
UCS
5
7
100
AcDbSymbolTable
70
0
0
ENDTAB
0
TABLE
2
APPID
5
9
100
AcDbSymbolTable
70
2
0
APPID
5
12
100
AcDbSymbolTableRecord
100
AcDbRegAppTableRecord
2
ACAD
70
0
0
ENDTAB
0
TABLE
2
DIMSTYLE
5
A
100
AcDbSymbolTable
70
1
0
ENDTAB
0
TABLE
2
BLOCK_RECORD
5
1
100
AcDbSymbolTable
70
1
0
BLOCK_RECORD
5
1F
100
AcDbSymbolTableRecord
100
AcDbBlockTableRecord
2
*MODEL_SPACE
0
BLOCK_RECORD
5
1B
100
AcDbSymbolTableRecord
100
AcDbBlockTableRecord
2
*PAPER_SPACE
0
ENDTAB
0
ENDSEC
0
SECTION
2
BLOCKS
0
BLOCK
5
20
100
AcDbEntity
100
AcDbBlockBegin
2
*MODEL_SPACE
0
ENDBLK
5
21
100
AcDbEntity
100
AcDbBlockEnd
0
BLOCK
5
1C
100
AcDbEntity
100
AcDbBlockBegin
2
*PAPER_SPACE
0
ENDBLK
5
1D
100
AcDbEntity
100
AcDbBlockEnd
0
ENDSEC
0
SECTION
2
ENTITIES
0
CIRCLE
5
100
100
AcDbEntity
8
0
100
AcDbCircle
10
130.00326438359878
20
-4.4342694198705424
30
0
40
2.6999999999999957
210
0
220
0
230
1
0
LWPOLYLINE
5
101
100
AcDbEntity
8
0
100
AcDbPolyline
90
4
70
1
43
0.0
10
139.67268081261776
20
83.551452476123487
10
134.67294860885406
20
92.211861120676275
42
0.99999999999999989
10
129.9963279407954
20
89.512005730644091
10
134.9960601445591
20
80.851597086091047
42
0.99999999999999989
0
CIRCLE
5
102
100
AcDbEntity
8
0
100
AcDbCircle
10
-130
20
-110
30
0
40
2.6999999999999957
210
0
220
0
230
1
0
CIRCLE
5
103
100
AcDbEntity
8
0
100
AcDbCircle
10
129.99999993784832
20
-110.00401988207321
30
0
40
2.6999999999999957
210
0
220
0
230
1
0
ARC
5
104
100
AcDbEntity
8
0
100
AcDbCircle
10
-137.32842712474618
20
82.205771365940052
30
0
40
2.6999999999999975
210
0
220
0
230
1
100
AcDbArc
50
149.9999999999998
51
330.00000000000006
0
LINE
5
105
100
AcDbEntity
8
0
100
AcDbLine
10
-139.66669571496416
20
83.55577136594006
30
0
11
-134.66669571496422
21
92.216025403784386
31
0
0
ARC
5
106
100
AcDbEntity
8
0
100
AcDbCircle
10
-132.32842712474618
20
90.866025403784434
30
0
40
2.7000000000000011
210
0
220
0
230
1
100
AcDbArc
50
-29.99999999999854
51
150.00000000000145
0
LINE
5
107
100
AcDbEntity
8
0
100
AcDbLine
10
-129.99015853452815
20
89.516025403784482
30
0
11
-134.99015853452821
21
80.855771365940058
31
0
0
CIRCLE
5
108
100
AcDbEntity
8
0
100
AcDbCircle
10
-130
20
-4.4302494873254616
30
0
40
2.6999999999999957
210
0
220
0
230
1
0
ARC
5
109
100
AcDbEntity
8
0
100
AcDbCircle
10
129.99999993784832
20
-110.00401988207321
30
0
40
9.9999999999999858
210
0
220
0
230
1
100
AcDbArc
50
-90.00088585517463
51
89.998228290584947
0
LINE
5
110
100
AcDbEntity
8
0
100
AcDbLine
10
130.00030915947508
20
-100.00401988685411
30
0
11
130.00295516190084
21
-14.434269415089638
31
0
0
ARC
5
111
100
AcDbEntity
8
0
100
AcDbCircle
10
130.00326438359878
20
-4.4342694198705424
30
0
40
9.9999999999999982
210
0
220
0
230
1
100
AcDbArc
50
-90.001771709822819
51
86.959854906753066
0
LINE
5
112
100
AcDbEntity
8
0
100
AcDbLine
10
130.53362085518864
20
5.5516567771851282
30
0
11
134.17155878721925
21
74.049321357064173
31
0
0
ARC
5
113
100
AcDbEntity
8
0
100
AcDbCircle
10
134.83450437670658
20
86.531729103383768
30
0
40
12.500000000000004
210
0
220
0
230
1
100
AcDbArc
50
-93.040145093246892
51
113.6875012616855
0
LINE
5
114
100
AcDbEntity
8
0
100
AcDbLine
10
129.81265411834912
20
97.978607279665511
30
0
11
28.509868429508138
21
121.70612690780874
31
0
0
ARC
5
115
100
AcDbEntity
8
0
100
AcDbCircle
10
0.0034014386773317277
20
-5.2589932408864115e-08
30
0
40
125.00000000000003
210
0
220
-0
230
1
100
AcDbArc
50
76.817603615841449
51
89.999893697451114
0
ARC
5
116
100
AcDbEntity
8
0
100
AcDbCircle
10
0
20
0
30
0
40
125.00000000000001
210
0
220
-0
230
1
100
AcDbArc
50
89.9983350675504
51
103.18062467433569
0
LINE
5
117
100
AcDbEntity
8
0
100
AcDbLine
10
-28.502703559679262
20
121.70700838402468
30
0
11
-129.80622290647904
21
97.98262126916498
31
0
0
ARC
5
118
100
AcDbEntity
8
0
100
AcDbCircle
10
-134.82842712474618
20
86.53589838486225
30
0
40
12.500000000000004
210
0
220
-0
230
1
100
AcDbArc
50
66.310727028491613
51
273.03837338342385
0
LINE
5
119
100
AcDbEntity
8
0
100
AcDbLine
10
-134.16586751870761
20
74.053470144794304
30
0
11
-130.53004768483083
21
5.5556931047289027
31
0
0
ARC
5
120
100
AcDbEntity
8
0
100
AcDbCircle
10
-130
20
-4.4302494873254616
30
0
40
9.9999999999999982
210
0
220
0
230
1
100
AcDbArc
50
93.038373383423718
51
269.99999999999983
0
LINE
5
121
100
AcDbEntity
8
0
100
AcDbLine
10
-130.00000000000003
20
-14.43024948732546
30
0
11
-130
21
-100
31
0
0
ARC
5
122
100
AcDbEntity
8
0
100
AcDbCircle
10
-130
20
-110
30
0
40
10
210
0
220
-0
230
1
100
AcDbArc
50
90
51
270
0
LINE
5
123
100
AcDbEntity
8
0
100
AcDbLine
10
-130
20
-120
30
0
11
-4.8927083870814592
21
-124.90407568094608
31
0
0
ARC
5
124
100
AcDbEntity
8
0
100
AcDbCircle
10
0.0034014386773317277
20
-5.2589932408864115e-08
30
0
40
125.00000000000001
210
0
220
0
230
1
100
AcDbArc
50
267.75521432581598
51
272.24307214025629
0
LINE
5
125
100
AcDbEntity
8
0
100
AcDbLine
10
4.8957757799284956
20
-124.90422205210874
30
0
11
129.99984532695339
21
-120.00401988087796
31
0
0
CIRCLE
5
126
100
AcDbEntity
8
0
100
AcDbCircle
10
0
20
0
30
0
40
115.5
210
0
220
0
230
1
0
ENDSEC
0
SECTION
2
OBJECTS
0
DICTIONARY
5
C
100
AcDbDictionary
3
ACAD_GROUP
350
D
3
ACAD_MLINESTYLE
350
17
0
DICTIONARY
5
D
100
AcDbDictionary
0
DICTIONARY
5
1A
330
C
100
AcDbDictionary
0
DICTIONARY
5
17
100
AcDbDictionary
0
ENDSEC
0
EOF
