  0
SECTION
  2
HEADER
  9
$ACADVER
  1
AC1014
  9
$HANDSEED
  5
FFFF
  9
$MEASUREMENT
 70
     1
  0
ENDSEC
  0
SECTION
  2
TABLES
  0
TABLE
  2
VPORT
  5
8
330
0
100
AcDbSymbolTable
 70
     4
  0
VPORT
  5
2E
330
8
100
AcDbSymbolTableRecord
100
AcDbViewportTableRecord
  2
*ACTIVE
 70
     0
 10
0.0
 20
0.0
 11
1.0
 21
1.0
 12
210.0
 22
148.5
 13
0.0
 23
0.0
 14
10.0
 24
10.0
 15
10.0
 25
10.0
 16
0.0
 26
0.0
 36
1.0
 17
0.0
 27
0.0
 37
0.0
 40
341.0
 41
1.24
 42
50.0
 43
0.0
 44
0.0
 50
0.0
 51
0.0
 71
     0
 72
   100
 73
     1
 74
     3
 75
     0
 76
     0
 77
     0
 78
     0
  0
ENDTAB
  0
TABLE
  2
LTYPE
  5
5
330
0
100
AcDbSymbolTable
 70
     1
  0
LTYPE
  5
14
330
5
100
AcDbSymbolTableRecord
100
AcDbLinetypeTableRecord
  2
BYBLOCK
 70
     0
  3

 72
    65
 73
     0
 40
0.0
  0
LTYPE
  5
15
330
5
100
AcDbSymbolTableRecord
100
AcDbLinetypeTableRecord
  2
BYLAYER
 70
     0
  3

 72
    65
 73
     0
 40
0.0
  0
LTYPE
  5
16
330
5
100
AcDbSymbolTableRecord
100
AcDbLinetypeTableRecord
  2
CONTINUOUS
 70
     0
  3
Solid line
 72
    65
 73
     0
 40
0.0
  0
ENDTAB
  0
TABLE
  2
LAYER
  5
2
100
AcDbSymbolTable
 70
2
  0
LAYER
  5
50
100
AcDbSymbolTableRecord
100
AcDbLayerTableRecord
  2
0
 70
0
  6
CONTINUOUS
  0
LAYER
  5
51
100
AcDbSymbolTableRecord
100
AcDbLayerTableRecord
  2
Layer_1
 70
0
  6
CONTINUOUS
  0
ENDTAB
  0
TABLE
  2
STYLE
  5
3
330
0
100
AcDbSymbolTable
 70
     1
  0
STYLE
  5
11
330
3
100
AcDbSymbolTableRecord
100
AcDbTextStyleTableRecord
  2
STANDARD
 70
     0
 40
0.0
 41
1.0
 50
0.0
 71
     0
 42
2.5
  3
txt
  4

  0
ENDTAB
  0
TABLE
  2
VIEW
  5
6
330
0
100
AcDbSymbolTable
 70
     0
  0
ENDTAB
  0
TABLE
  2
UCS
  5
7
330
0
100
AcDbSymbolTable
 70
     0
  0
ENDTAB
  0
TABLE
  2
APPID
  5
9
330
0
100
AcDbSymbolTable
 70
     2
  0
APPID
  5
12
330
9
100
AcDbSymbolTableRecord
100
AcDbRegAppTableRecord
  2
ACAD
 70
     0
  0
ENDTAB
  0
TABLE
  2
DIMSTYLE
  5
A
330
0
100
AcDbSymbolTable
 70
     1
  0
DIMSTYLE
105
27
330
A
100
AcDbSymbolTableRecord
100
AcDbDimStyleTableRecord
  2
ISO-25
 70
     0
  3

  4

  5

  6

  7

 40
1.0
 41
2.5
 42
0.625
 43
3.75
 44
1.25
 45
0.0
 46
0.0
 47
0.0
 48
0.0
140
2.5
141
2.5
142
0.0
143
0.03937007874016
144
1.0
145
0.0
146
1.0
147
0.625
 71
     0
 72
     0
 73
     0
 74
     0
 75
     0
 76
     0
 77
     1
 78
     8
170
     0
171
     3
172
     1
173
     0
174
     0
175
     0
176
     0
177
     0
178
     0
270
     2
271
     2
272
     2
273
     2
274
     3
340
11
275
     0
280
     0
281
     0
282
     0
283
     0
284
     8
285
     0
286
     0
287
     3
288
     0
  0
ENDTAB
  0
TABLE
  2
BLOCK_RECORD
  5
1
330
0
100
AcDbSymbolTable
 70
     1
  0
BLOCK_RECORD
  5
1F
330
1
100
AcDbSymbolTableRecord
100
AcDbBlockTableRecord
  2
*MODEL_SPACE
  0
BLOCK_RECORD
  5
1B
330
1
100
AcDbSymbolTableRecord
100
AcDbBlockTableRecord
  2
*PAPER_SPACE
  0
ENDTAB
  0
ENDSEC
  0
SECTION
  2
BLOCKS
  0
BLOCK
  5
20
330
1F
100
AcDbEntity
  8
0
100
AcDbBlockBegin
  2
*MODEL_SPACE
 70
     0
 10
0.0
 20
0.0
 30
0.0
  3
*MODEL_SPACE
  1

  0
ENDBLK
  5
21
330
1F
100
AcDbEntity
  8
0
100
AcDbBlockEnd
  0
BLOCK
  5
1C
330
1B
100
AcDbEntity
 67
     1
  8
0
100
AcDbBlockBegin
  2
*PAPER_SPACE
  1

  0
ENDBLK
  5
1D
330
1B
100
AcDbEntity
 67
     1
  8
0
100
AcDbBlockEnd
  0
ENDSEC
  0
SECTION
  2
ENTITIES
  0
SPLINE
  5
100
100
AcDbEntity
  8
Layer_1
 62
7
100
AcDbSpline
 70
8
 71
3
 72
8
 73
4
 74
0
 40
0
 40
0
 40
0
 40
0
 40
1
 40
1
 40
1
 40
1
 10
-25.740700
 20
36.843227
 30
0.0
 10
-25.740631
 20
37.098494
 30
0.0
 10
-25.876775
 20
37.334399
 30
0.0
 10
-26.097832
 20
37.462055
 30
0.0
  0
SPLINE
  5
101
100
AcDbEntity
  8
Layer_1
 62
7
100
AcDbSpline
 70
8
 71
3
 72
8
 73
4
 74
0
 40
0
 40
0
 40
0
 40
0
 40
1
 40
1
 40
1
 40
1
 10
-26.097832
 20
37.462055
 30
0.0
 10
-26.318889
 20
37.589709
 30
0.0
 10
-26.591263
 20
37.589709
 30
0.0
 10
-26.812322
 20
37.462055
 30
0.0
  0
SPLINE
  5
102
100
AcDbEntity
  8
Layer_1
 62
7
100
AcDbSpline
 70
8
 71
3
 72
8
 73
4
 74
0
 40
0
 40
0
 40
0
 40
0
 40
1
 40
1
 40
1
 40
1
 10
-26.812322
 20
37.462055
 30
0.0
 10
-27.033373
 20
37.334399
 30
0.0
 10
-27.169517
 20
37.098494
 30
0.0
 10
-27.169449
 20
36.843227
 30
0.0
  0
SPLINE
  5
103
100
AcDbEntity
  8
Layer_1
 62
7
100
AcDbSpline
 70
8
 71
3
 72
8
 73
4
 74
0
 40
0
 40
0
 40
0
 40
0
 40
1
 40
1
 40
1
 40
1
 10
-27.169449
 20
36.843227
 30
0.0
 10
-27.169517
 20
36.587957
 30
0.0
 10
-27.033373
 20
36.352051
 30
0.0
 10
-26.812322
 20
36.224395
 30
0.0
  0
SPLINE
  5
104
100
AcDbEntity
  8
Layer_1
 62
7
100
AcDbSpline
 70
8
 71
3
 72
8
 73
4
 74
0
 40
0
 40
0
 40
0
 40
0
 40
1
 40
1
 40
1
 40
1
 10
-26.812322
 20
36.224395
 30
0.0
 10
-26.591263
 20
36.096742
 30
0.0
 10
-26.318889
 20
36.096742
 30
0.0
 10
-26.097832
 20
36.224395
 30
0.0
  0
SPLINE
  5
105
100
AcDbEntity
  8
Layer_1
 62
7
100
AcDbSpline
 70
8
 71
3
 72
8
 73
4
 74
0
 40
0
 40
0
 40
0
 40
0
 40
1
 40
1
 40
1
 40
1
 10
-26.097832
 20
36.224395
 30
0.0
 10
-25.876775
 20
36.352051
 30
0.0
 10
-25.740631
 20
36.587957
 30
0.0
 10
-25.740700
 20
36.843227
 30
0.0
  0
SPLINE
  5
106
100
AcDbEntity
  8
Layer_1
 62
7
100
AcDbSpline
 70
8
 71
3
 72
8
 73
4
 74
0
 40
0
 40
0
 40
0
 40
0
 40
1
 40
1
 40
1
 40
1
 10
-25.767159
 20
36.843227
 30
0.0
 10
-25.767091
 20
37.089040
 30
0.0
 10
-25.898192
 20
37.316212
 30
0.0
 10
-26.111062
 20
37.439137
 30
0.0
  0
SPLINE
  5
107
100
AcDbEntity
  8
Layer_1
 62
7
100
AcDbSpline
 70
8
 71
3
 72
8
 73
4
 74
0
 40
0
 40
0
 40
0
 40
0
 40
1
 40
1
 40
1
 40
1
 10
-26.111062
 20
37.439137
 30
0.0
 10
-26.323932
 20
37.562065
 30
0.0
 10
-26.586220
 20
37.562065
 30
0.0
 10
-26.799090
 20
37.439137
 30
0.0
  0
SPLINE
  5
108
100
AcDbEntity
  8
Layer_1
 62
7
100
AcDbSpline
 70
8
 71
3
 72
8
 73
4
 74
0
 40
0
 40
0
 40
0
 40
0
 40
1
 40
1
 40
1
 40
1
 10
-26.799090
 20
37.439137
 30
0.0
 10
-27.011961
 20
37.316212
 30
0.0
 10
-27.143064
 20
37.089040
 30
0.0
 10
-27.142993
 20
36.843227
 30
0.0
  0
SPLINE
  5
109
100
AcDbEntity
  8
Layer_1
 62
7
100
AcDbSpline
 70
8
 71
3
 72
8
 73
4
 74
0
 40
0
 40
0
 40
0
 40
0
 40
1
 40
1
 40
1
 40
1
 10
-27.142993
 20
36.843227
 30
0.0
 10
-27.143064
 20
36.597410
 30
0.0
 10
-27.011961
 20
36.370239
 30
0.0
 10
-26.799090
 20
36.247313
 30
0.0
  0
SPLINE
  5
10a
100
AcDbEntity
  8
Layer_1
 62
7
100
AcDbSpline
 70
8
 71
3
 72
8
 73
4
 74
0
 40
0
 40
0
 40
0
 40
0
 40
1
 40
1
 40
1
 40
1
 10
-26.799090
 20
36.247313
 30
0.0
 10
-26.586220
 20
36.124385
 30
0.0
 10
-26.323932
 20
36.124385
 30
0.0
 10
-26.111062
 20
36.247313
 30
0.0
  0
SPLINE
  5
10b
100
AcDbEntity
  8
Layer_1
 62
7
100
AcDbSpline
 70
8
 71
3
 72
8
 73
4
 74
0
 40
0
 40
0
 40
0
 40
0
 40
1
 40
1
 40
1
 40
1
 10
-26.111062
 20
36.247313
 30
0.0
 10
-25.898192
 20
36.370239
 30
0.0
 10
-25.767091
 20
36.597410
 30
0.0
 10
-25.767159
 20
36.843227
 30
0.0
  0
SPLINE
  5
10c
100
AcDbEntity
  8
Layer_1
 62
7
100
AcDbSpline
 70
8
 71
3
 72
8
 73
4
 74
0
 40
0
 40
0
 40
0
 40
0
 40
1
 40
1
 40
1
 40
1
 10
61.545340
 20
36.843227
 30
0.0
 10
61.545340
 20
37.088995
 30
0.0
 10
61.414223
 20
37.316095
 30
0.0
 10
61.201382
 20
37.438978
 30
0.0
  0
SPLINE
  5
10d
100
AcDbEntity
  8
Layer_1
 62
7
100
AcDbSpline
 70
8
 71
3
 72
8
 73
4
 74
0
 40
0
 40
0
 40
0
 40
0
 40
1
 40
1
 40
1
 40
1
 10
61.201382
 20
37.438978
 30
0.0
 10
60.988538
 20
37.561864
 30
0.0
 10
60.726307
 20
37.561864
 30
0.0
 10
60.513465
 20
37.438978
 30
0.0
  0
SPLINE
  5
10e
100
AcDbEntity
  8
Layer_1
 62
7
100
AcDbSpline
 70
8
 71
3
 72
8
 73
4
 74
0
 40
0
 40
0
 40
0
 40
0
 40
1
 40
1
 40
1
 40
1
 10
60.513465
 20
37.438978
 30
0.0
 10
60.300621
 20
37.316095
 30
0.0
 10
60.169504
 20
37.088995
 30
0.0
 10
60.169504
 20
36.843227
 30
0.0
  0
SPLINE
  5
10f
100
AcDbEntity
  8
Layer_1
 62
7
100
AcDbSpline
 70
8
 71
3
 72
8
 73
4
 74
0
 40
0
 40
0
 40
0
 40
0
 40
1
 40
1
 40
1
 40
1
 10
60.169504
 20
36.843227
 30
0.0
 10
60.169504
 20
36.597458
 30
0.0
 10
60.300621
 20
36.370355
 30
0.0
 10
60.513465
 20
36.247472
 30
0.0
  0
SPLINE
  5
110
100
AcDbEntity
  8
Layer_1
 62
7
100
AcDbSpline
 70
8
 71
3
 72
8
 73
4
 74
0
 40
0
 40
0
 40
0
 40
0
 40
1
 40
1
 40
1
 40
1
 10
60.513465
 20
36.247472
 30
0.0
 10
60.726307
 20
36.124589
 30
0.0
 10
60.988538
 20
36.124589
 30
0.0
 10
61.201382
 20
36.247472
 30
0.0
  0
SPLINE
  5
111
100
AcDbEntity
  8
Layer_1
 62
7
100
AcDbSpline
 70
8
 71
3
 72
8
 73
4
 74
0
 40
0
 40
0
 40
0
 40
0
 40
1
 40
1
 40
1
 40
1
 10
61.201382
 20
36.247472
 30
0.0
 10
61.414223
 20
36.370355
 30
0.0
 10
61.545340
 20
36.597458
 30
0.0
 10
61.545340
 20
36.843227
 30
0.0
  0
SPLINE
  5
112
100
AcDbEntity
  8
Layer_1
 62
7
100
AcDbSpline
 70
8
 71
3
 72
8
 73
4
 74
0
 40
0
 40
0
 40
0
 40
0
 40
1
 40
1
 40
1
 40
1
 10
59.269924
 20
9.061979
 30
0.0
 10
59.272040
 20
24.093072
 30
0.0
 10
51.254181
 20
37.983258
 30
0.0
 10
38.237216
 20
45.499398
 30
0.0
  0
SPLINE
  5
113
100
AcDbEntity
  8
Layer_1
 62
7
100
AcDbSpline
 70
8
 71
3
 72
8
 73
4
 74
0
 40
0
 40
0
 40
0
 40
0
 40
1
 40
1
 40
1
 40
1
 10
38.237216
 20
45.499398
 30
0.0
 10
25.220252
 20
53.015542
 30
0.0
 10
9.182095
 20
53.015542
 30
0.0
 10
-3.834869
 20
45.499398
 30
0.0
  0
SPLINE
  5
114
100
AcDbEntity
  8
Layer_1
 62
7
100
AcDbSpline
 70
8
 71
3
 72
8
 73
4
 74
0
 40
0
 40
0
 40
0
 40
0
 40
1
 40
1
 40
1
 40
1
 10
-3.834869
 20
45.499398
 30
0.0
 10
-16.851833
 20
37.983258
 30
0.0
 10
-24.869641
 20
24.093072
 30
0.0
 10
-24.867576
 20
9.061979
 30
0.0
  0
SPLINE
  5
115
100
AcDbEntity
  8
Layer_1
 62
7
100
AcDbSpline
 70
8
 71
3
 72
8
 73
4
 74
0
 40
0
 40
0
 40
0
 40
0
 40
1
 40
1
 40
1
 40
1
 10
-24.867576
 20
9.061979
 30
0.0
 10
-24.869639
 20
-5.969111
 30
0.0
 10
-16.851833
 20
-19.859302
 30
0.0
 10
-3.834869
 20
-27.375445
 30
0.0
  0
SPLINE
  5
116
100
AcDbEntity
  8
Layer_1
 62
7
100
AcDbSpline
 70
8
 71
3
 72
8
 73
4
 74
0
 40
0
 40
0
 40
0
 40
0
 40
1
 40
1
 40
1
 40
1
 10
-3.834869
 20
-27.375445
 30
0.0
 10
9.182095
 20
-34.891586
 30
0.0
 10
25.220252
 20
-34.891586
 30
0.0
 10
38.237216
 20
-27.375445
 30
0.0
  0
SPLINE
  5
117
100
AcDbEntity
  8
Layer_1
 62
7
100
AcDbSpline
 70
8
 71
3
 72
8
 73
4
 74
0
 40
0
 40
0
 40
0
 40
0
 40
1
 40
1
 40
1
 40
1
 10
38.237216
 20
-27.375445
 30
0.0
 10
51.254181
 20
-19.859302
 30
0.0
 10
59.271987
 20
-5.969111
 30
0.0
 10
59.269924
 20
9.061979
 30
0.0
  0
LWPOLYLINE
  5
118
100
AcDbEntity
  8
Layer_1
 62
7
100
AcDbPolyline
 90
2
 70
0
 10
-26.455076
 20
37.531143
 30
0.0
 10
-26.455076
 20
37.557602
 30
0.0
  0
LWPOLYLINE
  5
119
100
AcDbEntity
  8
Layer_1
 62
7
100
AcDbPolyline
 90
2
 70
0
 10
57.947007
 20
43.495415
 30
0.0
 10
57.947007
 20
52.453640
 30
0.0
  0
LWPOLYLINE
  5
11a
100
AcDbEntity
  8
Layer_1
 62
7
100
AcDbPolyline
 90
2
 70
0
 10
-25.767159
 20
36.843227
 30
0.0
 10
-25.740700
 20
36.843227
 30
0.0
  0
LWPOLYLINE
  5
11b
100
AcDbEntity
  8
Layer_1
 62
7
100
AcDbPolyline
 90
2
 70
0
 10
-23.544659
 20
43.495415
 30
0.0
 10
-23.544659
 20
52.453640
 30
0.0
  0
LWPOLYLINE
  5
11c
100
AcDbEntity
  8
Layer_1
 62
7
100
AcDbPolyline
 90
2
 70
0
 10
17.201174
 20
52.453640
 30
0.0
 10
-23.544659
 20
52.453640
 30
0.0
  0
LWPOLYLINE
  5
11d
100
AcDbEntity
  8
Layer_1
 62
7
100
AcDbPolyline
 90
2
 70
0
 10
17.201174
 20
52.453640
 30
0.0
 10
57.947007
 20
52.453640
 30
0.0
  0
LWPOLYLINE
  5
11e
100
AcDbEntity
  8
Layer_1
 62
7
100
AcDbPolyline
 90
2
 70
0
 10
-26.941507
 20
37.329652
 30
0.0
 10
-26.960214
 20
37.348358
 30
0.0
  0
SPLINE
  5
11f
100
AcDbEntity
  8
Layer_1
 62
7
100
AcDbSpline
 70
8
 71
3
 72
8
 73
4
 74
0
 40
0
 40
0
 40
0
 40
0
 40
1
 40
1
 40
1
 40
1
 10
-28.325961
 20
38.714111
 30
0.0
 10
-29.082659
 20
37.957408
 30
0.0
 10
-29.309026
 20
36.819388
 30
0.0
 10
-28.899501
 20
35.830708
 30
0.0
  0
SPLINE
  5
120
100
AcDbEntity
  8
Layer_1
 62
7
100
AcDbSpline
 70
8
 71
3
 72
8
 73
4
 74
0
 40
0
 40
0
 40
0
 40
0
 40
1
 40
1
 40
1
 40
1
 10
-28.899501
 20
35.830708
 30
0.0
 10
-28.489981
 20
34.842029
 30
0.0
 10
-27.525218
 20
34.197393
 30
0.0
 10
-26.455076
 20
34.197393
 30
0.0
  0
LWPOLYLINE
  5
121
100
AcDbEntity
  8
Layer_1
 62
7
100
AcDbPolyline
 90
2
 70
0
 10
-25.767159
 20
36.843227
 30
0.0
 10
-25.740700
 20
36.843227
 30
0.0
  0
SPLINE
  5
122
100
AcDbEntity
  8
Layer_1
 62
7
100
AcDbSpline
 70
8
 71
3
 72
8
 73
4
 74
0
 40
0
 40
0
 40
0
 40
0
 40
1
 40
1
 40
1
 40
1
 10
60.857421
 20
34.197393
 30
0.0
 10
61.927563
 20
34.197393
 30
0.0
 10
62.892329
 20
34.842029
 30
0.0
 10
63.301854
 20
35.830708
 30
0.0
  0
SPLINE
  5
123
100
AcDbEntity
  8
Layer_1
 62
7
100
AcDbSpline
 70
8
 71
3
 72
8
 73
4
 74
0
 40
0
 40
0
 40
0
 40
0
 40
1
 40
1
 40
1
 40
1
 10
63.301854
 20
35.830708
 30
0.0
 10
63.711378
 20
36.819390
 30
0.0
 10
63.485014
 20
37.957411
 30
0.0
 10
62.728308
 20
38.714114
 30
0.0
  0
SPLINE
  5
124
100
AcDbEntity
  8
Layer_1
 62
7
100
AcDbSpline
 70
8
 71
3
 72
8
 73
4
 74
0
 40
0
 40
0
 40
0
 40
0
 40
1
 40
1
 40
1
 40
1
 10
61.545340
 20
0.799391
 30
0.0
 10
61.545340
 20
1.045154
 30
0.0
 10
61.414223
 20
1.272257
 30
0.0
 10
61.201382
 20
1.395143
 30
0.0
  0
SPLINE
  5
125
100
AcDbEntity
  8
Layer_1
 62
7
100
AcDbSpline
 70
8
 71
3
 72
8
 73
4
 74
0
 40
0
 40
0
 40
0
 40
0
 40
1
 40
1
 40
1
 40
1
 10
61.201382
 20
1.395143
 30
0.0
 10
60.988538
 20
1.518028
 30
0.0
 10
60.726307
 20
1.518028
 30
0.0
 10
60.513465
 20
1.395143
 30
0.0
  0
SPLINE
  5
126
100
AcDbEntity
  8
Layer_1
 62
7
100
AcDbSpline
 70
8
 71
3
 72
8
 73
4
 74
0
 40
0
 40
0
 40
0
 40
0
 40
1
 40
1
 40
1
 40
1
 10
60.513465
 20
1.395143
 30
0.0
 10
60.300621
 20
1.272257
 30
0.0
 10
60.169504
 20
1.045154
 30
0.0
 10
60.169504
 20
0.799391
 30
0.0
  0
SPLINE
  5
127
100
AcDbEntity
  8
Layer_1
 62
7
100
AcDbSpline
 70
8
 71
3
 72
8
 73
4
 74
0
 40
0
 40
0
 40
0
 40
0
 40
1
 40
1
 40
1
 40
1
 10
60.169504
 20
0.799391
 30
0.0
 10
60.169504
 20
0.553619
 30
0.0
 10
60.300621
 20
0.326520
 30
0.0
 10
60.513465
 20
0.203634
 30
0.0
  0
SPLINE
  5
128
100
AcDbEntity
  8
Layer_1
 62
7
100
AcDbSpline
 70
8
 71
3
 72
8
 73
4
 74
0
 40
0
 40
0
 40
0
 40
0
 40
1
 40
1
 40
1
 40
1
 10
60.513465
 20
0.203634
 30
0.0
 10
60.726307
 20
0.080748
 30
0.0
 10
60.988538
 20
0.080748
 30
0.0
 10
61.201382
 20
0.203634
 30
0.0
  0
SPLINE
  5
129
100
AcDbEntity
  8
Layer_1
 62
7
100
AcDbSpline
 70
8
 71
3
 72
8
 73
4
 74
0
 40
0
 40
0
 40
0
 40
0
 40
1
 40
1
 40
1
 40
1
 10
61.201382
 20
0.203634
 30
0.0
 10
61.414223
 20
0.326520
 30
0.0
 10
61.545340
 20
0.553619
 30
0.0
 10
61.545340
 20
0.799391
 30
0.0
  0
LWPOLYLINE
  5
12a
100
AcDbEntity
  8
Layer_1
 62
7
100
AcDbPolyline
 90
2
 70
0
 10
-28.325961
 20
38.714111
 30
0.0
 10
-23.544659
 20
43.495415
 30
0.0
  0
SPLINE
  5
12b
100
AcDbEntity
  8
Layer_1
 62
7
100
AcDbSpline
 70
8
 71
3
 72
8
 73
4
 74
0
 40
0
 40
0
 40
0
 40
0
 40
1
 40
1
 40
1
 40
1
 10
60.568726
 20
-1.830644
 30
0.0
 10
61.942057
 20
-1.981391
 30
0.0
 10
63.200179
 20
-1.050118
 30
0.0
 10
63.457103
 20
0.307359
 30
0.0
  0
SPLINE
  5
12c
100
AcDbEntity
  8
Layer_1
 62
7
100
AcDbSpline
 70
8
 71
3
 72
8
 73
4
 74
0
 40
0
 40
0
 40
0
 40
0
 40
1
 40
1
 40
1
 40
1
 10
63.457103
 20
0.307359
 30
0.0
 10
63.714024
 20
1.664840
 30
0.0
 10
62.883243
 20
2.991472
 30
0.0
 10
61.549812
 20
3.353017
 30
0.0
  0
SPLINE
  5
12d
100
AcDbEntity
  8
Layer_1
 62
7
100
AcDbSpline
 70
8
 71
3
 72
8
 73
4
 74
0
 40
0
 40
0
 40
0
 40
0
 40
1
 40
1
 40
1
 40
1
 10
-25.767159
 20
0.799391
 30
0.0
 10
-25.767091
 20
1.045205
 30
0.0
 10
-25.898192
 20
1.272376
 30
0.0
 10
-26.111062
 20
1.395304
 30
0.0
  0
SPLINE
  5
12e
100
AcDbEntity
  8
Layer_1
 62
7
100
AcDbSpline
 70
8
 71
3
 72
8
 73
4
 74
0
 40
0
 40
0
 40
0
 40
0
 40
1
 40
1
 40
1
 40
1
 10
-26.111062
 20
1.395304
 30
0.0
 10
-26.323932
 20
1.518229
 30
0.0
 10
-26.586220
 20
1.518229
 30
0.0
 10
-26.799090
 20
1.395304
 30
0.0
  0
SPLINE
  5
12f
100
AcDbEntity
  8
Layer_1
 62
7
100
AcDbSpline
 70
8
 71
3
 72
8
 73
4
 74
0
 40
0
 40
0
 40
0
 40
0
 40
1
 40
1
 40
1
 40
1
 10
-26.799090
 20
1.395304
 30
0.0
 10
-27.011961
 20
1.272376
 30
0.0
 10
-27.143064
 20
1.045205
 30
0.0
 10
-27.142993
 20
0.799391
 30
0.0
  0
SPLINE
  5
130
100
AcDbEntity
  8
Layer_1
 62
7
100
AcDbSpline
 70
8
 71
3
 72
8
 73
4
 74
0
 40
0
 40
0
 40
0
 40
0
 40
1
 40
1
 40
1
 40
1
 10
-27.142993
 20
0.799391
 30
0.0
 10
-27.143064
 20
0.553572
 30
0.0
 10
-27.011961
 20
0.326401
 30
0.0
 10
-26.799090
 20
0.203473
 30
0.0
  0
SPLINE
  5
131
100
AcDbEntity
  8
Layer_1
 62
7
100
AcDbSpline
 70
8
 71
3
 72
8
 73
4
 74
0
 40
0
 40
0
 40
0
 40
0
 40
1
 40
1
 40
1
 40
1
 10
-26.799090
 20
0.203473
 30
0.0
 10
-26.586220
 20
0.080552
 30
0.0
 10
-26.323932
 20
0.080552
 30
0.0
 10
-26.111062
 20
0.203473
 30
0.0
  0
SPLINE
  5
132
100
AcDbEntity
  8
Layer_1
 62
7
100
AcDbSpline
 70
8
 71
3
 72
8
 73
4
 74
0
 40
0
 40
0
 40
0
 40
0
 40
1
 40
1
 40
1
 40
1
 10
-26.111062
 20
0.203473
 30
0.0
 10
-25.898192
 20
0.326401
 30
0.0
 10
-25.767091
 20
0.553572
 30
0.0
 10
-25.767159
 20
0.799391
 30
0.0
  0
SPLINE
  5
133
100
AcDbEntity
  8
Layer_1
 62
7
100
AcDbSpline
 70
8
 71
3
 72
8
 73
4
 74
0
 40
0
 40
0
 40
0
 40
0
 40
1
 40
1
 40
1
 40
1
 10
-27.147467
 20
3.353017
 30
0.0
 10
-28.480896
 20
2.991472
 30
0.0
 10
-29.311679
 20
1.664840
 30
0.0
 10
-29.054756
 20
0.307359
 30
0.0
  0
SPLINE
  5
134
100
AcDbEntity
  8
Layer_1
 62
7
100
AcDbSpline
 70
8
 71
3
 72
8
 73
4
 74
0
 40
0
 40
0
 40
0
 40
0
 40
1
 40
1
 40
1
 40
1
 10
-29.054756
 20
0.307359
 30
0.0
 10
-28.797832
 20
-1.050118
 30
0.0
 10
-27.539709
 20
-1.981391
 30
0.0
 10
-26.166378
 20
-1.830644
 30
0.0
  0
SPLINE
  5
135
100
AcDbEntity
  8
Layer_1
 62
7
100
AcDbSpline
 70
8
 71
3
 72
8
 73
4
 74
0
 40
0
 40
0
 40
0
 40
0
 40
1
 40
1
 40
1
 40
1
 10
61.549812
 20
3.353017
 30
0.0
 10
62.209945
 20
8.481105
 30
0.0
 10
61.975677
 20
13.684829
 30
0.0
 10
60.857421
 20
18.732855
 30
0.0
  0
SPLINE
  5
136
100
AcDbEntity
  8
Layer_1
 62
7
100
AcDbSpline
 70
8
 71
3
 72
8
 73
4
 74
0
 40
0
 40
0
 40
0
 40
0
 40
1
 40
1
 40
1
 40
1
 10
-26.455076
 20
18.732847
 30
0.0
 10
-27.573332
 20
13.684824
 30
0.0
 10
-27.807595
 20
8.481102
 30
0.0
 10
-27.147467
 20
3.353017
 30
0.0
  0
LWPOLYLINE
  5
137
100
AcDbEntity
  8
Layer_1
 62
7
100
AcDbPolyline
 90
2
 70
0
 10
62.728308
 20
38.714114
 30
0.0
 10
57.947007
 20
43.495415
 30
0.0
  0
LWPOLYLINE
  5
138
100
AcDbEntity
  8
Layer_1
 62
7
100
AcDbPolyline
 90
2
 70
0
 10
-25.767159
 20
36.843227
 30
0.0
 10
-25.740700
 20
36.843227
 30
0.0
  0
LWPOLYLINE
  5
139
100
AcDbEntity
  8
Layer_1
 62
7
100
AcDbPolyline
 90
2
 70
0
 10
-26.455076
 20
36.155307
 30
0.0
 10
-26.455076
 20
36.128849
 30
0.0
  0
SPLINE
  5
13a
100
AcDbEntity
  8
Layer_1
 62
7
100
AcDbSpline
 70
8
 71
3
 72
8
 73
4
 74
0
 40
0
 40
0
 40
0
 40
0
 40
1
 40
1
 40
1
 40
1
 10
-27.778557
 20
-21.682125
 30
0.0
 10
-28.597355
 20
-22.154856
 30
0.0
 10
-29.101674
 20
-23.028574
 30
0.0
 10
-29.101471
 20
-23.974039
 30
0.0
  0
SPLINE
  5
13b
100
AcDbEntity
  8
Layer_1
 62
7
100
AcDbSpline
 70
8
 71
3
 72
8
 73
4
 74
0
 40
0
 40
0
 40
0
 40
0
 40
1
 40
1
 40
1
 40
1
 10
-29.100343
 20
-29.265716
 30
0.0
 10
-29.100343
 20
-30.726748
 30
0.0
 10
-27.915547
 20
-35.691217
 30
0.0
 10
-26.454512
 20
-35.691217
 30
0.0
  0
LWPOLYLINE
  5
13c
100
AcDbEntity
  8
Layer_1
 62
7
100
AcDbPolyline
 90
2
 70
0
 10
-26.455076
 20
34.197393
 30
0.0
 10
-26.455076
 20
18.732847
 30
0.0
  0
SPLINE
  5
13d
100
AcDbEntity
  8
Layer_1
 62
7
100
AcDbSpline
 70
8
 71
3
 72
8
 73
4
 74
0
 40
0
 40
0
 40
0
 40
0
 40
1
 40
1
 40
1
 40
1
 10
-27.143482
 20
-23.973626
 30
0.0
 10
-27.143482
 20
-23.593930
 30
0.0
 10
-26.835275
 20
-23.286281
 30
0.0
 10
-26.455570
 20
-23.286281
 30
0.0
  0
SPLINE
  5
13e
100
AcDbEntity
  8
Layer_1
 62
7
100
AcDbSpline
 70
8
 71
3
 72
8
 73
4
 74
0
 40
0
 40
0
 40
0
 40
0
 40
1
 40
1
 40
1
 40
1
 10
-26.455570
 20
-23.286281
 30
0.0
 10
-26.075868
 20
-23.286281
 30
0.0
 10
-25.767969
 20
-23.593930
 30
0.0
 10
-25.767653
 20
-23.973626
 30
0.0
  0
LWPOLYLINE
  5
13f
100
AcDbEntity
  8
Layer_1
 62
7
100
AcDbPolyline
 90
2
 70
0
 10
-29.100343
 20
-29.265716
 30
0.0
 10
-29.101402
 20
-23.974039
 30
0.0
  0
SPLINE
  5
140
100
AcDbEntity
  8
Layer_1
 62
7
100
AcDbSpline
 70
8
 71
3
 72
8
 73
4
 74
0
 40
0
 40
0
 40
0
 40
0
 40
1
 40
1
 40
1
 40
1
 10
-25.766595
 20
-29.265295
 30
0.0
 10
-25.766939
 20
-29.644994
 30
0.0
 10
-26.074809
 20
-29.952640
 30
0.0
 10
-26.454512
 20
-29.952640
 30
0.0
  0
SPLINE
  5
141
100
AcDbEntity
  8
Layer_1
 62
7
100
AcDbSpline
 70
8
 71
3
 72
8
 73
4
 74
0
 40
0
 40
0
 40
0
 40
0
 40
1
 40
1
 40
1
 40
1
 10
-26.454512
 20
-29.952640
 30
0.0
 10
-26.834211
 20
-29.952640
 30
0.0
 10
-27.142112
 20
-29.644994
 30
0.0
 10
-27.142427
 20
-29.265295
 30
0.0
  0
LWPOLYLINE
  5
142
100
AcDbEntity
  8
Layer_1
 62
7
100
AcDbPolyline
 90
2
 70
0
 10
-25.767653
 20
-23.973626
 30
0.0
 10
-25.766595
 20
-29.265295
 30
0.0
  0
LWPOLYLINE
  5
143
100
AcDbEntity
  8
Layer_1
 62
7
100
AcDbPolyline
 90
2
 70
0
 10
-27.142427
 20
-29.265295
 30
0.0
 10
-27.143485
 20
-23.973626
 30
0.0
  0
LWPOLYLINE
  5
144
100
AcDbEntity
  8
Layer_1
 62
7
100
AcDbPolyline
 90
2
 70
0
 10
-27.778557
 20
-21.682125
 30
0.0
 10
-19.289180
 20
-16.780785
 30
0.0
  0
LWPOLYLINE
  5
145
100
AcDbEntity
  8
Layer_1
 62
7
100
AcDbPolyline
 90
2
 70
0
 10
63.503257
 20
-23.973486
 30
0.0
 10
63.503257
 20
-29.265142
 30
0.0
  0
LWPOLYLINE
  5
146
100
AcDbEntity
  8
Layer_1
 62
7
100
AcDbPolyline
 90
2
 70
0
 10
62.180338
 20
-21.682125
 30
0.0
 10
53.691364
 20
-16.781015
 30
0.0
  0
SPLINE
  5
147
100
AcDbEntity
  8
Layer_1
 62
7
100
AcDbSpline
 70
8
 71
3
 72
8
 73
4
 74
0
 40
0
 40
0
 40
0
 40
0
 40
1
 40
1
 40
1
 40
1
 10
-26.166378
 20
-1.830644
 30
0.0
 10
-24.818620
 20
-7.196574
 30
0.0
 10
-22.486738
 20
-12.265784
 30
0.0
 10
-19.289180
 20
-16.780785
 30
0.0
  0
SPLINE
  5
148
100
AcDbEntity
  8
Layer_1
 62
7
100
AcDbSpline
 70
8
 71
3
 72
8
 73
4
 74
0
 40
0
 40
0
 40
0
 40
0
 40
1
 40
1
 40
1
 40
1
 10
53.691364
 20
-16.781015
 30
0.0
 10
56.889007
 20
-12.265954
 30
0.0
 10
59.220944
 20
-7.196667
 30
0.0
 10
60.568726
 20
-1.830644
 30
0.0
  0
SPLINE
  5
149
100
AcDbEntity
  8
Layer_1
 62
7
100
AcDbSpline
 70
8
 71
3
 72
8
 73
4
 74
0
 40
0
 40
0
 40
0
 40
0
 40
1
 40
1
 40
1
 40
1
 10
60.857421
 20
-35.691217
 30
0.0
 10
61.559141
 20
-35.691217
 30
0.0
 10
62.232119
 20
-34.432401
 30
0.0
 10
62.728311
 20
-33.936210
 30
0.0
  0
SPLINE
  5
14a
100
AcDbEntity
  8
Layer_1
 62
7
100
AcDbSpline
 70
8
 71
3
 72
8
 73
4
 74
0
 40
0
 40
0
 40
0
 40
0
 40
1
 40
1
 40
1
 40
1
 10
62.728311
 20
-33.936210
 30
0.0
 10
63.224500
 20
-33.440018
 30
0.0
 10
63.503257
 20
-29.966864
 30
0.0
 10
63.503257
 20
-29.265142
 30
0.0
  0
SPLINE
  5
14b
100
AcDbEntity
  8
Layer_1
 62
7
100
AcDbSpline
 70
8
 71
3
 72
8
 73
4
 74
0
 40
0
 40
0
 40
0
 40
0
 40
1
 40
1
 40
1
 40
1
 10
63.503257
 20
-23.973486
 30
0.0
 10
63.503257
 20
-23.028217
 30
0.0
 10
62.998964
 20
-22.154758
 30
0.0
 10
62.180338
 20
-21.682125
 30
0.0
  0
LWPOLYLINE
  5
14c
100
AcDbEntity
  8
Layer_1
 62
7
100
AcDbPolyline
 90
2
 70
0
 10
60.857421
 20
34.197393
 30
0.0
 10
60.857421
 20
18.732855
 30
0.0
  0
LWPOLYLINE
  5
14d
100
AcDbEntity
  8
Layer_1
 62
7
100
AcDbPolyline
 90
5
 70
0
 10
60.857421
 20
-35.691217
 30
0.0
 10
60.857421
 20
-35.709950
 30
0.0
 10
35.063861
 20
-35.709950
 30
0.0
 10
-0.704434
 20
-35.691217
 30
0.0
 10
-26.454512
 20
-35.691217
 30
0.0
  0
SPLINE
  5
14e
100
AcDbEntity
  8
Layer_1
 62
7
100
AcDbSpline
 70
8
 71
3
 72
8
 73
4
 74
0
 40
0
 40
0
 40
0
 40
0
 40
1
 40
1
 40
1
 40
1
 10
61.545340
 20
-23.973486
 30
0.0
 10
61.545340
 20
-23.727714
 30
0.0
 10
61.414223
 20
-23.500614
 30
0.0
 10
61.201382
 20
-23.377729
 30
0.0
  0
SPLINE
  5
14f
100
AcDbEntity
  8
Layer_1
 62
7
100
AcDbSpline
 70
8
 71
3
 72
8
 73
4
 74
0
 40
0
 40
0
 40
0
 40
0
 40
1
 40
1
 40
1
 40
1
 10
61.201382
 20
-23.377729
 30
0.0
 10
60.988538
 20
-23.254843
 30
0.0
 10
60.726307
 20
-23.254843
 30
0.0
 10
60.513465
 20
-23.377729
 30
0.0
  0
SPLINE
  5
150
100
AcDbEntity
  8
Layer_1
 62
7
100
AcDbSpline
 70
8
 71
3
 72
8
 73
4
 74
0
 40
0
 40
0
 40
0
 40
0
 40
1
 40
1
 40
1
 40
1
 10
60.513465
 20
-23.377729
 30
0.0
 10
60.300621
 20
-23.500614
 30
0.0
 10
60.169504
 20
-23.727714
 30
0.0
 10
60.169504
 20
-23.973486
 30
0.0
  0
SPLINE
  5
151
100
AcDbEntity
  8
Layer_1
 62
7
100
AcDbSpline
 70
8
 71
3
 72
8
 73
4
 74
0
 40
0
 40
0
 40
0
 40
0
 40
1
 40
1
 40
1
 40
1
 10
60.169504
 20
-29.265142
 30
0.0
 10
60.169504
 20
-29.510913
 30
0.0
 10
60.300621
 20
-29.738013
 30
0.0
 10
60.513465
 20
-29.860899
 30
0.0
  0
SPLINE
  5
152
100
AcDbEntity
  8
Layer_1
 62
7
100
AcDbSpline
 70
8
 71
3
 72
8
 73
4
 74
0
 40
0
 40
0
 40
0
 40
0
 40
1
 40
1
 40
1
 40
1
 10
60.513465
 20
-29.860899
 30
0.0
 10
60.726307
 20
-29.983785
 30
0.0
 10
60.988538
 20
-29.983785
 30
0.0
 10
61.201382
 20
-29.860899
 30
0.0
  0
SPLINE
  5
153
100
AcDbEntity
  8
Layer_1
 62
7
100
AcDbSpline
 70
8
 71
3
 72
8
 73
4
 74
0
 40
0
 40
0
 40
0
 40
0
 40
1
 40
1
 40
1
 40
1
 10
61.201382
 20
-29.860899
 30
0.0
 10
61.414223
 20
-29.738013
 30
0.0
 10
61.545340
 20
-29.510913
 30
0.0
 10
61.545340
 20
-29.265142
 30
0.0
  0
LWPOLYLINE
  5
154
100
AcDbEntity
  8
Layer_1
 62
7
100
AcDbPolyline
 90
2
 70
0
 10
61.545340
 20
-23.973486
 30
0.0
 10
61.545340
 20
-29.265142
 30
0.0
  0
LWPOLYLINE
  5
155
100
AcDbEntity
  8
Layer_1
 62
7
100
AcDbPolyline
 90
2
 70
0
 10
60.169504
 20
-29.265142
 30
0.0
 10
60.169504
 20
-23.973486
 30
0.0
  0
ENDSEC
  0
SECTION
  2
OBJECTS
  0
DICTIONARY
  5
C
330
0
100
AcDbDictionary
  3
ACAD_GROUP
350
D
  3
ACAD_MLINESTYLE
350
17
  0
DICTIONARY
  5
D
330
C
100
AcDbDictionary
  0
DICTIONARY
  5
1A
330
C
100
AcDbDictionary
  0
DICTIONARY
  5
17
330
C
100
AcDbDictionary
  3
STANDARD
350
18
  0
DICTIONARY
  5
19
330
C
100
AcDbDictionary
  0
ENDSEC
  0
EOF
