  0
SECTION
  2
HEADER
  9
$ACADVER
  1
AC1014
  9
$HANDSEED
  5
FFFF
  9
$MEASUREMENT
 70
     1
  0
ENDSEC
  0
SECTION
  2
TABLES
  0
TABLE
  2
VPORT
  5
8
330
0
100
AcDbSymbolTable
 70
     4
  0
VPORT
  5
2E
330
8
100
AcDbSymbolTableRecord
100
AcDbViewportTableRecord
  2
*ACTIVE
 70
     0
 10
0.0
 20
0.0
 11
1.0
 21
1.0
 12
210.0
 22
148.5
 13
0.0
 23
0.0
 14
10.0
 24
10.0
 15
10.0
 25
10.0
 16
0.0
 26
0.0
 36
1.0
 17
0.0
 27
0.0
 37
0.0
 40
341.0
 41
1.24
 42
50.0
 43
0.0
 44
0.0
 50
0.0
 51
0.0
 71
     0
 72
   100
 73
     1
 74
     3
 75
     0
 76
     0
 77
     0
 78
     0
  0
ENDTAB
  0
TABLE
  2
LTYPE
  5
5
330
0
100
AcDbSymbolTable
 70
     1
  0
LTYPE
  5
14
330
5
100
AcDbSymbolTableRecord
100
AcDbLinetypeTableRecord
  2
BYBLOCK
 70
     0
  3

 72
    65
 73
     0
 40
0.0
  0
LTYPE
  5
15
330
5
100
AcDbSymbolTableRecord
100
AcDbLinetypeTableRecord
  2
BYLAYER
 70
     0
  3

 72
    65
 73
     0
 40
0.0
  0
LTYPE
  5
16
330
5
100
AcDbSymbolTableRecord
100
AcDbLinetypeTableRecord
  2
CONTINUOUS
 70
     0
  3
Solid line
 72
    65
 73
     0
 40
0.0
  0
ENDTAB
  0
TABLE
  2
LAYER
  5
2
100
AcDbSymbolTable
 70
2
  0
LAYER
  5
50
100
AcDbSymbolTableRecord
100
AcDbLayerTableRecord
  2
0
 70
0
  6
CONTINUOUS
  0
LAYER
  5
51
100
AcDbSymbolTableRecord
100
AcDbLayerTableRecord
  2
Layer_1
 70
0
  6
CONTINUOUS
  0
ENDTAB
  0
TABLE
  2
STYLE
  5
3
330
0
100
AcDbSymbolTable
 70
     1
  0
STYLE
  5
11
330
3
100
AcDbSymbolTableRecord
100
AcDbTextStyleTableRecord
  2
STANDARD
 70
     0
 40
0.0
 41
1.0
 50
0.0
 71
     0
 42
2.5
  3
txt
  4

  0
ENDTAB
  0
TABLE
  2
VIEW
  5
6
330
0
100
AcDbSymbolTable
 70
     0
  0
ENDTAB
  0
TABLE
  2
UCS
  5
7
330
0
100
AcDbSymbolTable
 70
     0
  0
ENDTAB
  0
TABLE
  2
APPID
  5
9
330
0
100
AcDbSymbolTable
 70
     2
  0
APPID
  5
12
330
9
100
AcDbSymbolTableRecord
100
AcDbRegAppTableRecord
  2
ACAD
 70
     0
  0
ENDTAB
  0
TABLE
  2
DIMSTYLE
  5
A
330
0
100
AcDbSymbolTable
 70
     1
  0
DIMSTYLE
105
27
330
A
100
AcDbSymbolTableRecord
100
AcDbDimStyleTableRecord
  2
ISO-25
 70
     0
  3

  4

  5

  6

  7

 40
1.0
 41
2.5
 42
0.625
 43
3.75
 44
1.25
 45
0.0
 46
0.0
 47
0.0
 48
0.0
140
2.5
141
2.5
142
0.0
143
0.03937007874016
144
1.0
145
0.0
146
1.0
147
0.625
 71
     0
 72
     0
 73
     0
 74
     0
 75
     0
 76
     0
 77
     1
 78
     8
170
     0
171
     3
172
     1
173
     0
174
     0
175
     0
176
     0
177
     0
178
     0
270
     2
271
     2
272
     2
273
     2
274
     3
340
11
275
     0
280
     0
281
     0
282
     0
283
     0
284
     8
285
     0
286
     0
287
     3
288
     0
  0
ENDTAB
  0
TABLE
  2
BLOCK_RECORD
  5
1
330
0
100
AcDbSymbolTable
 70
     1
  0
BLOCK_RECORD
  5
1F
330
1
100
AcDbSymbolTableRecord
100
AcDbBlockTableRecord
  2
*MODEL_SPACE
  0
BLOCK_RECORD
  5
1B
330
1
100
AcDbSymbolTableRecord
100
AcDbBlockTableRecord
  2
*PAPER_SPACE
  0
ENDTAB
  0
ENDSEC
  0
SECTION
  2
BLOCKS
  0
BLOCK
  5
20
330
1F
100
AcDbEntity
  8
0
100
AcDbBlockBegin
  2
*MODEL_SPACE
 70
     0
 10
0.0
 20
0.0
 30
0.0
  3
*MODEL_SPACE
  1

  0
ENDBLK
  5
21
330
1F
100
AcDbEntity
  8
0
100
AcDbBlockEnd
  0
BLOCK
  5
1C
330
1B
100
AcDbEntity
 67
     1
  8
0
100
AcDbBlockBegin
  2
*PAPER_SPACE
  1

  0
ENDBLK
  5
1D
330
1B
100
AcDbEntity
 67
     1
  8
0
100
AcDbBlockEnd
  0
ENDSEC
  0
SECTION
  2
ENTITIES
  0
SPLINE
  5
100
100
AcDbEntity
  8
Layer_1
 62
7
100
AcDbSpline
 70
8
 71
3
 72
8
 73
4
 74
0
 40
0
 40
0
 40
0
 40
0
 40
1
 40
1
 40
1
 40
1
 10
-261.350120
 20
150.809640
 30
0.0
 10
-261.349857
 20
151.774432
 30
0.0
 10
-261.864417
 20
152.666049
 30
0.0
 10
-262.699908
 20
153.148521
 30
0.0
  0
SPLINE
  5
101
100
AcDbEntity
  8
Layer_1
 62
7
100
AcDbSpline
 70
8
 71
3
 72
8
 73
4
 74
0
 40
0
 40
0
 40
0
 40
0
 40
1
 40
1
 40
1
 40
1
 10
-262.699908
 20
153.148521
 30
0.0
 10
-263.535399
 20
153.630993
 30
0.0
 10
-264.564841
 20
153.630993
 30
0.0
 10
-265.400332
 20
153.148521
 30
0.0
  0
SPLINE
  5
102
100
AcDbEntity
  8
Layer_1
 62
7
100
AcDbSpline
 70
8
 71
3
 72
8
 73
4
 74
0
 40
0
 40
0
 40
0
 40
0
 40
1
 40
1
 40
1
 40
1
 10
-265.400332
 20
153.148521
 30
0.0
 10
-266.235823
 20
152.666049
 30
0.0
 10
-266.750383
 20
151.774432
 30
0.0
 10
-266.750120
 20
150.809640
 30
0.0
  0
SPLINE
  5
103
100
AcDbEntity
  8
Layer_1
 62
7
100
AcDbSpline
 70
8
 71
3
 72
8
 73
4
 74
0
 40
0
 40
0
 40
0
 40
0
 40
1
 40
1
 40
1
 40
1
 10
-266.750120
 20
150.809640
 30
0.0
 10
-266.750383
 20
149.844848
 30
0.0
 10
-266.235823
 20
148.953231
 30
0.0
 10
-265.400332
 20
148.470759
 30
0.0
  0
SPLINE
  5
104
100
AcDbEntity
  8
Layer_1
 62
7
100
AcDbSpline
 70
8
 71
3
 72
8
 73
4
 74
0
 40
0
 40
0
 40
0
 40
0
 40
1
 40
1
 40
1
 40
1
 10
-265.400332
 20
148.470759
 30
0.0
 10
-264.564841
 20
147.988287
 30
0.0
 10
-263.535399
 20
147.988287
 30
0.0
 10
-262.699908
 20
148.470759
 30
0.0
  0
SPLINE
  5
105
100
AcDbEntity
  8
Layer_1
 62
7
100
AcDbSpline
 70
8
 71
3
 72
8
 73
4
 74
0
 40
0
 40
0
 40
0
 40
0
 40
1
 40
1
 40
1
 40
1
 10
-262.699908
 20
148.470759
 30
0.0
 10
-261.864417
 20
148.953231
 30
0.0
 10
-261.349857
 20
149.844848
 30
0.0
 10
-261.350120
 20
150.809640
 30
0.0
  0
SPLINE
  5
106
100
AcDbEntity
  8
Layer_1
 62
7
100
AcDbSpline
 70
8
 71
3
 72
8
 73
4
 74
0
 40
0
 40
0
 40
0
 40
0
 40
1
 40
1
 40
1
 40
1
 10
-261.450120
 20
150.809640
 30
0.0
 10
-261.449862
 20
151.738702
 30
0.0
 10
-261.945363
 20
152.597302
 30
0.0
 10
-262.749912
 20
153.061907
 30
0.0
  0
SPLINE
  5
107
100
AcDbEntity
  8
Layer_1
 62
7
100
AcDbSpline
 70
8
 71
3
 72
8
 73
4
 74
0
 40
0
 40
0
 40
0
 40
0
 40
1
 40
1
 40
1
 40
1
 10
-262.749912
 20
153.061907
 30
0.0
 10
-263.554460
 20
153.526513
 30
0.0
 10
-264.545780
 20
153.526513
 30
0.0
 10
-265.350328
 20
153.061907
 30
0.0
  0
SPLINE
  5
108
100
AcDbEntity
  8
Layer_1
 62
7
100
AcDbSpline
 70
8
 71
3
 72
8
 73
4
 74
0
 40
0
 40
0
 40
0
 40
0
 40
1
 40
1
 40
1
 40
1
 10
-265.350328
 20
153.061907
 30
0.0
 10
-266.154877
 20
152.597302
 30
0.0
 10
-266.650378
 20
151.738702
 30
0.0
 10
-266.650120
 20
150.809640
 30
0.0
  0
SPLINE
  5
109
100
AcDbEntity
  8
Layer_1
 62
7
100
AcDbSpline
 70
8
 71
3
 72
8
 73
4
 74
0
 40
0
 40
0
 40
0
 40
0
 40
1
 40
1
 40
1
 40
1
 10
-266.650120
 20
150.809640
 30
0.0
 10
-266.650378
 20
149.880578
 30
0.0
 10
-266.154877
 20
149.021978
 30
0.0
 10
-265.350328
 20
148.557373
 30
0.0
  0
SPLINE
  5
10a
100
AcDbEntity
  8
Layer_1
 62
7
100
AcDbSpline
 70
8
 71
3
 72
8
 73
4
 74
0
 40
0
 40
0
 40
0
 40
0
 40
1
 40
1
 40
1
 40
1
 10
-265.350328
 20
148.557373
 30
0.0
 10
-264.545780
 20
148.092767
 30
0.0
 10
-263.554460
 20
148.092767
 30
0.0
 10
-262.749912
 20
148.557373
 30
0.0
  0
SPLINE
  5
10b
100
AcDbEntity
  8
Layer_1
 62
7
100
AcDbSpline
 70
8
 71
3
 72
8
 73
4
 74
0
 40
0
 40
0
 40
0
 40
0
 40
1
 40
1
 40
1
 40
1
 10
-262.749912
 20
148.557373
 30
0.0
 10
-261.945363
 20
149.021978
 30
0.0
 10
-261.449862
 20
149.880578
 30
0.0
 10
-261.450120
 20
150.809640
 30
0.0
  0
LWPOLYLINE
  5
10c
100
AcDbEntity
  8
Layer_1
 62
7
100
AcDbPolyline
 90
1
 70
1
 10
-261.350120
 20
150.809640
 30
0.0
  0
SPLINE
  5
10d
100
AcDbEntity
  8
Layer_1
 62
7
100
AcDbSpline
 70
8
 71
3
 72
8
 73
4
 74
0
 40
0
 40
0
 40
0
 40
0
 40
1
 40
1
 40
1
 40
1
 10
68.549878
 20
150.809640
 30
0.0
 10
68.549878
 20
151.738531
 30
0.0
 10
68.054321
 20
152.596861
 30
0.0
 10
67.249878
 20
153.061307
 30
0.0
  0
SPLINE
  5
10e
100
AcDbEntity
  8
Layer_1
 62
7
100
AcDbSpline
 70
8
 71
3
 72
8
 73
4
 74
0
 40
0
 40
0
 40
0
 40
0
 40
1
 40
1
 40
1
 40
1
 10
67.249878
 20
153.061307
 30
0.0
 10
66.445434
 20
153.525752
 30
0.0
 10
65.454320
 20
153.525752
 30
0.0
 10
64.649877
 20
153.061307
 30
0.0
  0
SPLINE
  5
10f
100
AcDbEntity
  8
Layer_1
 62
7
100
AcDbSpline
 70
8
 71
3
 72
8
 73
4
 74
0
 40
0
 40
0
 40
0
 40
0
 40
1
 40
1
 40
1
 40
1
 10
64.649877
 20
153.061307
 30
0.0
 10
63.845433
 20
152.596861
 30
0.0
 10
63.349876
 20
151.738531
 30
0.0
 10
63.349876
 20
150.809640
 30
0.0
  0
SPLINE
  5
110
100
AcDbEntity
  8
Layer_1
 62
7
100
AcDbSpline
 70
8
 71
3
 72
8
 73
4
 74
0
 40
0
 40
0
 40
0
 40
0
 40
1
 40
1
 40
1
 40
1
 10
63.349876
 20
150.809640
 30
0.0
 10
63.349876
 20
149.880749
 30
0.0
 10
63.845433
 20
149.022419
 30
0.0
 10
64.649877
 20
148.557973
 30
0.0
  0
SPLINE
  5
111
100
AcDbEntity
  8
Layer_1
 62
7
100
AcDbSpline
 70
8
 71
3
 72
8
 73
4
 74
0
 40
0
 40
0
 40
0
 40
0
 40
1
 40
1
 40
1
 40
1
 10
64.649877
 20
148.557973
 30
0.0
 10
65.454320
 20
148.093528
 30
0.0
 10
66.445434
 20
148.093528
 30
0.0
 10
67.249878
 20
148.557973
 30
0.0
  0
SPLINE
  5
112
100
AcDbEntity
  8
Layer_1
 62
7
100
AcDbSpline
 70
8
 71
3
 72
8
 73
4
 74
0
 40
0
 40
0
 40
0
 40
0
 40
1
 40
1
 40
1
 40
1
 10
67.249878
 20
148.557973
 30
0.0
 10
68.054321
 20
149.022419
 30
0.0
 10
68.549878
 20
149.880749
 30
0.0
 10
68.549878
 20
150.809640
 30
0.0
  0
LWPOLYLINE
  5
113
100
AcDbEntity
  8
Layer_1
 62
7
100
AcDbPolyline
 90
1
 70
1
 10
-261.450120
 20
150.809640
 30
0.0
  0
LWPOLYLINE
  5
114
100
AcDbEntity
  8
Layer_1
 62
7
100
AcDbPolyline
 90
1
 70
1
 10
68.549878
 20
150.809640
 30
0.0
  0
SPLINE
  5
115
100
AcDbEntity
  8
Layer_1
 62
7
100
AcDbSpline
 70
8
 71
3
 72
8
 73
4
 74
0
 40
0
 40
0
 40
0
 40
0
 40
1
 40
1
 40
1
 40
1
 10
59.949877
 20
45.809650
 30
0.0
 10
59.957681
 20
102.620080
 30
0.0
 10
29.654159
 20
155.118421
 30
0.0
 10
-19.543817
 20
183.525889
 30
0.0
  0
SPLINE
  5
116
100
AcDbEntity
  8
Layer_1
 62
7
100
AcDbSpline
 70
8
 71
3
 72
8
 73
4
 74
0
 40
0
 40
0
 40
0
 40
0
 40
1
 40
1
 40
1
 40
1
 10
-19.543817
 20
183.525889
 30
0.0
 10
-68.741792
 20
211.933357
 30
0.0
 10
-129.358451
 20
211.933357
 30
0.0
 10
-178.556426
 20
183.525889
 30
0.0
  0
SPLINE
  5
117
100
AcDbEntity
  8
Layer_1
 62
7
100
AcDbSpline
 70
8
 71
3
 72
8
 73
4
 74
0
 40
0
 40
0
 40
0
 40
0
 40
1
 40
1
 40
1
 40
1
 10
-178.556426
 20
183.525889
 30
0.0
 10
-227.754402
 20
155.118421
 30
0.0
 10
-258.057924
 20
102.620080
 30
0.0
 10
-258.050120
 20
45.809650
 30
0.0
  0
SPLINE
  5
118
100
AcDbEntity
  8
Layer_1
 62
7
100
AcDbSpline
 70
8
 71
3
 72
8
 73
4
 74
0
 40
0
 40
0
 40
0
 40
0
 40
1
 40
1
 40
1
 40
1
 10
-258.050120
 20
45.809650
 30
0.0
 10
-258.057924
 20
-11.000780
 30
0.0
 10
-227.754402
 20
-63.499121
 30
0.0
 10
-178.556426
 20
-91.906589
 30
0.0
  0
SPLINE
  5
119
100
AcDbEntity
  8
Layer_1
 62
7
100
AcDbSpline
 70
8
 71
3
 72
8
 73
4
 74
0
 40
0
 40
0
 40
0
 40
0
 40
1
 40
1
 40
1
 40
1
 10
-178.556426
 20
-91.906589
 30
0.0
 10
-129.358451
 20
-120.314057
 30
0.0
 10
-68.741792
 20
-120.314057
 30
0.0
 10
-19.543817
 20
-91.906589
 30
0.0
  0
SPLINE
  5
11a
100
AcDbEntity
  8
Layer_1
 62
7
100
AcDbSpline
 70
8
 71
3
 72
8
 73
4
 74
0
 40
0
 40
0
 40
0
 40
0
 40
1
 40
1
 40
1
 40
1
 10
-19.543817
 20
-91.906589
 30
0.0
 10
29.654159
 20
-63.499121
 30
0.0
 10
59.957681
 20
-11.000780
 30
0.0
 10
59.949877
 20
45.809650
 30
0.0
  0
LWPOLYLINE
  5
11b
100
AcDbEntity
  8
Layer_1
 62
7
100
AcDbPolyline
 90
2
 70
0
 10
-264.050120
 20
153.409640
 30
0.0
 10
-264.050120
 20
153.509640
 30
0.0
  0
LWPOLYLINE
  5
11c
100
AcDbEntity
  8
Layer_1
 62
7
100
AcDbPolyline
 90
1
 70
1
 10
59.949877
 20
45.809650
 30
0.0
  0
LWPOLYLINE
  5
11d
100
AcDbEntity
  8
Layer_1
 62
7
100
AcDbPolyline
 90
2
 70
0
 10
54.949882
 20
175.951770
 30
0.0
 10
54.949882
 20
209.809634
 30
0.0
  0
LWPOLYLINE
  5
11e
100
AcDbEntity
  8
Layer_1
 62
7
100
AcDbPolyline
 90
2
 70
0
 10
-261.450120
 20
150.809640
 30
0.0
 10
-261.350120
 20
150.809640
 30
0.0
  0
LWPOLYLINE
  5
11f
100
AcDbEntity
  8
Layer_1
 62
7
100
AcDbPolyline
 90
2
 70
0
 10
-253.050120
 20
175.951770
 30
0.0
 10
-253.050120
 20
209.809634
 30
0.0
  0
LWPOLYLINE
  5
120
100
AcDbEntity
  8
Layer_1
 62
7
100
AcDbPolyline
 90
2
 70
0
 10
-99.050120
 20
209.809634
 30
0.0
 10
-253.050120
 20
209.809634
 30
0.0
  0
LWPOLYLINE
  5
121
100
AcDbEntity
  8
Layer_1
 62
7
100
AcDbPolyline
 90
2
 70
0
 10
-99.050120
 20
209.809634
 30
0.0
 10
54.949882
 20
209.809634
 30
0.0
  0
LWPOLYLINE
  5
122
100
AcDbEntity
  8
Layer_1
 62
7
100
AcDbPolyline
 90
2
 70
0
 10
-265.888600
 20
152.648110
 30
0.0
 10
-265.959300
 20
152.718810
 30
0.0
  0
LWPOLYLINE
  5
123
100
AcDbEntity
  8
Layer_1
 62
7
100
AcDbPolyline
 90
2
 70
0
 10
-261.450120
 20
150.809640
 30
0.0
 10
-261.350120
 20
150.809640
 30
0.0
  0
SPLINE
  5
124
100
AcDbEntity
  8
Layer_1
 62
7
100
AcDbSpline
 70
8
 71
3
 72
8
 73
4
 74
0
 40
0
 40
0
 40
0
 40
0
 40
1
 40
1
 40
1
 40
1
 10
-271.121180
 20
157.880700
 30
0.0
 10
-273.981155
 20
155.020721
 30
0.0
 10
-274.836710
 20
150.719547
 30
0.0
 10
-273.288903
 20
146.982807
 30
0.0
  0
SPLINE
  5
125
100
AcDbEntity
  8
Layer_1
 62
7
100
AcDbSpline
 70
8
 71
3
 72
8
 73
4
 74
0
 40
0
 40
0
 40
0
 40
0
 40
1
 40
1
 40
1
 40
1
 10
-273.288903
 20
146.982807
 30
0.0
 10
-271.741095
 20
143.246067
 30
0.0
 10
-268.094738
 20
140.809645
 30
0.0
 10
-264.050120
 20
140.809640
 30
0.0
  0
LWPOLYLINE
  5
126
100
AcDbEntity
  8
Layer_1
 62
7
100
AcDbPolyline
 90
2
 70
0
 10
-271.121180
 20
157.880700
 30
0.0
 10
-253.050120
 20
175.951770
 30
0.0
  0
SPLINE
  5
127
100
AcDbEntity
  8
Layer_1
 62
7
100
AcDbSpline
 70
8
 71
3
 72
8
 73
4
 74
0
 40
0
 40
0
 40
0
 40
0
 40
1
 40
1
 40
1
 40
1
 10
65.949876
 20
140.809640
 30
0.0
 10
69.994500
 20
140.809639
 30
0.0
 10
73.640864
 20
143.246061
 30
0.0
 10
75.188675
 20
146.982806
 30
0.0
  0
SPLINE
  5
128
100
AcDbEntity
  8
Layer_1
 62
7
100
AcDbSpline
 70
8
 71
3
 72
8
 73
4
 74
0
 40
0
 40
0
 40
0
 40
0
 40
1
 40
1
 40
1
 40
1
 10
75.188675
 20
146.982806
 30
0.0
 10
76.736485
 20
150.719551
 30
0.0
 10
75.880927
 20
155.020730
 30
0.0
 10
73.020945
 20
157.880710
 30
0.0
  0
SPLINE
  5
129
100
AcDbEntity
  8
Layer_1
 62
7
100
AcDbSpline
 70
8
 71
3
 72
8
 73
4
 74
0
 40
0
 40
0
 40
0
 40
0
 40
1
 40
1
 40
1
 40
1
 10
68.549878
 20
14.580960
 30
0.0
 10
68.549878
 20
15.509851
 30
0.0
 10
68.054321
 20
16.368181
 30
0.0
 10
67.249878
 20
16.832627
 30
0.0
  0
SPLINE
  5
12a
100
AcDbEntity
  8
Layer_1
 62
7
100
AcDbSpline
 70
8
 71
3
 72
8
 73
4
 74
0
 40
0
 40
0
 40
0
 40
0
 40
1
 40
1
 40
1
 40
1
 10
67.249878
 20
16.832627
 30
0.0
 10
66.445434
 20
17.297072
 30
0.0
 10
65.454320
 20
17.297072
 30
0.0
 10
64.649877
 20
16.832627
 30
0.0
  0
SPLINE
  5
12b
100
AcDbEntity
  8
Layer_1
 62
7
100
AcDbSpline
 70
8
 71
3
 72
8
 73
4
 74
0
 40
0
 40
0
 40
0
 40
0
 40
1
 40
1
 40
1
 40
1
 10
64.649877
 20
16.832627
 30
0.0
 10
63.845433
 20
16.368181
 30
0.0
 10
63.349876
 20
15.509851
 30
0.0
 10
63.349876
 20
14.580960
 30
0.0
  0
SPLINE
  5
12c
100
AcDbEntity
  8
Layer_1
 62
7
100
AcDbSpline
 70
8
 71
3
 72
8
 73
4
 74
0
 40
0
 40
0
 40
0
 40
0
 40
1
 40
1
 40
1
 40
1
 10
63.349876
 20
14.580960
 30
0.0
 10
63.349876
 20
13.652069
 30
0.0
 10
63.845433
 20
12.793739
 30
0.0
 10
64.649877
 20
12.329293
 30
0.0
  0
SPLINE
  5
12d
100
AcDbEntity
  8
Layer_1
 62
7
100
AcDbSpline
 70
8
 71
3
 72
8
 73
4
 74
0
 40
0
 40
0
 40
0
 40
0
 40
1
 40
1
 40
1
 40
1
 10
64.649877
 20
12.329293
 30
0.0
 10
65.454320
 20
11.864848
 30
0.0
 10
66.445434
 20
11.864848
 30
0.0
 10
67.249878
 20
12.329293
 30
0.0
  0
SPLINE
  5
12e
100
AcDbEntity
  8
Layer_1
 62
7
100
AcDbSpline
 70
8
 71
3
 72
8
 73
4
 74
0
 40
0
 40
0
 40
0
 40
0
 40
1
 40
1
 40
1
 40
1
 10
67.249878
 20
12.329293
 30
0.0
 10
68.054321
 20
12.793739
 30
0.0
 10
68.549878
 20
13.652069
 30
0.0
 10
68.549878
 20
14.580960
 30
0.0
  0
LWPOLYLINE
  5
12f
100
AcDbEntity
  8
Layer_1
 62
7
100
AcDbPolyline
 90
2
 70
0
 10
73.020945
 20
157.880710
 30
0.0
 10
54.949882
 20
175.951770
 30
0.0
  0
SPLINE
  5
130
100
AcDbEntity
  8
Layer_1
 62
7
100
AcDbSpline
 70
8
 71
3
 72
8
 73
4
 74
0
 40
0
 40
0
 40
0
 40
0
 40
1
 40
1
 40
1
 40
1
 10
64.858742
 20
4.640670
 30
0.0
 10
70.049275
 20
4.070916
 30
0.0
 10
74.804388
 20
7.590704
 30
0.0
 10
75.775435
 20
12.721330
 30
0.0
  0
SPLINE
  5
131
100
AcDbEntity
  8
Layer_1
 62
7
100
AcDbSpline
 70
8
 71
3
 72
8
 73
4
 74
0
 40
0
 40
0
 40
0
 40
0
 40
1
 40
1
 40
1
 40
1
 10
75.775435
 20
12.721330
 30
0.0
 10
76.746482
 20
17.851956
 30
0.0
 10
73.606524
 20
22.866003
 30
0.0
 10
68.566782
 20
24.232480
 30
0.0
  0
SPLINE
  5
132
100
AcDbEntity
  8
Layer_1
 62
7
100
AcDbSpline
 70
8
 71
3
 72
8
 73
4
 74
0
 40
0
 40
0
 40
0
 40
0
 40
1
 40
1
 40
1
 40
1
 10
-261.450120
 20
14.580960
 30
0.0
 10
-261.449862
 20
15.510022
 30
0.0
 10
-261.945363
 20
16.368622
 30
0.0
 10
-262.749912
 20
16.833227
 30
0.0
  0
SPLINE
  5
133
100
AcDbEntity
  8
Layer_1
 62
7
100
AcDbSpline
 70
8
 71
3
 72
8
 73
4
 74
0
 40
0
 40
0
 40
0
 40
0
 40
1
 40
1
 40
1
 40
1
 10
-262.749912
 20
16.833227
 30
0.0
 10
-263.554460
 20
17.297833
 30
0.0
 10
-264.545780
 20
17.297833
 30
0.0
 10
-265.350328
 20
16.833227
 30
0.0
  0
SPLINE
  5
134
100
AcDbEntity
  8
Layer_1
 62
7
100
AcDbSpline
 70
8
 71
3
 72
8
 73
4
 74
0
 40
0
 40
0
 40
0
 40
0
 40
1
 40
1
 40
1
 40
1
 10
-265.350328
 20
16.833227
 30
0.0
 10
-266.154877
 20
16.368622
 30
0.0
 10
-266.650378
 20
15.510022
 30
0.0
 10
-266.650120
 20
14.580960
 30
0.0
  0
SPLINE
  5
135
100
AcDbEntity
  8
Layer_1
 62
7
100
AcDbSpline
 70
8
 71
3
 72
8
 73
4
 74
0
 40
0
 40
0
 40
0
 40
0
 40
1
 40
1
 40
1
 40
1
 10
-266.650120
 20
14.580960
 30
0.0
 10
-266.650378
 20
13.651898
 30
0.0
 10
-266.154877
 20
12.793298
 30
0.0
 10
-265.350328
 20
12.328693
 30
0.0
  0
SPLINE
  5
136
100
AcDbEntity
  8
Layer_1
 62
7
100
AcDbSpline
 70
8
 71
3
 72
8
 73
4
 74
0
 40
0
 40
0
 40
0
 40
0
 40
1
 40
1
 40
1
 40
1
 10
-265.350328
 20
12.328693
 30
0.0
 10
-264.545780
 20
11.864087
 30
0.0
 10
-263.554460
 20
11.864087
 30
0.0
 10
-262.749912
 20
12.328693
 30
0.0
  0
SPLINE
  5
137
100
AcDbEntity
  8
Layer_1
 62
7
100
AcDbSpline
 70
8
 71
3
 72
8
 73
4
 74
0
 40
0
 40
0
 40
0
 40
0
 40
1
 40
1
 40
1
 40
1
 10
-262.749912
 20
12.328693
 30
0.0
 10
-261.945363
 20
12.793298
 30
0.0
 10
-261.449862
 20
13.651898
 30
0.0
 10
-261.450120
 20
14.580960
 30
0.0
  0
LWPOLYLINE
  5
138
100
AcDbEntity
  8
Layer_1
 62
7
100
AcDbPolyline
 90
1
 70
1
 10
68.549878
 20
14.580960
 30
0.0
  0
SPLINE
  5
139
100
AcDbEntity
  8
Layer_1
 62
7
100
AcDbSpline
 70
8
 71
3
 72
8
 73
4
 74
0
 40
0
 40
0
 40
0
 40
0
 40
1
 40
1
 40
1
 40
1
 10
-266.667020
 20
24.232480
 30
0.0
 10
-271.706762
 20
22.866003
 30
0.0
 10
-274.846720
 20
17.851956
 30
0.0
 10
-273.875673
 20
12.721330
 30
0.0
  0
SPLINE
  5
13a
100
AcDbEntity
  8
Layer_1
 62
7
100
AcDbSpline
 70
8
 71
3
 72
8
 73
4
 74
0
 40
0
 40
0
 40
0
 40
0
 40
1
 40
1
 40
1
 40
1
 10
-273.875673
 20
12.721330
 30
0.0
 10
-272.904626
 20
7.590704
 30
0.0
 10
-268.149513
 20
4.070916
 30
0.0
 10
-262.958980
 20
4.640670
 30
0.0
  0
SPLINE
  5
13b
100
AcDbEntity
  8
Layer_1
 62
7
100
AcDbSpline
 70
8
 71
3
 72
8
 73
4
 74
0
 40
0
 40
0
 40
0
 40
0
 40
1
 40
1
 40
1
 40
1
 10
68.566782
 20
24.232480
 30
0.0
 10
71.061775
 20
43.614221
 30
0.0
 10
70.176352
 20
63.281845
 30
0.0
 10
65.949876
 20
82.360990
 30
0.0
  0
SPLINE
  5
13c
100
AcDbEntity
  8
Layer_1
 62
7
100
AcDbSpline
 70
8
 71
3
 72
8
 73
4
 74
0
 40
0
 40
0
 40
0
 40
0
 40
1
 40
1
 40
1
 40
1
 10
-264.050120
 20
82.360960
 30
0.0
 10
-268.276590
 20
63.281824
 30
0.0
 10
-269.162011
 20
43.614211
 30
0.0
 10
-266.667020
 20
24.232480
 30
0.0
  0
LWPOLYLINE
  5
13d
100
AcDbEntity
  8
Layer_1
 62
7
100
AcDbPolyline
 90
1
 70
1
 10
-261.450120
 20
14.580960
 30
0.0
  0
LWPOLYLINE
  5
13e
100
AcDbEntity
  8
Layer_1
 62
7
100
AcDbPolyline
 90
2
 70
0
 10
-261.450120
 20
150.809640
 30
0.0
 10
-261.350120
 20
150.809640
 30
0.0
  0
LWPOLYLINE
  5
13f
100
AcDbEntity
  8
Layer_1
 62
7
100
AcDbPolyline
 90
2
 70
0
 10
-264.050120
 20
148.209640
 30
0.0
 10
-264.050120
 20
148.109640
 30
0.0
  0
LWPOLYLINE
  5
140
100
AcDbEntity
  8
Layer_1
 62
7
100
AcDbPolyline
 90
2
 70
0
 10
-264.050120
 20
140.809640
 30
0.0
 10
-264.050120
 20
82.360960
 30
0.0
  0
SPLINE
  5
141
100
AcDbEntity
  8
Layer_1
 62
7
100
AcDbSpline
 70
8
 71
3
 72
8
 73
4
 74
0
 40
0
 40
0
 40
0
 40
0
 40
1
 40
1
 40
1
 40
1
 10
-269.052250
 20
-70.388530
 30
0.0
 10
-272.146916
 20
-72.175236
 30
0.0
 10
-274.053006
 20
-75.477488
 30
0.0
 10
-274.052250
 20
-79.050900
 30
0.0
  0
SPLINE
  5
142
100
AcDbEntity
  8
Layer_1
 62
7
100
AcDbSpline
 70
8
 71
3
 72
8
 73
4
 74
0
 40
0
 40
0
 40
0
 40
0
 40
1
 40
1
 40
1
 40
1
 10
-274.047990
 20
-99.050920
 30
0.0
 10
-274.046808
 20
-104.572932
 30
0.0
 10
-269.570002
 20
-109.048780
 30
0.0
 10
-264.047990
 20
-109.048780
 30
0.0
  0
LWPOLYLINE
  5
143
100
AcDbEntity
  8
Layer_1
 62
7
100
AcDbPolyline
 90
2
 70
0
 10
-274.047990
 20
-99.050920
 30
0.0
 10
-274.051990
 20
-79.050900
 30
0.0
  0
SPLINE
  5
144
100
AcDbEntity
  8
Layer_1
 62
7
100
AcDbSpline
 70
8
 71
3
 72
8
 73
4
 74
0
 40
0
 40
0
 40
0
 40
0
 40
1
 40
1
 40
1
 40
1
 10
-266.651990
 20
-79.049340
 30
0.0
 10
-266.650796
 20
-77.614244
 30
0.0
 10
-265.487086
 20
-76.451502
 30
0.0
 10
-264.051990
 20
-76.451502
 30
0.0
  0
SPLINE
  5
145
100
AcDbEntity
  8
Layer_1
 62
7
100
AcDbSpline
 70
8
 71
3
 72
8
 73
4
 74
0
 40
0
 40
0
 40
0
 40
0
 40
1
 40
1
 40
1
 40
1
 10
-264.051990
 20
-76.451502
 30
0.0
 10
-262.616894
 20
-76.451502
 30
0.0
 10
-261.453184
 20
-77.614244
 30
0.0
 10
-261.451990
 20
-79.049340
 30
0.0
  0
SPLINE
  5
146
100
AcDbEntity
  8
Layer_1
 62
7
100
AcDbSpline
 70
8
 71
3
 72
8
 73
4
 74
0
 40
0
 40
0
 40
0
 40
0
 40
1
 40
1
 40
1
 40
1
 10
-261.451990
 20
-79.049340
 30
0.0
 10
-261.451990
 20
-79.049340
 30
0.0
 10
-261.447990
 20
-99.049330
 30
0.0
 10
-261.447990
 20
-99.049330
 30
0.0
  0
SPLINE
  5
147
100
AcDbEntity
  8
Layer_1
 62
7
100
AcDbSpline
 70
8
 71
3
 72
8
 73
4
 74
0
 40
0
 40
0
 40
0
 40
0
 40
1
 40
1
 40
1
 40
1
 10
-261.447990
 20
-99.049330
 30
0.0
 10
-261.449184
 20
-100.484426
 30
0.0
 10
-262.612894
 20
-101.647168
 30
0.0
 10
-264.047990
 20
-101.647168
 30
0.0
  0
SPLINE
  5
148
100
AcDbEntity
  8
Layer_1
 62
7
100
AcDbSpline
 70
8
 71
3
 72
8
 73
4
 74
0
 40
0
 40
0
 40
0
 40
0
 40
1
 40
1
 40
1
 40
1
 10
-264.047990
 20
-101.647168
 30
0.0
 10
-265.483086
 20
-101.647168
 30
0.0
 10
-266.646796
 20
-100.484426
 30
0.0
 10
-266.647990
 20
-99.049330
 30
0.0
  0
LWPOLYLINE
  5
149
100
AcDbEntity
  8
Layer_1
 62
7
100
AcDbPolyline
 90
2
 70
0
 10
-266.647990
 20
-99.049330
 30
0.0
 10
-266.651990
 20
-79.049340
 30
0.0
  0
LWPOLYLINE
  5
14a
100
AcDbEntity
  8
Layer_1
 62
7
100
AcDbPolyline
 90
1
 70
1
 10
-266.647990
 20
-99.049330
 30
0.0
  0
LWPOLYLINE
  5
14b
100
AcDbEntity
  8
Layer_1
 62
7
100
AcDbPolyline
 90
2
 70
0
 10
-264.047990
 20
-109.048780
 30
0.0
 10
-166.724860
 20
-109.048780
 30
0.0
  0
LWPOLYLINE
  5
14c
100
AcDbEntity
  8
Layer_1
 62
7
100
AcDbPolyline
 90
2
 70
0
 10
-269.052250
 20
-70.388530
 30
0.0
 10
-236.966420
 20
-51.863780
 30
0.0
  0
LWPOLYLINE
  5
14d
100
AcDbEntity
  8
Layer_1
 62
7
100
AcDbPolyline
 90
2
 70
0
 10
75.949877
 20
-79.048790
 30
0.0
 10
75.949877
 20
-99.048770
 30
0.0
  0
LWPOLYLINE
  5
14e
100
AcDbEntity
  8
Layer_1
 62
7
100
AcDbPolyline
 90
2
 70
0
 10
70.949876
 20
-70.388530
 30
0.0
 10
38.865560
 20
-51.864650
 30
0.0
  0
LWPOLYLINE
  5
14f
100
AcDbEntity
  8
Layer_1
 62
7
100
AcDbPolyline
 90
2
 70
0
 10
65.949876
 20
140.809640
 30
0.0
 10
65.949876
 20
82.360990
 30
0.0
  0
SPLINE
  5
150
100
AcDbEntity
  8
Layer_1
 62
7
100
AcDbSpline
 70
8
 71
3
 72
8
 73
4
 74
0
 40
0
 40
0
 40
0
 40
0
 40
1
 40
1
 40
1
 40
1
 10
-262.958980
 20
4.640670
 30
0.0
 10
-257.865092
 20
-15.639997
 30
0.0
 10
-249.051681
 20
-34.799208
 30
0.0
 10
-236.966420
 20
-51.863780
 30
0.0
  0
SPLINE
  5
151
100
AcDbEntity
  8
Layer_1
 62
7
100
AcDbSpline
 70
8
 71
3
 72
8
 73
4
 74
0
 40
0
 40
0
 40
0
 40
0
 40
1
 40
1
 40
1
 40
1
 10
-166.724860
 20
-109.048780
 30
0.0
 10
-123.634842
 20
-127.879569
 30
0.0
 10
-74.647323
 20
-127.905225
 30
0.0
 10
-31.537604
 20
-109.119580
 30
0.0
  0
SPLINE
  5
152
100
AcDbEntity
  8
Layer_1
 62
7
100
AcDbSpline
 70
8
 71
3
 72
8
 73
4
 74
0
 40
0
 40
0
 40
0
 40
0
 40
1
 40
1
 40
1
 40
1
 10
38.865560
 20
-51.864650
 30
0.0
 10
50.951137
 20
-34.799862
 30
0.0
 10
59.764764
 20
-15.640345
 30
0.0
 10
64.858742
 20
4.640670
 30
0.0
  0
SPLINE
  5
153
100
AcDbEntity
  8
Layer_1
 62
7
100
AcDbSpline
 70
8
 71
3
 72
8
 73
4
 74
0
 40
0
 40
0
 40
0
 40
0
 40
1
 40
1
 40
1
 40
1
 10
65.949876
 20
-109.048780
 30
0.0
 10
68.602043
 20
-109.048780
 30
0.0
 10
71.145584
 20
-107.995211
 30
0.0
 10
73.020948
 20
-106.119845
 30
0.0
  0
SPLINE
  5
154
100
AcDbEntity
  8
Layer_1
 62
7
100
AcDbSpline
 70
8
 71
3
 72
8
 73
4
 74
0
 40
0
 40
0
 40
0
 40
0
 40
1
 40
1
 40
1
 40
1
 10
73.020948
 20
-106.119845
 30
0.0
 10
74.896312
 20
-104.244479
 30
0.0
 10
75.949880
 20
-101.700937
 30
0.0
 10
75.949877
 20
-99.048770
 30
0.0
  0
SPLINE
  5
155
100
AcDbEntity
  8
Layer_1
 62
7
100
AcDbSpline
 70
8
 71
3
 72
8
 73
4
 74
0
 40
0
 40
0
 40
0
 40
0
 40
1
 40
1
 40
1
 40
1
 10
75.949877
 20
-79.048790
 30
0.0
 10
75.949879
 20
-75.476132
 30
0.0
 10
74.043889
 20
-72.174859
 30
0.0
 10
70.949876
 20
-70.388530
 30
0.0
  0
LWPOLYLINE
  5
156
100
AcDbEntity
  8
Layer_1
 62
7
100
AcDbPolyline
 90
3
 70
0
 10
65.949876
 20
-109.048780
 30
0.0
 10
65.949876
 20
-109.119580
 30
0.0
 10
-31.537604
 20
-109.119580
 30
0.0
  0
LWPOLYLINE
  5
157
100
AcDbEntity
  8
Layer_1
 62
7
100
AcDbPolyline
 90
2
 70
0
 10
68.549878
 20
-79.048790
 30
0.0
 10
68.549878
 20
-99.048770
 30
0.0
  0
SPLINE
  5
158
100
AcDbEntity
  8
Layer_1
 62
7
100
AcDbSpline
 70
8
 71
3
 72
8
 73
4
 74
0
 40
0
 40
0
 40
0
 40
0
 40
1
 40
1
 40
1
 40
1
 10
68.549878
 20
-79.048790
 30
0.0
 10
68.549878
 20
-78.119899
 30
0.0
 10
68.054321
 20
-77.261569
 30
0.0
 10
67.249878
 20
-76.797123
 30
0.0
  0
SPLINE
  5
159
100
AcDbEntity
  8
Layer_1
 62
7
100
AcDbSpline
 70
8
 71
3
 72
8
 73
4
 74
0
 40
0
 40
0
 40
0
 40
0
 40
1
 40
1
 40
1
 40
1
 10
67.249878
 20
-76.797123
 30
0.0
 10
66.445434
 20
-76.332678
 30
0.0
 10
65.454320
 20
-76.332678
 30
0.0
 10
64.649877
 20
-76.797123
 30
0.0
  0
SPLINE
  5
15a
100
AcDbEntity
  8
Layer_1
 62
7
100
AcDbSpline
 70
8
 71
3
 72
8
 73
4
 74
0
 40
0
 40
0
 40
0
 40
0
 40
1
 40
1
 40
1
 40
1
 10
64.649877
 20
-76.797123
 30
0.0
 10
63.845433
 20
-77.261569
 30
0.0
 10
63.349876
 20
-78.119899
 30
0.0
 10
63.349876
 20
-79.048790
 30
0.0
  0
SPLINE
  5
15b
100
AcDbEntity
  8
Layer_1
 62
7
100
AcDbSpline
 70
8
 71
3
 72
8
 73
4
 74
0
 40
0
 40
0
 40
0
 40
0
 40
1
 40
1
 40
1
 40
1
 10
63.349876
 20
-99.048770
 30
0.0
 10
63.349876
 20
-99.977661
 30
0.0
 10
63.845433
 20
-100.835991
 30
0.0
 10
64.649877
 20
-101.300437
 30
0.0
  0
SPLINE
  5
15c
100
AcDbEntity
  8
Layer_1
 62
7
100
AcDbSpline
 70
8
 71
3
 72
8
 73
4
 74
0
 40
0
 40
0
 40
0
 40
0
 40
1
 40
1
 40
1
 40
1
 10
64.649877
 20
-101.300437
 30
0.0
 10
65.454320
 20
-101.764882
 30
0.0
 10
66.445434
 20
-101.764882
 30
0.0
 10
67.249878
 20
-101.300437
 30
0.0
  0
SPLINE
  5
15d
100
AcDbEntity
  8
Layer_1
 62
7
100
AcDbSpline
 70
8
 71
3
 72
8
 73
4
 74
0
 40
0
 40
0
 40
0
 40
0
 40
1
 40
1
 40
1
 40
1
 10
67.249878
 20
-101.300437
 30
0.0
 10
68.054321
 20
-100.835991
 30
0.0
 10
68.549878
 20
-99.977661
 30
0.0
 10
68.549878
 20
-99.048770
 30
0.0
  0
LWPOLYLINE
  5
15e
100
AcDbEntity
  8
Layer_1
 62
7
100
AcDbPolyline
 90
2
 70
0
 10
63.349876
 20
-99.048770
 30
0.0
 10
63.349876
 20
-79.048790
 30
0.0
  0
ENDSEC
  0
SECTION
  2
OBJECTS
  0
DICTIONARY
  5
C
330
0
100
AcDbDictionary
  3
ACAD_GROUP
350
D
  3
ACAD_MLINESTYLE
350
17
  0
DICTIONARY
  5
D
330
C
100
AcDbDictionary
  0
DICTIONARY
  5
1A
330
C
100
AcDbDictionary
  0
DICTIONARY
  5
17
330
C
100
AcDbDictionary
  3
STANDARD
350
18
  0
DICTIONARY
  5
19
330
C
100
AcDbDictionary
  0
ENDSEC
  0
EOF
