  0
SECTION
  2
HEADER
  9
$ACADVER
  1
AC1014
  9
$HANDSEED
  5
FFFF
  9
$MEASUREMENT
 70
     1
  0
ENDSEC
  0
SECTION
  2
TABLES
  0
TABLE
  2
VPORT
  5
8
330
0
100
AcDbSymbolTable
 70
     4
  0
VPORT
  5
2E
330
8
100
AcDbSymbolTableRecord
100
AcDbViewportTableRecord
  2
*ACTIVE
 70
     0
 10
0.0
 20
0.0
 11
1.0
 21
1.0
 12
210.0
 22
148.5
 13
0.0
 23
0.0
 14
10.0
 24
10.0
 15
10.0
 25
10.0
 16
0.0
 26
0.0
 36
1.0
 17
0.0
 27
0.0
 37
0.0
 40
341.0
 41
1.24
 42
50.0
 43
0.0
 44
0.0
 50
0.0
 51
0.0
 71
     0
 72
   100
 73
     1
 74
     3
 75
     0
 76
     0
 77
     0
 78
     0
  0
ENDTAB
  0
TABLE
  2
LTYPE
  5
5
330
0
100
AcDbSymbolTable
 70
     1
  0
LTYPE
  5
14
330
5
100
AcDbSymbolTableRecord
100
AcDbLinetypeTableRecord
  2
BYBLOCK
 70
     0
  3

 72
    65
 73
     0
 40
0.0
  0
LTYPE
  5
15
330
5
100
AcDbSymbolTableRecord
100
AcDbLinetypeTableRecord
  2
BYLAYER
 70
     0
  3

 72
    65
 73
     0
 40
0.0
  0
LTYPE
  5
16
330
5
100
AcDbSymbolTableRecord
100
AcDbLinetypeTableRecord
  2
CONTINUOUS
 70
     0
  3
Solid line
 72
    65
 73
     0
 40
0.0
  0
ENDTAB
  0
TABLE
  2
LAYER
  5
2
100
AcDbSymbolTable
 70
2
  0
LAYER
  5
50
100
AcDbSymbolTableRecord
100
AcDbLayerTableRecord
  2
0
 70
0
  6
CONTINUOUS
  0
LAYER
  5
51
100
AcDbSymbolTableRecord
100
AcDbLayerTableRecord
  2
Layer_1
 70
0
  6
CONTINUOUS
  0
ENDTAB
  0
TABLE
  2
STYLE
  5
3
330
0
100
AcDbSymbolTable
 70
     1
  0
STYLE
  5
11
330
3
100
AcDbSymbolTableRecord
100
AcDbTextStyleTableRecord
  2
STANDARD
 70
     0
 40
0.0
 41
1.0
 50
0.0
 71
     0
 42
2.5
  3
txt
  4

  0
ENDTAB
  0
TABLE
  2
VIEW
  5
6
330
0
100
AcDbSymbolTable
 70
     0
  0
ENDTAB
  0
TABLE
  2
UCS
  5
7
330
0
100
AcDbSymbolTable
 70
     0
  0
ENDTAB
  0
TABLE
  2
APPID
  5
9
330
0
100
AcDbSymbolTable
 70
     2
  0
APPID
  5
12
330
9
100
AcDbSymbolTableRecord
100
AcDbRegAppTableRecord
  2
ACAD
 70
     0
  0
ENDTAB
  0
TABLE
  2
DIMSTYLE
  5
A
330
0
100
AcDbSymbolTable
 70
     1
  0
DIMSTYLE
105
27
330
A
100
AcDbSymbolTableRecord
100
AcDbDimStyleTableRecord
  2
ISO-25
 70
     0
  3

  4

  5

  6

  7

 40
1.0
 41
2.5
 42
0.625
 43
3.75
 44
1.25
 45
0.0
 46
0.0
 47
0.0
 48
0.0
140
2.5
141
2.5
142
0.0
143
0.03937007874016
144
1.0
145
0.0
146
1.0
147
0.625
 71
     0
 72
     0
 73
     0
 74
     0
 75
     0
 76
     0
 77
     1
 78
     8
170
     0
171
     3
172
     1
173
     0
174
     0
175
     0
176
     0
177
     0
178
     0
270
     2
271
     2
272
     2
273
     2
274
     3
340
11
275
     0
280
     0
281
     0
282
     0
283
     0
284
     8
285
     0
286
     0
287
     3
288
     0
  0
ENDTAB
  0
TABLE
  2
BLOCK_RECORD
  5
1
330
0
100
AcDbSymbolTable
 70
     1
  0
BLOCK_RECORD
  5
1F
330
1
100
AcDbSymbolTableRecord
100
AcDbBlockTableRecord
  2
*MODEL_SPACE
  0
BLOCK_RECORD
  5
1B
330
1
100
AcDbSymbolTableRecord
100
AcDbBlockTableRecord
  2
*PAPER_SPACE
  0
ENDTAB
  0
ENDSEC
  0
SECTION
  2
BLOCKS
  0
BLOCK
  5
20
330
1F
100
AcDbEntity
  8
0
100
AcDbBlockBegin
  2
*MODEL_SPACE
 70
     0
 10
0.0
 20
0.0
 30
0.0
  3
*MODEL_SPACE
  1

  0
ENDBLK
  5
21
330
1F
100
AcDbEntity
  8
0
100
AcDbBlockEnd
  0
BLOCK
  5
1C
330
1B
100
AcDbEntity
 67
     1
  8
0
100
AcDbBlockBegin
  2
*PAPER_SPACE
  1

  0
ENDBLK
  5
1D
330
1B
100
AcDbEntity
 67
     1
  8
0
100
AcDbBlockEnd
  0
ENDSEC
  0
SECTION
  2
ENTITIES
  0
SPLINE
  5
100
100
AcDbEntity
  8
Layer_1
 62
7
100
AcDbSpline
 70
8
 71
3
 72
8
 73
4
 74
0
 40
0
 40
0
 40
0
 40
0
 40
1
 40
1
 40
1
 40
1
 10
89.532730
 20
150.172830
 30
0.0
 10
89.545262
 20
194.124849
 30
0.0
 10
66.104337
 20
234.743552
 30
0.0
 10
28.042859
 20
256.723180
 30
0.0
  0
SPLINE
  5
101
100
AcDbEntity
  8
Layer_1
 62
7
100
AcDbSpline
 70
8
 71
3
 72
8
 73
4
 74
0
 40
0
 40
0
 40
0
 40
0
 40
1
 40
1
 40
1
 40
1
 10
28.042859
 20
256.723180
 30
0.0
 10
-10.018619
 20
278.702808
 30
0.0
 10
-56.915911
 20
278.702808
 30
0.0
 10
-94.977389
 20
256.723180
 30
0.0
  0
SPLINE
  5
102
100
AcDbEntity
  8
Layer_1
 62
7
100
AcDbSpline
 70
8
 71
3
 72
8
 73
4
 74
0
 40
0
 40
0
 40
0
 40
0
 40
1
 40
1
 40
1
 40
1
 10
-94.977389
 20
256.723180
 30
0.0
 10
-133.038867
 20
234.743552
 30
0.0
 10
-156.479792
 20
194.124849
 30
0.0
 10
-156.467260
 20
150.172830
 30
0.0
  0
SPLINE
  5
103
100
AcDbEntity
  8
Layer_1
 62
7
100
AcDbSpline
 70
8
 71
3
 72
8
 73
4
 74
0
 40
0
 40
0
 40
0
 40
0
 40
1
 40
1
 40
1
 40
1
 10
-156.467260
 20
150.172830
 30
0.0
 10
-156.479792
 20
106.220811
 30
0.0
 10
-133.038867
 20
65.602108
 30
0.0
 10
-94.977389
 20
43.622480
 30
0.0
  0
SPLINE
  5
104
100
AcDbEntity
  8
Layer_1
 62
7
100
AcDbSpline
 70
8
 71
3
 72
8
 73
4
 74
0
 40
0
 40
0
 40
0
 40
0
 40
1
 40
1
 40
1
 40
1
 10
-94.977389
 20
43.622480
 30
0.0
 10
-56.915911
 20
21.642852
 30
0.0
 10
-10.018619
 20
21.642852
 30
0.0
 10
28.042859
 20
43.622480
 30
0.0
  0
SPLINE
  5
105
100
AcDbEntity
  8
Layer_1
 62
7
100
AcDbSpline
 70
8
 71
3
 72
8
 73
4
 74
0
 40
0
 40
0
 40
0
 40
0
 40
1
 40
1
 40
1
 40
1
 10
28.042859
 20
43.622480
 30
0.0
 10
66.104337
 20
65.602108
 30
0.0
 10
89.545262
 20
106.220811
 30
0.0
 10
89.532730
 20
150.172830
 30
0.0
  0
LWPOLYLINE
  5
106
100
AcDbEntity
  8
Layer_1
 62
7
100
AcDbPolyline
 90
4
 70
1
 10
-163.467260
 20
20.172830
 30
0.0
 10
-163.467260
 20
280.172838
 30
0.0
 10
96.532730
 20
280.172838
 30
0.0
 10
96.532730
 20
20.172830
 30
0.0
  0
SPLINE
  5
107
100
AcDbEntity
  8
Layer_1
 62
7
100
AcDbSpline
 70
8
 71
3
 72
8
 73
4
 74
0
 40
0
 40
0
 40
0
 40
0
 40
1
 40
1
 40
1
 40
1
 10
80.501488
 20
150.172836
 30
0.0
 10
80.501488
 20
151.590734
 30
0.0
 10
79.745049
 20
152.900925
 30
0.0
 10
78.517113
 20
153.609874
 30
0.0
  0
SPLINE
  5
108
100
AcDbEntity
  8
Layer_1
 62
7
100
AcDbSpline
 70
8
 71
3
 72
8
 73
4
 74
0
 40
0
 40
0
 40
0
 40
0
 40
1
 40
1
 40
1
 40
1
 10
78.517113
 20
153.609874
 30
0.0
 10
77.289177
 20
154.318823
 30
0.0
 10
75.776299
 20
154.318823
 30
0.0
 10
74.548363
 20
153.609874
 30
0.0
  0
SPLINE
  5
109
100
AcDbEntity
  8
Layer_1
 62
7
100
AcDbSpline
 70
8
 71
3
 72
8
 73
4
 74
0
 40
0
 40
0
 40
0
 40
0
 40
1
 40
1
 40
1
 40
1
 10
74.548363
 20
153.609874
 30
0.0
 10
73.320427
 20
152.900925
 30
0.0
 10
72.563988
 20
151.590734
 30
0.0
 10
72.563988
 20
150.172836
 30
0.0
  0
SPLINE
  5
10a
100
AcDbEntity
  8
Layer_1
 62
7
100
AcDbSpline
 70
8
 71
3
 72
8
 73
4
 74
0
 40
0
 40
0
 40
0
 40
0
 40
1
 40
1
 40
1
 40
1
 10
72.563988
 20
150.172836
 30
0.0
 10
72.563988
 20
148.754938
 30
0.0
 10
73.320427
 20
147.444747
 30
0.0
 10
74.548363
 20
146.735798
 30
0.0
  0
SPLINE
  5
10b
100
AcDbEntity
  8
Layer_1
 62
7
100
AcDbSpline
 70
8
 71
3
 72
8
 73
4
 74
0
 40
0
 40
0
 40
0
 40
0
 40
1
 40
1
 40
1
 40
1
 10
74.548363
 20
146.735798
 30
0.0
 10
75.776299
 20
146.026849
 30
0.0
 10
77.289177
 20
146.026849
 30
0.0
 10
78.517113
 20
146.735798
 30
0.0
  0
SPLINE
  5
10c
100
AcDbEntity
  8
Layer_1
 62
7
100
AcDbSpline
 70
8
 71
3
 72
8
 73
4
 74
0
 40
0
 40
0
 40
0
 40
0
 40
1
 40
1
 40
1
 40
1
 10
78.517113
 20
146.735798
 30
0.0
 10
79.745049
 20
147.444747
 30
0.0
 10
80.501488
 20
148.754938
 30
0.0
 10
80.501488
 20
150.172836
 30
0.0
  0
LWPOLYLINE
  5
10d
100
AcDbEntity
  8
Layer_1
 62
7
100
AcDbPolyline
 90
1
 70
1
 10
89.532730
 20
150.172830
 30
0.0
  0
SPLINE
  5
10e
100
AcDbEntity
  8
Layer_1
 62
7
100
AcDbSpline
 70
8
 71
3
 72
8
 73
4
 74
0
 40
0
 40
0
 40
0
 40
0
 40
1
 40
1
 40
1
 40
1
 10
86.532739
 20
150.172836
 30
0.0
 10
86.536653
 20
193.047316
 30
0.0
 10
63.665638
 20
232.666643
 30
0.0
 10
26.535902
 20
254.105013
 30
0.0
  0
SPLINE
  5
10f
100
AcDbEntity
  8
Layer_1
 62
7
100
AcDbSpline
 70
8
 71
3
 72
8
 73
4
 74
0
 40
0
 40
0
 40
0
 40
0
 40
1
 40
1
 40
1
 40
1
 10
26.535902
 20
254.105013
 30
0.0
 10
-10.593835
 20
275.543383
 30
0.0
 10
-56.340686
 20
275.543383
 30
0.0
 10
-93.470423
 20
254.105013
 30
0.0
  0
SPLINE
  5
110
100
AcDbEntity
  8
Layer_1
 62
7
100
AcDbSpline
 70
8
 71
3
 72
8
 73
4
 74
0
 40
0
 40
0
 40
0
 40
0
 40
1
 40
1
 40
1
 40
1
 10
-93.470423
 20
254.105013
 30
0.0
 10
-130.600159
 20
232.666643
 30
0.0
 10
-153.471174
 20
193.047316
 30
0.0
 10
-153.467260
 20
150.172836
 30
0.0
  0
SPLINE
  5
111
100
AcDbEntity
  8
Layer_1
 62
7
100
AcDbSpline
 70
8
 71
3
 72
8
 73
4
 74
0
 40
0
 40
0
 40
0
 40
0
 40
1
 40
1
 40
1
 40
1
 10
-153.467260
 20
150.172836
 30
0.0
 10
-153.471174
 20
107.298356
 30
0.0
 10
-130.600159
 20
67.679029
 30
0.0
 10
-93.470423
 20
46.240659
 30
0.0
  0
SPLINE
  5
112
100
AcDbEntity
  8
Layer_1
 62
7
100
AcDbSpline
 70
8
 71
3
 72
8
 73
4
 74
0
 40
0
 40
0
 40
0
 40
0
 40
1
 40
1
 40
1
 40
1
 10
-93.470423
 20
46.240659
 30
0.0
 10
-56.340686
 20
24.802289
 30
0.0
 10
-10.593835
 20
24.802289
 30
0.0
 10
26.535902
 20
46.240659
 30
0.0
  0
SPLINE
  5
113
100
AcDbEntity
  8
Layer_1
 62
7
100
AcDbSpline
 70
8
 71
3
 72
8
 73
4
 74
0
 40
0
 40
0
 40
0
 40
0
 40
1
 40
1
 40
1
 40
1
 10
26.535902
 20
46.240659
 30
0.0
 10
63.665638
 20
67.679029
 30
0.0
 10
86.536653
 20
107.298356
 30
0.0
 10
86.532739
 20
150.172836
 30
0.0
  0
LWPOLYLINE
  5
114
100
AcDbEntity
  8
Layer_1
 62
7
100
AcDbPolyline
 90
1
 70
1
 10
80.501488
 20
150.172836
 30
0.0
  0
LWPOLYLINE
  5
115
100
AcDbEntity
  8
Layer_1
 62
7
100
AcDbPolyline
 90
1
 70
1
 10
86.532739
 20
150.172836
 30
0.0
  0
LWPOLYLINE
  5
116
100
AcDbEntity
  8
Layer_1
 62
7
100
AcDbPolyline
 90
2
 70
0
 10
22.182260
 20
149.797846
 30
0.0
 10
49.682258
 20
197.429236
 30
0.0
  0
SPLINE
  5
117
100
AcDbEntity
  8
Layer_1
 62
7
100
AcDbSpline
 70
8
 71
3
 72
8
 73
4
 74
0
 40
0
 40
0
 40
0
 40
0
 40
1
 40
1
 40
1
 40
1
 10
49.682258
 20
197.429236
 30
0.0
 10
49.889209
 20
197.787941
 30
0.0
 10
49.766265
 20
198.246493
 30
0.0
 10
49.407624
 20
198.453555
 30
0.0
  0
SPLINE
  5
118
100
AcDbEntity
  8
Layer_1
 62
7
100
AcDbSpline
 70
8
 71
3
 72
8
 73
4
 74
0
 40
0
 40
0
 40
0
 40
0
 40
1
 40
1
 40
1
 40
1
 10
49.407624
 20
198.453555
 30
0.0
 10
49.048983
 20
198.660617
 30
0.0
 10
48.590393
 20
198.537814
 30
0.0
 10
48.383220
 20
198.179237
 30
0.0
  0
LWPOLYLINE
  5
119
100
AcDbEntity
  8
Layer_1
 62
7
100
AcDbPolyline
 90
2
 70
0
 10
20.883220
 20
150.547826
 30
0.0
 10
48.383220
 20
198.179237
 30
0.0
  0
SPLINE
  5
11a
100
AcDbEntity
  8
Layer_1
 62
7
100
AcDbSpline
 70
8
 71
3
 72
8
 73
4
 74
0
 40
0
 40
0
 40
0
 40
0
 40
1
 40
1
 40
1
 40
1
 10
-5.317740
 20
198.179237
 30
0.0
 10
-5.451715
 20
198.411288
 30
0.0
 10
-5.699310
 20
198.554238
 30
0.0
 10
-5.967260
 20
198.554238
 30
0.0
  0
SPLINE
  5
11b
100
AcDbEntity
  8
Layer_1
 62
7
100
AcDbSpline
 70
8
 71
3
 72
8
 73
4
 74
0
 40
0
 40
0
 40
0
 40
0
 40
1
 40
1
 40
1
 40
1
 10
-5.967260
 20
198.554238
 30
0.0
 10
-6.235210
 20
198.554238
 30
0.0
 10
-6.482805
 20
198.411288
 30
0.0
 10
-6.616780
 20
198.179237
 30
0.0
  0
SPLINE
  5
11c
100
AcDbEntity
  8
Layer_1
 62
7
100
AcDbSpline
 70
8
 71
3
 72
8
 73
4
 74
0
 40
0
 40
0
 40
0
 40
0
 40
1
 40
1
 40
1
 40
1
 10
-6.616780
 20
198.179237
 30
0.0
 10
-6.750755
 20
197.947186
 30
0.0
 10
-6.750755
 20
197.661287
 30
0.0
 10
-6.616780
 20
197.429236
 30
0.0
  0
LWPOLYLINE
  5
11d
100
AcDbEntity
  8
Layer_1
 62
7
100
AcDbPolyline
 90
2
 70
0
 10
20.883220
 20
149.797846
 30
0.0
 10
-6.616780
 20
197.429236
 30
0.0
  0
LWPOLYLINE
  5
11e
100
AcDbEntity
  8
Layer_1
 62
7
100
AcDbPolyline
 90
2
 70
0
 10
22.182260
 20
150.547826
 30
0.0
 10
-5.317740
 20
198.179237
 30
0.0
  0
SPLINE
  5
11f
100
AcDbEntity
  8
Layer_1
 62
7
100
AcDbSpline
 70
8
 71
3
 72
8
 73
4
 74
0
 40
0
 40
0
 40
0
 40
0
 40
1
 40
1
 40
1
 40
1
 10
-33.467260
 20
150.922846
 30
0.0
 10
-33.880963
 20
150.922125
 30
0.0
 10
-34.215953
 20
150.586550
 30
0.0
 10
-34.215953
 20
150.172846
 30
0.0
  0
SPLINE
  5
120
100
AcDbEntity
  8
Layer_1
 62
7
100
AcDbSpline
 70
8
 71
3
 72
8
 73
4
 74
0
 40
0
 40
0
 40
0
 40
0
 40
1
 40
1
 40
1
 40
1
 10
-34.215953
 20
150.172846
 30
0.0
 10
-34.215953
 20
149.759142
 30
0.0
 10
-33.880963
 20
149.423567
 30
0.0
 10
-33.467260
 20
149.422846
 30
0.0
  0
LWPOLYLINE
  5
121
100
AcDbEntity
  8
Layer_1
 62
7
100
AcDbPolyline
 90
2
 70
0
 10
21.532740
 20
149.422846
 30
0.0
 10
-33.467260
 20
149.422846
 30
0.0
  0
LWPOLYLINE
  5
122
100
AcDbEntity
  8
Layer_1
 62
7
100
AcDbPolyline
 90
2
 70
0
 10
21.532740
 20
150.922846
 30
0.0
 10
-33.467260
 20
150.922846
 30
0.0
  0
SPLINE
  5
123
100
AcDbEntity
  8
Layer_1
 62
7
100
AcDbSpline
 70
8
 71
3
 72
8
 73
4
 74
0
 40
0
 40
0
 40
0
 40
0
 40
1
 40
1
 40
1
 40
1
 10
-6.616780
 20
102.916456
 30
0.0
 10
-6.750758
 20
102.684405
 30
0.0
 10
-6.750761
 20
102.398504
 30
0.0
 10
-6.616788
 20
102.166450
 30
0.0
  0
SPLINE
  5
124
100
AcDbEntity
  8
Layer_1
 62
7
100
AcDbSpline
 70
8
 71
3
 72
8
 73
4
 74
0
 40
0
 40
0
 40
0
 40
0
 40
1
 40
1
 40
1
 40
1
 10
-6.616788
 20
102.166450
 30
0.0
 10
-6.482815
 20
101.934396
 30
0.0
 10
-6.235219
 20
101.791443
 30
0.0
 10
-5.967268
 20
101.791440
 30
0.0
  0
SPLINE
  5
125
100
AcDbEntity
  8
Layer_1
 62
7
100
AcDbSpline
 70
8
 71
3
 72
8
 73
4
 74
0
 40
0
 40
0
 40
0
 40
0
 40
1
 40
1
 40
1
 40
1
 10
-5.967268
 20
101.791440
 30
0.0
 10
-5.699317
 20
101.791437
 30
0.0
 10
-5.451718
 20
101.934385
 30
0.0
 10
-5.317740
 20
102.166436
 30
0.0
  0
LWPOLYLINE
  5
126
100
AcDbEntity
  8
Layer_1
 62
7
100
AcDbPolyline
 90
2
 70
0
 10
22.182260
 20
149.797846
 30
0.0
 10
-5.317740
 20
102.166436
 30
0.0
  0
LWPOLYLINE
  5
127
100
AcDbEntity
  8
Layer_1
 62
7
100
AcDbPolyline
 90
2
 70
0
 10
20.883220
 20
150.547826
 30
0.0
 10
-6.616780
 20
102.916456
 30
0.0
  0
SPLINE
  5
128
100
AcDbEntity
  8
Layer_1
 62
7
100
AcDbSpline
 70
8
 71
3
 72
8
 73
4
 74
0
 40
0
 40
0
 40
0
 40
0
 40
1
 40
1
 40
1
 40
1
 10
48.383220
 20
102.166436
 30
0.0
 10
48.590332
 20
101.807717
 30
0.0
 10
49.049030
 20
101.684815
 30
0.0
 10
49.407749
 20
101.891927
 30
0.0
  0
SPLINE
  5
129
100
AcDbEntity
  8
Layer_1
 62
7
100
AcDbSpline
 70
8
 71
3
 72
8
 73
4
 74
0
 40
0
 40
0
 40
0
 40
0
 40
1
 40
1
 40
1
 40
1
 10
49.407749
 20
101.891927
 30
0.0
 10
49.766468
 20
102.099039
 30
0.0
 10
49.889370
 20
102.557737
 30
0.0
 10
49.682258
 20
102.916456
 30
0.0
  0
LWPOLYLINE
  5
12a
100
AcDbEntity
  8
Layer_1
 62
7
100
AcDbPolyline
 90
2
 70
0
 10
22.182260
 20
150.547826
 30
0.0
 10
49.682258
 20
102.916456
 30
0.0
  0
LWPOLYLINE
  5
12b
100
AcDbEntity
  8
Layer_1
 62
7
100
AcDbPolyline
 90
2
 70
0
 10
20.883220
 20
149.797846
 30
0.0
 10
48.383220
 20
102.166436
 30
0.0
  0
SPLINE
  5
12c
100
AcDbEntity
  8
Layer_1
 62
7
100
AcDbSpline
 70
8
 71
3
 72
8
 73
4
 74
0
 40
0
 40
0
 40
0
 40
0
 40
1
 40
1
 40
1
 40
1
 10
76.532738
 20
149.422846
 30
0.0
 10
76.946441
 20
149.423567
 30
0.0
 10
77.281431
 20
149.759142
 30
0.0
 10
77.281431
 20
150.172846
 30
0.0
  0
SPLINE
  5
12d
100
AcDbEntity
  8
Layer_1
 62
7
100
AcDbSpline
 70
8
 71
3
 72
8
 73
4
 74
0
 40
0
 40
0
 40
0
 40
0
 40
1
 40
1
 40
1
 40
1
 10
77.281431
 20
150.172846
 30
0.0
 10
77.281431
 20
150.586550
 30
0.0
 10
76.946441
 20
150.922125
 30
0.0
 10
76.532738
 20
150.922846
 30
0.0
  0
LWPOLYLINE
  5
12e
100
AcDbEntity
  8
Layer_1
 62
7
100
AcDbPolyline
 90
2
 70
0
 10
21.532740
 20
150.922846
 30
0.0
 10
76.532738
 20
150.922846
 30
0.0
  0
LWPOLYLINE
  5
12f
100
AcDbEntity
  8
Layer_1
 62
7
100
AcDbPolyline
 90
2
 70
0
 10
21.532740
 20
149.422846
 30
0.0
 10
76.532738
 20
149.422846
 30
0.0
  0
LWPOLYLINE
  5
130
100
AcDbEntity
  8
Layer_1
 62
7
100
AcDbPolyline
 90
2
 70
0
 10
-5.317740
 20
198.179237
 30
0.0
 10
22.182260
 20
150.547826
 30
0.0
  0
LWPOLYLINE
  5
131
100
AcDbEntity
  8
Layer_1
 62
7
100
AcDbPolyline
 90
2
 70
0
 10
-6.616780
 20
197.429236
 30
0.0
 10
20.883220
 20
149.797846
 30
0.0
  0
LWPOLYLINE
  5
132
100
AcDbEntity
  8
Layer_1
 62
7
100
AcDbPolyline
 90
2
 70
0
 10
-5.967260
 20
197.054237
 30
0.0
 10
49.032738
 20
197.054237
 30
0.0
  0
LWPOLYLINE
  5
133
100
AcDbEntity
  8
Layer_1
 62
7
100
AcDbPolyline
 90
2
 70
0
 10
-5.967260
 20
198.554237
 30
0.0
 10
49.032738
 20
198.554237
 30
0.0
  0
LWPOLYLINE
  5
134
100
AcDbEntity
  8
Layer_1
 62
7
100
AcDbPolyline
 90
2
 70
0
 10
-5.317740
 20
197.429236
 30
0.0
 10
22.182260
 20
245.060633
 30
0.0
  0
LWPOLYLINE
  5
135
100
AcDbEntity
  8
Layer_1
 62
7
100
AcDbPolyline
 90
2
 70
0
 10
-6.616780
 20
198.179237
 30
0.0
 10
20.883220
 20
245.810634
 30
0.0
  0
LWPOLYLINE
  5
136
100
AcDbEntity
  8
Layer_1
 62
7
100
AcDbPolyline
 90
2
 70
0
 10
-5.317740
 20
198.179237
 30
0.0
 10
-32.817740
 20
245.810634
 30
0.0
  0
LWPOLYLINE
  5
137
100
AcDbEntity
  8
Layer_1
 62
7
100
AcDbPolyline
 90
2
 70
0
 10
-6.616780
 20
197.429236
 30
0.0
 10
-34.116780
 20
245.060633
 30
0.0
  0
LWPOLYLINE
  5
138
100
AcDbEntity
  8
Layer_1
 62
7
100
AcDbPolyline
 90
2
 70
0
 10
-5.967260
 20
198.554237
 30
0.0
 10
-60.967260
 20
198.554237
 30
0.0
  0
LWPOLYLINE
  5
139
100
AcDbEntity
  8
Layer_1
 62
7
100
AcDbPolyline
 90
2
 70
0
 10
-5.967260
 20
197.054237
 30
0.0
 10
-60.967260
 20
197.054237
 30
0.0
  0
LWPOLYLINE
  5
13a
100
AcDbEntity
  8
Layer_1
 62
7
100
AcDbPolyline
 90
2
 70
0
 10
-6.616780
 20
198.179237
 30
0.0
 10
-34.116780
 20
150.547826
 30
0.0
  0
SPLINE
  5
13b
100
AcDbEntity
  8
Layer_1
 62
7
100
AcDbSpline
 70
8
 71
3
 72
8
 73
4
 74
0
 40
0
 40
0
 40
0
 40
0
 40
1
 40
1
 40
1
 40
1
 10
22.182260
 20
245.060633
 30
0.0
 10
22.316235
 20
245.292684
 30
0.0
 10
22.316235
 20
245.578583
 30
0.0
 10
22.182260
 20
245.810634
 30
0.0
  0
SPLINE
  5
13c
100
AcDbEntity
  8
Layer_1
 62
7
100
AcDbSpline
 70
8
 71
3
 72
8
 73
4
 74
0
 40
0
 40
0
 40
0
 40
0
 40
1
 40
1
 40
1
 40
1
 10
22.182260
 20
245.810634
 30
0.0
 10
22.048285
 20
246.042685
 30
0.0
 10
21.800690
 20
246.185635
 30
0.0
 10
21.532740
 20
246.185635
 30
0.0
  0
SPLINE
  5
13d
100
AcDbEntity
  8
Layer_1
 62
7
100
AcDbSpline
 70
8
 71
3
 72
8
 73
4
 74
0
 40
0
 40
0
 40
0
 40
0
 40
1
 40
1
 40
1
 40
1
 10
21.532740
 20
246.185635
 30
0.0
 10
21.264790
 20
246.185635
 30
0.0
 10
21.017195
 20
246.042685
 30
0.0
 10
20.883220
 20
245.810634
 30
0.0
  0
SPLINE
  5
13e
100
AcDbEntity
  8
Layer_1
 62
7
100
AcDbSpline
 70
8
 71
3
 72
8
 73
4
 74
0
 40
0
 40
0
 40
0
 40
0
 40
1
 40
1
 40
1
 40
1
 10
-32.817740
 20
245.810634
 30
0.0
 10
-33.024847
 20
246.169354
 30
0.0
 10
-33.483541
 20
246.292261
 30
0.0
 10
-33.842261
 20
246.085154
 30
0.0
  0
SPLINE
  5
13f
100
AcDbEntity
  8
Layer_1
 62
7
100
AcDbSpline
 70
8
 71
3
 72
8
 73
4
 74
0
 40
0
 40
0
 40
0
 40
0
 40
1
 40
1
 40
1
 40
1
 10
-33.842261
 20
246.085154
 30
0.0
 10
-34.200980
 20
245.878046
 30
0.0
 10
-34.323887
 20
245.419353
 30
0.0
 10
-34.116780
 20
245.060633
 30
0.0
  0
SPLINE
  5
140
100
AcDbEntity
  8
Layer_1
 62
7
100
AcDbSpline
 70
8
 71
3
 72
8
 73
4
 74
0
 40
0
 40
0
 40
0
 40
0
 40
1
 40
1
 40
1
 40
1
 10
-60.967260
 20
198.554237
 30
0.0
 10
-61.235292
 20
198.554361
 30
0.0
 10
-61.483016
 20
198.411439
 30
0.0
 10
-61.617068
 20
198.179337
 30
0.0
  0
SPLINE
  5
141
100
AcDbEntity
  8
Layer_1
 62
7
100
AcDbSpline
 70
8
 71
3
 72
8
 73
4
 74
0
 40
0
 40
0
 40
0
 40
0
 40
1
 40
1
 40
1
 40
1
 10
-61.617068
 20
198.179337
 30
0.0
 10
-61.751119
 20
197.947235
 30
0.0
 10
-61.751119
 20
197.661239
 30
0.0
 10
-61.617068
 20
197.429137
 30
0.0
  0
SPLINE
  5
142
100
AcDbEntity
  8
Layer_1
 62
7
100
AcDbSpline
 70
8
 71
3
 72
8
 73
4
 74
0
 40
0
 40
0
 40
0
 40
0
 40
1
 40
1
 40
1
 40
1
 10
-61.617068
 20
197.429137
 30
0.0
 10
-61.483016
 20
197.197035
 30
0.0
 10
-61.235292
 20
197.054113
 30
0.0
 10
-60.967260
 20
197.054237
 30
0.0
  0
LWPOLYLINE
  5
143
100
AcDbEntity
  8
Layer_1
 62
7
100
AcDbPolyline
 90
2
 70
0
 10
-5.317740
 20
197.429236
 30
0.0
 10
-32.817740
 20
149.797846
 30
0.0
  0
LWPOLYLINE
  5
144
100
AcDbEntity
  8
Layer_1
 62
7
100
AcDbPolyline
 90
2
 70
0
 10
-60.967260
 20
198.554237
 30
0.0
 10
-5.967260
 20
198.554237
 30
0.0
  0
LWPOLYLINE
  5
145
100
AcDbEntity
  8
Layer_1
 62
7
100
AcDbPolyline
 90
2
 70
0
 10
-60.967260
 20
197.054237
 30
0.0
 10
-5.967260
 20
197.054237
 30
0.0
  0
LWPOLYLINE
  5
146
100
AcDbEntity
  8
Layer_1
 62
7
100
AcDbPolyline
 90
2
 70
0
 10
-60.317740
 20
197.429236
 30
0.0
 10
-32.817740
 20
245.060633
 30
0.0
  0
LWPOLYLINE
  5
147
100
AcDbEntity
  8
Layer_1
 62
7
100
AcDbPolyline
 90
2
 70
0
 10
-61.616780
 20
198.179237
 30
0.0
 10
-34.116780
 20
245.810634
 30
0.0
  0
LWPOLYLINE
  5
148
100
AcDbEntity
  8
Layer_1
 62
7
100
AcDbPolyline
 90
2
 70
0
 10
-60.317740
 20
198.179237
 30
0.0
 10
-87.817740
 20
245.810634
 30
0.0
  0
LWPOLYLINE
  5
149
100
AcDbEntity
  8
Layer_1
 62
7
100
AcDbPolyline
 90
2
 70
0
 10
-61.616780
 20
197.429236
 30
0.0
 10
-89.116780
 20
245.060633
 30
0.0
  0
LWPOLYLINE
  5
14a
100
AcDbEntity
  8
Layer_1
 62
7
100
AcDbPolyline
 90
2
 70
0
 10
-60.967260
 20
198.554237
 30
0.0
 10
-115.967260
 20
198.554237
 30
0.0
  0
LWPOLYLINE
  5
14b
100
AcDbEntity
  8
Layer_1
 62
7
100
AcDbPolyline
 90
2
 70
0
 10
-60.967260
 20
197.054237
 30
0.0
 10
-115.967260
 20
197.054237
 30
0.0
  0
LWPOLYLINE
  5
14c
100
AcDbEntity
  8
Layer_1
 62
7
100
AcDbPolyline
 90
2
 70
0
 10
-61.616780
 20
198.179237
 30
0.0
 10
-89.116780
 20
150.547826
 30
0.0
  0
LWPOLYLINE
  5
14d
100
AcDbEntity
  8
Layer_1
 62
7
100
AcDbPolyline
 90
2
 70
0
 10
-60.317740
 20
197.429236
 30
0.0
 10
-87.817740
 20
149.797846
 30
0.0
  0
LWPOLYLINE
  5
14e
100
AcDbEntity
  8
Layer_1
 62
7
100
AcDbPolyline
 90
2
 70
0
 10
-61.616780
 20
197.429236
 30
0.0
 10
-34.116780
 20
149.797846
 30
0.0
  0
SPLINE
  5
14f
100
AcDbEntity
  8
Layer_1
 62
7
100
AcDbSpline
 70
8
 71
3
 72
8
 73
4
 74
0
 40
0
 40
0
 40
0
 40
0
 40
1
 40
1
 40
1
 40
1
 10
-5.967260
 20
197.054237
 30
0.0
 10
-5.553182
 20
197.054428
 30
0.0
 10
-5.217606
 20
197.390159
 30
0.0
 10
-5.217606
 20
197.804237
 30
0.0
  0
SPLINE
  5
150
100
AcDbEntity
  8
Layer_1
 62
7
100
AcDbSpline
 70
8
 71
3
 72
8
 73
4
 74
0
 40
0
 40
0
 40
0
 40
0
 40
1
 40
1
 40
1
 40
1
 10
-5.217606
 20
197.804237
 30
0.0
 10
-5.217606
 20
198.218315
 30
0.0
 10
-5.553182
 20
198.554046
 30
0.0
 10
-5.967260
 20
198.554237
 30
0.0
  0
SPLINE
  5
151
100
AcDbEntity
  8
Layer_1
 62
7
100
AcDbSpline
 70
8
 71
3
 72
8
 73
4
 74
0
 40
0
 40
0
 40
0
 40
0
 40
1
 40
1
 40
1
 40
1
 10
-87.817740
 20
245.810634
 30
0.0
 10
-87.951715
 20
246.042685
 30
0.0
 10
-88.199310
 20
246.185635
 30
0.0
 10
-88.467260
 20
246.185635
 30
0.0
  0
SPLINE
  5
152
100
AcDbEntity
  8
Layer_1
 62
7
100
AcDbSpline
 70
8
 71
3
 72
8
 73
4
 74
0
 40
0
 40
0
 40
0
 40
0
 40
1
 40
1
 40
1
 40
1
 10
-88.467260
 20
246.185635
 30
0.0
 10
-88.735210
 20
246.185635
 30
0.0
 10
-88.982805
 20
246.042685
 30
0.0
 10
-89.116780
 20
245.810634
 30
0.0
  0
SPLINE
  5
153
100
AcDbEntity
  8
Layer_1
 62
7
100
AcDbSpline
 70
8
 71
3
 72
8
 73
4
 74
0
 40
0
 40
0
 40
0
 40
0
 40
1
 40
1
 40
1
 40
1
 10
-89.116780
 20
245.810634
 30
0.0
 10
-89.250755
 20
245.578583
 30
0.0
 10
-89.250755
 20
245.292684
 30
0.0
 10
-89.116780
 20
245.060633
 30
0.0
  0
SPLINE
  5
154
100
AcDbEntity
  8
Layer_1
 62
7
100
AcDbSpline
 70
8
 71
3
 72
8
 73
4
 74
0
 40
0
 40
0
 40
0
 40
0
 40
1
 40
1
 40
1
 40
1
 10
-115.967260
 20
198.554237
 30
0.0
 10
-116.381338
 20
198.554046
 30
0.0
 10
-116.716914
 20
198.218315
 30
0.0
 10
-116.716914
 20
197.804237
 30
0.0
  0
SPLINE
  5
155
100
AcDbEntity
  8
Layer_1
 62
7
100
AcDbSpline
 70
8
 71
3
 72
8
 73
4
 74
0
 40
0
 40
0
 40
0
 40
0
 40
1
 40
1
 40
1
 40
1
 10
-116.716914
 20
197.804237
 30
0.0
 10
-116.716914
 20
197.390159
 30
0.0
 10
-116.381338
 20
197.054428
 30
0.0
 10
-115.967260
 20
197.054237
 30
0.0
  0
SPLINE
  5
156
100
AcDbEntity
  8
Layer_1
 62
7
100
AcDbSpline
 70
8
 71
3
 72
8
 73
4
 74
0
 40
0
 40
0
 40
0
 40
0
 40
1
 40
1
 40
1
 40
1
 10
-89.116780
 20
150.547826
 30
0.0
 10
-89.322182
 20
150.189264
 30
0.0
 10
-89.198856
 20
149.732110
 30
0.0
 10
-88.840988
 20
149.525501
 30
0.0
  0
SPLINE
  5
157
100
AcDbEntity
  8
Layer_1
 62
7
100
AcDbSpline
 70
8
 71
3
 72
8
 73
4
 74
0
 40
0
 40
0
 40
0
 40
0
 40
1
 40
1
 40
1
 40
1
 10
-88.840988
 20
149.525501
 30
0.0
 10
-88.483121
 20
149.318892
 30
0.0
 10
-88.025554
 20
149.440677
 30
0.0
 10
-87.817740
 20
149.797846
 30
0.0
  0
LWPOLYLINE
  5
158
100
AcDbEntity
  8
Layer_1
 62
7
100
AcDbPolyline
 90
2
 70
0
 10
-60.317740
 20
198.179237
 30
0.0
 10
-32.817740
 20
150.547826
 30
0.0
  0
LWPOLYLINE
  5
159
100
AcDbEntity
  8
Layer_1
 62
7
100
AcDbPolyline
 90
2
 70
0
 10
-89.116780
 20
150.547826
 30
0.0
 10
-61.616780
 20
198.179237
 30
0.0
  0
LWPOLYLINE
  5
15a
100
AcDbEntity
  8
Layer_1
 62
7
100
AcDbPolyline
 90
2
 70
0
 10
-87.817740
 20
149.797846
 30
0.0
 10
-60.317740
 20
197.429236
 30
0.0
  0
LWPOLYLINE
  5
15b
100
AcDbEntity
  8
Layer_1
 62
7
100
AcDbPolyline
 90
2
 70
0
 10
-87.817740
 20
150.547826
 30
0.0
 10
-115.317740
 20
198.179237
 30
0.0
  0
LWPOLYLINE
  5
15c
100
AcDbEntity
  8
Layer_1
 62
7
100
AcDbPolyline
 90
2
 70
0
 10
-89.116780
 20
149.797846
 30
0.0
 10
-116.616780
 20
197.429236
 30
0.0
  0
LWPOLYLINE
  5
15d
100
AcDbEntity
  8
Layer_1
 62
7
100
AcDbPolyline
 90
2
 70
0
 10
-88.467260
 20
150.922846
 30
0.0
 10
-143.467260
 20
150.922846
 30
0.0
  0
LWPOLYLINE
  5
15e
100
AcDbEntity
  8
Layer_1
 62
7
100
AcDbPolyline
 90
2
 70
0
 10
-88.467260
 20
149.422846
 30
0.0
 10
-143.467260
 20
149.422846
 30
0.0
  0
LWPOLYLINE
  5
15f
100
AcDbEntity
  8
Layer_1
 62
7
100
AcDbPolyline
 90
2
 70
0
 10
-89.116780
 20
150.547826
 30
0.0
 10
-116.616780
 20
102.916456
 30
0.0
  0
LWPOLYLINE
  5
160
100
AcDbEntity
  8
Layer_1
 62
7
100
AcDbPolyline
 90
2
 70
0
 10
-87.817740
 20
149.797846
 30
0.0
 10
-115.317740
 20
102.166436
 30
0.0
  0
LWPOLYLINE
  5
161
100
AcDbEntity
  8
Layer_1
 62
7
100
AcDbPolyline
 90
2
 70
0
 10
-89.116780
 20
149.797846
 30
0.0
 10
-61.616780
 20
102.166436
 30
0.0
  0
LWPOLYLINE
  5
162
100
AcDbEntity
  8
Layer_1
 62
7
100
AcDbPolyline
 90
2
 70
0
 10
-87.817740
 20
150.547826
 30
0.0
 10
-60.317740
 20
102.916456
 30
0.0
  0
LWPOLYLINE
  5
163
100
AcDbEntity
  8
Layer_1
 62
7
100
AcDbPolyline
 90
2
 70
0
 10
-88.467260
 20
149.422846
 30
0.0
 10
-33.467260
 20
149.422846
 30
0.0
  0
SPLINE
  5
164
100
AcDbEntity
  8
Layer_1
 62
7
100
AcDbSpline
 70
8
 71
3
 72
8
 73
4
 74
0
 40
0
 40
0
 40
0
 40
0
 40
1
 40
1
 40
1
 40
1
 10
-60.317740
 20
197.429236
 30
0.0
 10
-60.183765
 20
197.661287
 30
0.0
 10
-60.183765
 20
197.947186
 30
0.0
 10
-60.317740
 20
198.179237
 30
0.0
  0
SPLINE
  5
165
100
AcDbEntity
  8
Layer_1
 62
7
100
AcDbSpline
 70
8
 71
3
 72
8
 73
4
 74
0
 40
0
 40
0
 40
0
 40
0
 40
1
 40
1
 40
1
 40
1
 10
-60.317740
 20
198.179237
 30
0.0
 10
-60.451715
 20
198.411288
 30
0.0
 10
-60.699310
 20
198.554238
 30
0.0
 10
-60.967260
 20
198.554238
 30
0.0
  0
SPLINE
  5
166
100
AcDbEntity
  8
Layer_1
 62
7
100
AcDbSpline
 70
8
 71
3
 72
8
 73
4
 74
0
 40
0
 40
0
 40
0
 40
0
 40
1
 40
1
 40
1
 40
1
 10
-60.967260
 20
198.554238
 30
0.0
 10
-61.235210
 20
198.554238
 30
0.0
 10
-61.482805
 20
198.411288
 30
0.0
 10
-61.616780
 20
198.179237
 30
0.0
  0
SPLINE
  5
167
100
AcDbEntity
  8
Layer_1
 62
7
100
AcDbSpline
 70
8
 71
3
 72
8
 73
4
 74
0
 40
0
 40
0
 40
0
 40
0
 40
1
 40
1
 40
1
 40
1
 10
-143.467260
 20
150.922846
 30
0.0
 10
-143.880963
 20
150.922125
 30
0.0
 10
-144.215953
 20
150.586550
 30
0.0
 10
-144.215953
 20
150.172846
 30
0.0
  0
SPLINE
  5
168
100
AcDbEntity
  8
Layer_1
 62
7
100
AcDbSpline
 70
8
 71
3
 72
8
 73
4
 74
0
 40
0
 40
0
 40
0
 40
0
 40
1
 40
1
 40
1
 40
1
 10
-144.215953
 20
150.172846
 30
0.0
 10
-144.215953
 20
149.759142
 30
0.0
 10
-143.880963
 20
149.423567
 30
0.0
 10
-143.467260
 20
149.422846
 30
0.0
  0
SPLINE
  5
169
100
AcDbEntity
  8
Layer_1
 62
7
100
AcDbSpline
 70
8
 71
3
 72
8
 73
4
 74
0
 40
0
 40
0
 40
0
 40
0
 40
1
 40
1
 40
1
 40
1
 10
-116.616780
 20
102.916456
 30
0.0
 10
-116.750758
 20
102.684405
 30
0.0
 10
-116.750761
 20
102.398504
 30
0.0
 10
-116.616788
 20
102.166450
 30
0.0
  0
SPLINE
  5
16a
100
AcDbEntity
  8
Layer_1
 62
7
100
AcDbSpline
 70
8
 71
3
 72
8
 73
4
 74
0
 40
0
 40
0
 40
0
 40
0
 40
1
 40
1
 40
1
 40
1
 10
-116.616788
 20
102.166450
 30
0.0
 10
-116.482815
 20
101.934396
 30
0.0
 10
-116.235219
 20
101.791443
 30
0.0
 10
-115.967268
 20
101.791440
 30
0.0
  0
SPLINE
  5
16b
100
AcDbEntity
  8
Layer_1
 62
7
100
AcDbSpline
 70
8
 71
3
 72
8
 73
4
 74
0
 40
0
 40
0
 40
0
 40
0
 40
1
 40
1
 40
1
 40
1
 10
-115.967268
 20
101.791440
 30
0.0
 10
-115.699317
 20
101.791437
 30
0.0
 10
-115.451718
 20
101.934385
 30
0.0
 10
-115.317740
 20
102.166436
 30
0.0
  0
SPLINE
  5
16c
100
AcDbEntity
  8
Layer_1
 62
7
100
AcDbSpline
 70
8
 71
3
 72
8
 73
4
 74
0
 40
0
 40
0
 40
0
 40
0
 40
1
 40
1
 40
1
 40
1
 10
-61.616780
 20
102.166436
 30
0.0
 10
-61.482802
 20
101.934385
 30
0.0
 10
-61.235203
 20
101.791437
 30
0.0
 10
-60.967252
 20
101.791440
 30
0.0
  0
SPLINE
  5
16d
100
AcDbEntity
  8
Layer_1
 62
7
100
AcDbSpline
 70
8
 71
3
 72
8
 73
4
 74
0
 40
0
 40
0
 40
0
 40
0
 40
1
 40
1
 40
1
 40
1
 10
-60.967252
 20
101.791440
 30
0.0
 10
-60.699301
 20
101.791443
 30
0.0
 10
-60.451705
 20
101.934396
 30
0.0
 10
-60.317732
 20
102.166450
 30
0.0
  0
SPLINE
  5
16e
100
AcDbEntity
  8
Layer_1
 62
7
100
AcDbSpline
 70
8
 71
3
 72
8
 73
4
 74
0
 40
0
 40
0
 40
0
 40
0
 40
1
 40
1
 40
1
 40
1
 10
-60.317732
 20
102.166450
 30
0.0
 10
-60.183759
 20
102.398504
 30
0.0
 10
-60.183762
 20
102.684405
 30
0.0
 10
-60.317740
 20
102.916456
 30
0.0
  0
LWPOLYLINE
  5
16f
100
AcDbEntity
  8
Layer_1
 62
7
100
AcDbPolyline
 90
2
 70
0
 10
-88.467260
 20
150.922846
 30
0.0
 10
-33.467260
 20
150.922846
 30
0.0
  0
LWPOLYLINE
  5
170
100
AcDbEntity
  8
Layer_1
 62
7
100
AcDbPolyline
 90
2
 70
0
 10
-61.616780
 20
102.166436
 30
0.0
 10
-89.116780
 20
149.797846
 30
0.0
  0
LWPOLYLINE
  5
171
100
AcDbEntity
  8
Layer_1
 62
7
100
AcDbPolyline
 90
2
 70
0
 10
-60.317740
 20
102.916456
 30
0.0
 10
-87.817740
 20
150.547826
 30
0.0
  0
LWPOLYLINE
  5
172
100
AcDbEntity
  8
Layer_1
 62
7
100
AcDbPolyline
 90
2
 70
0
 10
-60.967260
 20
103.291446
 30
0.0
 10
-115.967260
 20
103.291446
 30
0.0
  0
LWPOLYLINE
  5
173
100
AcDbEntity
  8
Layer_1
 62
7
100
AcDbPolyline
 90
2
 70
0
 10
-60.967260
 20
101.791446
 30
0.0
 10
-115.967260
 20
101.791446
 30
0.0
  0
LWPOLYLINE
  5
174
100
AcDbEntity
  8
Layer_1
 62
7
100
AcDbPolyline
 90
2
 70
0
 10
-61.616780
 20
102.916456
 30
0.0
 10
-89.116780
 20
55.285056
 30
0.0
  0
LWPOLYLINE
  5
175
100
AcDbEntity
  8
Layer_1
 62
7
100
AcDbPolyline
 90
2
 70
0
 10
-60.317740
 20
102.166436
 30
0.0
 10
-87.817740
 20
54.535036
 30
0.0
  0
LWPOLYLINE
  5
176
100
AcDbEntity
  8
Layer_1
 62
7
100
AcDbPolyline
 90
2
 70
0
 10
-61.616780
 20
102.166436
 30
0.0
 10
-34.116780
 20
54.535036
 30
0.0
  0
LWPOLYLINE
  5
177
100
AcDbEntity
  8
Layer_1
 62
7
100
AcDbPolyline
 90
2
 70
0
 10
-60.317740
 20
102.916456
 30
0.0
 10
-32.817740
 20
55.285056
 30
0.0
  0
LWPOLYLINE
  5
178
100
AcDbEntity
  8
Layer_1
 62
7
100
AcDbPolyline
 90
2
 70
0
 10
-60.967260
 20
101.791446
 30
0.0
 10
-5.967260
 20
101.791446
 30
0.0
  0
LWPOLYLINE
  5
179
100
AcDbEntity
  8
Layer_1
 62
7
100
AcDbPolyline
 90
2
 70
0
 10
-60.967260
 20
103.291446
 30
0.0
 10
-5.967260
 20
103.291446
 30
0.0
  0
LWPOLYLINE
  5
17a
100
AcDbEntity
  8
Layer_1
 62
7
100
AcDbPolyline
 90
2
 70
0
 10
-60.317740
 20
102.166436
 30
0.0
 10
-32.817740
 20
149.797846
 30
0.0
  0
SPLINE
  5
17b
100
AcDbEntity
  8
Layer_1
 62
7
100
AcDbSpline
 70
8
 71
3
 72
8
 73
4
 74
0
 40
0
 40
0
 40
0
 40
0
 40
1
 40
1
 40
1
 40
1
 10
-87.817740
 20
150.547826
 30
0.0
 10
-88.025554
 20
150.904995
 30
0.0
 10
-88.483121
 20
151.026780
 30
0.0
 10
-88.840988
 20
150.820171
 30
0.0
  0
SPLINE
  5
17c
100
AcDbEntity
  8
Layer_1
 62
7
100
AcDbSpline
 70
8
 71
3
 72
8
 73
4
 74
0
 40
0
 40
0
 40
0
 40
0
 40
1
 40
1
 40
1
 40
1
 10
-88.840988
 20
150.820171
 30
0.0
 10
-89.198856
 20
150.613562
 30
0.0
 10
-89.322182
 20
150.156408
 30
0.0
 10
-89.116780
 20
149.797846
 30
0.0
  0
SPLINE
  5
17d
100
AcDbEntity
  8
Layer_1
 62
7
100
AcDbSpline
 70
8
 71
3
 72
8
 73
4
 74
0
 40
0
 40
0
 40
0
 40
0
 40
1
 40
1
 40
1
 40
1
 10
-89.116780
 20
55.285056
 30
0.0
 10
-89.323892
 20
54.926336
 30
0.0
 10
-89.200990
 20
54.467638
 30
0.0
 10
-88.842270
 20
54.260526
 30
0.0
  0
SPLINE
  5
17e
100
AcDbEntity
  8
Layer_1
 62
7
100
AcDbSpline
 70
8
 71
3
 72
8
 73
4
 74
0
 40
0
 40
0
 40
0
 40
0
 40
1
 40
1
 40
1
 40
1
 10
-88.842270
 20
54.260526
 30
0.0
 10
-88.483550
 20
54.053414
 30
0.0
 10
-88.024852
 20
54.176316
 30
0.0
 10
-87.817740
 20
54.535036
 30
0.0
  0
SPLINE
  5
17f
100
AcDbEntity
  8
Layer_1
 62
7
100
AcDbSpline
 70
8
 71
3
 72
8
 73
4
 74
0
 40
0
 40
0
 40
0
 40
0
 40
1
 40
1
 40
1
 40
1
 10
-34.116780
 20
54.535036
 30
0.0
 10
-33.909668
 20
54.176316
 30
0.0
 10
-33.450970
 20
54.053414
 30
0.0
 10
-33.092250
 20
54.260526
 30
0.0
  0
SPLINE
  5
180
100
AcDbEntity
  8
Layer_1
 62
7
100
AcDbSpline
 70
8
 71
3
 72
8
 73
4
 74
0
 40
0
 40
0
 40
0
 40
0
 40
1
 40
1
 40
1
 40
1
 10
-33.092250
 20
54.260526
 30
0.0
 10
-32.733530
 20
54.467638
 30
0.0
 10
-32.610628
 20
54.926336
 30
0.0
 10
-32.817740
 20
55.285056
 30
0.0
  0
SPLINE
  5
181
100
AcDbEntity
  8
Layer_1
 62
7
100
AcDbSpline
 70
8
 71
3
 72
8
 73
4
 74
0
 40
0
 40
0
 40
0
 40
0
 40
1
 40
1
 40
1
 40
1
 10
-5.967260
 20
101.791446
 30
0.0
 10
-5.553557
 20
101.792167
 30
0.0
 10
-5.218567
 20
102.127742
 30
0.0
 10
-5.218567
 20
102.541446
 30
0.0
  0
SPLINE
  5
182
100
AcDbEntity
  8
Layer_1
 62
7
100
AcDbSpline
 70
8
 71
3
 72
8
 73
4
 74
0
 40
0
 40
0
 40
0
 40
0
 40
1
 40
1
 40
1
 40
1
 10
-5.218567
 20
102.541446
 30
0.0
 10
-5.218567
 20
102.955150
 30
0.0
 10
-5.553557
 20
103.290725
 30
0.0
 10
-5.967260
 20
103.291446
 30
0.0
  0
LWPOLYLINE
  5
183
100
AcDbEntity
  8
Layer_1
 62
7
100
AcDbPolyline
 90
2
 70
0
 10
-61.616780
 20
102.916456
 30
0.0
 10
-34.116780
 20
150.547826
 30
0.0
  0
LWPOLYLINE
  5
184
100
AcDbEntity
  8
Layer_1
 62
7
100
AcDbPolyline
 90
2
 70
0
 10
-5.967260
 20
101.791446
 30
0.0
 10
-60.967260
 20
101.791446
 30
0.0
  0
LWPOLYLINE
  5
185
100
AcDbEntity
  8
Layer_1
 62
7
100
AcDbPolyline
 90
2
 70
0
 10
-5.967260
 20
103.291446
 30
0.0
 10
-60.967260
 20
103.291446
 30
0.0
  0
LWPOLYLINE
  5
186
100
AcDbEntity
  8
Layer_1
 62
7
100
AcDbPolyline
 90
2
 70
0
 10
-6.616780
 20
102.916456
 30
0.0
 10
-34.116780
 20
55.285056
 30
0.0
  0
LWPOLYLINE
  5
187
100
AcDbEntity
  8
Layer_1
 62
7
100
AcDbPolyline
 90
2
 70
0
 10
-5.317740
 20
102.166436
 30
0.0
 10
-32.817740
 20
54.535036
 30
0.0
  0
LWPOLYLINE
  5
188
100
AcDbEntity
  8
Layer_1
 62
7
100
AcDbPolyline
 90
2
 70
0
 10
-6.616780
 20
102.166436
 30
0.0
 10
20.883220
 20
54.535036
 30
0.0
  0
LWPOLYLINE
  5
189
100
AcDbEntity
  8
Layer_1
 62
7
100
AcDbPolyline
 90
2
 70
0
 10
-5.317740
 20
102.916456
 30
0.0
 10
22.182260
 20
55.285056
 30
0.0
  0
LWPOLYLINE
  5
18a
100
AcDbEntity
  8
Layer_1
 62
7
100
AcDbPolyline
 90
2
 70
0
 10
-5.967260
 20
101.791446
 30
0.0
 10
49.032738
 20
101.791446
 30
0.0
  0
LWPOLYLINE
  5
18b
100
AcDbEntity
  8
Layer_1
 62
7
100
AcDbPolyline
 90
2
 70
0
 10
-5.967260
 20
103.291446
 30
0.0
 10
49.032738
 20
103.291446
 30
0.0
  0
LWPOLYLINE
  5
18c
100
AcDbEntity
  8
Layer_1
 62
7
100
AcDbPolyline
 90
2
 70
0
 10
-5.317740
 20
102.166436
 30
0.0
 10
22.182260
 20
149.797846
 30
0.0
  0
LWPOLYLINE
  5
18d
100
AcDbEntity
  8
Layer_1
 62
7
100
AcDbPolyline
 90
2
 70
0
 10
-6.616780
 20
102.916456
 30
0.0
 10
20.883220
 20
150.547826
 30
0.0
  0
LWPOLYLINE
  5
18e
100
AcDbEntity
  8
Layer_1
 62
7
100
AcDbPolyline
 90
2
 70
0
 10
-5.317740
 20
102.916456
 30
0.0
 10
-32.817740
 20
150.547826
 30
0.0
  0
SPLINE
  5
18f
100
AcDbEntity
  8
Layer_1
 62
7
100
AcDbSpline
 70
8
 71
3
 72
8
 73
4
 74
0
 40
0
 40
0
 40
0
 40
0
 40
1
 40
1
 40
1
 40
1
 10
-60.967260
 20
103.291446
 30
0.0
 10
-61.380963
 20
103.290725
 30
0.0
 10
-61.715953
 20
102.955150
 30
0.0
 10
-61.715953
 20
102.541446
 30
0.0
  0
SPLINE
  5
190
100
AcDbEntity
  8
Layer_1
 62
7
100
AcDbSpline
 70
8
 71
3
 72
8
 73
4
 74
0
 40
0
 40
0
 40
0
 40
0
 40
1
 40
1
 40
1
 40
1
 10
-61.715953
 20
102.541446
 30
0.0
 10
-61.715953
 20
102.127742
 30
0.0
 10
-61.380963
 20
101.792167
 30
0.0
 10
-60.967260
 20
101.791446
 30
0.0
  0
SPLINE
  5
191
100
AcDbEntity
  8
Layer_1
 62
7
100
AcDbSpline
 70
8
 71
3
 72
8
 73
4
 74
0
 40
0
 40
0
 40
0
 40
0
 40
1
 40
1
 40
1
 40
1
 10
20.883220
 20
54.535036
 30
0.0
 10
21.090332
 20
54.176316
 30
0.0
 10
21.549030
 20
54.053414
 30
0.0
 10
21.907750
 20
54.260526
 30
0.0
  0
SPLINE
  5
192
100
AcDbEntity
  8
Layer_1
 62
7
100
AcDbSpline
 70
8
 71
3
 72
8
 73
4
 74
0
 40
0
 40
0
 40
0
 40
0
 40
1
 40
1
 40
1
 40
1
 10
21.907750
 20
54.260526
 30
0.0
 10
22.266470
 20
54.467638
 30
0.0
 10
22.389372
 20
54.926336
 30
0.0
 10
22.182260
 20
55.285056
 30
0.0
  0
SPLINE
  5
193
100
AcDbEntity
  8
Layer_1
 62
7
100
AcDbSpline
 70
8
 71
3
 72
8
 73
4
 74
0
 40
0
 40
0
 40
0
 40
0
 40
1
 40
1
 40
1
 40
1
 10
49.032738
 20
101.791446
 30
0.0
 10
49.446441
 20
101.792167
 30
0.0
 10
49.781431
 20
102.127742
 30
0.0
 10
49.781431
 20
102.541446
 30
0.0
  0
SPLINE
  5
194
100
AcDbEntity
  8
Layer_1
 62
7
100
AcDbSpline
 70
8
 71
3
 72
8
 73
4
 74
0
 40
0
 40
0
 40
0
 40
0
 40
1
 40
1
 40
1
 40
1
 10
49.781431
 20
102.541446
 30
0.0
 10
49.781431
 20
102.955150
 30
0.0
 10
49.446441
 20
103.290725
 30
0.0
 10
49.032738
 20
103.291446
 30
0.0
  0
LWPOLYLINE
  5
195
100
AcDbEntity
  8
Layer_1
 62
7
100
AcDbPolyline
 90
2
 70
0
 10
-6.616780
 20
102.166436
 30
0.0
 10
-34.116780
 20
149.797846
 30
0.0
  0
ENDSEC
  0
SECTION
  2
OBJECTS
  0
DICTIONARY
  5
C
330
0
100
AcDbDictionary
  3
ACAD_GROUP
350
D
  3
ACAD_MLINESTYLE
350
17
  0
DICTIONARY
  5
D
330
C
100
AcDbDictionary
  0
DICTIONARY
  5
1A
330
C
100
AcDbDictionary
  0
DICTIONARY
  5
17
330
C
100
AcDbDictionary
  3
STANDARD
350
18
  0
DICTIONARY
  5
19
330
C
100
AcDbDictionary
  0
ENDSEC
  0
EOF
