0
SECTION
2
HEADER
9
$INSUNITS
70
4
9
$ACADVER
1
AC1014
9
$HANDSEED
5
FFFF
0
ENDSEC
0
SECTION
2
TABLES
0
TABLE
2
VPORT
5
8
100
AcDbSymbolTable
0
ENDTAB
0
TABLE
2
LTYPE
5
5
100
AcDbSymbolTable
0
LTYPE
5
14
100
AcDbSymbolTableRecord
100
AcDbLinetypeTableRecord
2
BYBLOCK
70
0
0
LTYPE
5
15
100
AcDbSymbolTableRecord
100
AcDbLinetypeTableRecord
2
BYLAYER
70
0
0
ENDTAB
0
TABLE
2
LAYER
5
2
100
AcDbSymbolTable
70
2
0
LAYER
5
50
100
AcDbSymbolTableRecord
100
AcDbLayerTableRecord
2
0
70
0
6
CONTINUOUS
0
ENDTAB
0
TABLE
2
STYLE
5
3
100
AcDbSymbolTable
70
1
0
STYLE
5
11
100
AcDbSymbolTableRecord
100
AcDbTextStyleTableRecord
2
STANDARD
70
0
0
ENDTAB
0
TABLE
2
VIEW
5
6
100
AcDbSymbolTable
70
0
0
ENDTAB
0
TABLE
2
UCS
5
7
100
AcDbSymbolTable
70
0
0
ENDTAB
0
TABLE
2
APPID
5
9
100
AcDbSymbolTable
70
2
0
APPID
5
12
100
AcDbSymbolTableRecord
100
AcDbRegAppTableRecord
2
ACAD
70
0
0
ENDTAB
0
TABLE
2
DIMSTYLE
5
A
100
AcDbSymbolTable
70
1
0
ENDTAB
0
TABLE
2
BLOCK_RECORD
5
1
100
AcDbSymbolTable
70
1
0
BLOCK_RECORD
5
1F
100
AcDbSymbolTableRecord
100
AcDbBlockTableRecord
2
*MODEL_SPACE
0
BLOCK_RECORD
5
1B
100
AcDbSymbolTableRecord
100
AcDbBlockTableRecord
2
*PAPER_SPACE
0
ENDTAB
0
ENDSEC
0
SECTION
2
BLOCKS
0
BLOCK
5
20
100
AcDbEntity
100
AcDbBlockBegin
2
*MODEL_SPACE
0
ENDBLK
5
21
100
AcDbEntity
100
AcDbBlockEnd
0
BLOCK
5
1C
100
AcDbEntity
100
AcDbBlockBegin
2
*PAPER_SPACE
0
ENDBLK
5
1D
100
AcDbEntity
100
AcDbBlockEnd
0
ENDSEC
0
SECTION
2
ENTITIES
0
CIRCLE
5
100
100
AcDbEntity
8
0
100
AcDbCircle
10
110
20
0
30
0
40
3.9687499999999964
210
0
220
-0
230
1
0
CIRCLE
5
101
100
AcDbEntity
8
0
100
AcDbCircle
10
0
20
0
30
0
40
120
210
0
220
-0
230
1
0
LINE
5
102
100
AcDbEntity
8
0
100
AcDbLine
10
0
20
0
30
0
11
110
21
0
31
0
0
LINE
5
103
100
AcDbEntity
8
0
100
AcDbLine
10
55
20
0
30
0
11
82.5
21
47.631397208144122
31
0
0
LINE
5
104
100
AcDbEntity
8
0
100
AcDbLine
10
55
20
0
30
0
11
110
21
0
31
0
0
LINE
5
105
100
AcDbEntity
8
0
100
AcDbLine
10
55.649519052838329
20
-0.37500000000000011
30
0
11
83.149519052838329
21
47.256397208144129
31
0
0
LINE
5
106
100
AcDbEntity
8
0
100
AcDbLine
10
54.350480947161671
20
0.37500000000000011
30
0
11
81.850480947161671
21
48.006397208144122
31
0
0
ARC
5
107
100
AcDbEntity
8
0
100
AcDbCircle
10
82.5
20
47.631397208144122
30
0
40
0.74999999999999523
210
0
220
0
230
1
100
AcDbArc
50
-29.99999999999951
51
150.00000000000003
0
LINE
5
108
100
AcDbEntity
8
0
100
AcDbLine
10
54.350480947161671
20
-0.37499999999999645
30
0
11
26.850480947161689
21
47.256397208144129
31
0
0
ARC
5
109
100
AcDbEntity
8
0
100
AcDbCircle
10
27.500000000000004
20
47.631397208144122
30
0
40
0.74999999999999523
210
0
220
-0
230
1
100
AcDbArc
50
30.000000000000135
51
210.00000000000009
0
LINE
5
110
100
AcDbEntity
8
0
100
AcDbLine
10
55.649519052838329
20
0.37499999999999645
30
0
11
28.149519052838329
21
48.006397208144122
31
0
0
LINE
5
111
100
AcDbEntity
8
0
100
AcDbLine
10
55
20
-0.74999999999999289
30
0
11
-1.7763568394002505e-14
21
-0.74999999999997513
31
0
0
ARC
5
112
100
AcDbEntity
8
0
100
AcDbCircle
10
-1.7763568394002505e-14
20
1.7763568394002505e-14
30
0
40
0.74999999999999289
210
0
220
-0
230
1
100
AcDbArc
50
90
51
270
0
LINE
5
113
100
AcDbEntity
8
0
100
AcDbLine
10
55
20
0.75000000000000178
30
0
11
-1.7763568394002505e-14
21
0.75000000000001066
31
0
0
LINE
5
114
100
AcDbEntity
8
0
100
AcDbLine
10
55.649519052838329
20
-0.37500000000000022
30
0
11
28.149519052838325
21
-48.006397208144122
31
0
0
ARC
5
115
100
AcDbEntity
8
0
100
AcDbCircle
10
27.5
20
-47.631397208144122
30
0
40
0.74999999999999523
210
0
220
0
230
1
100
AcDbArc
50
150.00000000000034
51
329.99999999999989
0
LINE
5
116
100
AcDbEntity
8
0
100
AcDbLine
10
54.350480947161671
20
0.37500000000000022
30
0
11
26.850480947161675
21
-47.256397208144129
31
0
0
LINE
5
117
100
AcDbEntity
8
0
100
AcDbLine
10
55.649519052838329
20
0.37500000000000533
30
0
11
83.149519052838315
21
-47.256397208144122
31
0
0
ARC
5
118
100
AcDbEntity
8
0
100
AcDbCircle
10
82.499999999999986
20
-47.631397208144115
30
0
40
0.74999999999999523
210
0
220
0
230
1
100
AcDbArc
50
-150.00000000000048
51
29.999999999999524
0
LINE
5
119
100
AcDbEntity
8
0
100
AcDbLine
10
54.350480947161671
20
-0.37499999999999645
30
0
11
81.850480947161657
21
-48.006397208144108
31
0
0
LINE
5
120
100
AcDbEntity
8
0
100
AcDbLine
10
55
20
0.75000000000000178
30
0
11
110
21
0.74999999999995737
31
0
0
ARC
5
121
100
AcDbEntity
8
0
100
AcDbCircle
10
110
20
-3.5527136788005009e-14
30
0
40
0.75000000000000178
210
0
220
0
230
1
100
AcDbArc
50
-90
51
90
0
LINE
5
122
100
AcDbEntity
8
0
100
AcDbLine
10
55
20
-0.74999999999999289
30
0
11
110
21
-0.7500000000000373
31
0
0
LINE
5
123
100
AcDbEntity
8
0
100
AcDbLine
10
28.149519052838336
20
48.006397208144151
30
0
11
55.649519052838329
21
0.37500000000001632
31
0
0
LINE
5
124
100
AcDbEntity
8
0
100
AcDbLine
10
26.850480947161685
20
47.256397208144151
30
0
11
54.350480947161685
21
-0.37499999999998102
31
0
0
LINE
5
125
100
AcDbEntity
8
0
100
AcDbLine
10
27.500000000000007
20
46.881397208144158
30
0
11
82.5
21
46.881397208144129
31
0
0
LINE
5
126
100
AcDbEntity
8
0
100
AcDbLine
10
27.500000000000004
20
48.381397208144151
30
0
11
82.5
21
48.381397208144136
31
0
0
LINE
5
127
100
AcDbEntity
8
0
100
AcDbLine
10
28.149519052838329
20
47.256397208144151
30
0
11
55.649519052838379
21
94.887794416288244
31
0
0
LINE
5
128
100
AcDbEntity
8
0
100
AcDbLine
10
26.850480947161678
20
48.006397208144158
30
0
11
54.350480947161728
21
95.637794416288244
31
0
0
LINE
5
129
100
AcDbEntity
8
0
100
AcDbLine
10
28.149519052838336
20
48.006397208144151
30
0
11
0.64951905283834088
21
95.637794416288259
31
0
0
LINE
5
130
100
AcDbEntity
8
0
100
AcDbLine
10
26.850480947161685
20
47.256397208144151
30
0
11
-0.64951905283830114
21
94.887794416288273
31
0
0
LINE
5
131
100
AcDbEntity
8
0
100
AcDbLine
10
27.500000000000007
20
48.381397208144143
30
0
11
-27.499999999999982
21
48.381397208144151
31
0
0
LINE
5
132
100
AcDbEntity
8
0
100
AcDbLine
10
27.500000000000007
20
46.881397208144158
30
0
11
-27.499999999999986
21
46.881397208144165
31
0
0
LINE
5
133
100
AcDbEntity
8
0
100
AcDbLine
10
26.850480947161678
20
48.006397208144158
30
0
11
-0.64951905283834055
21
0.37500000000001427
31
0
0
LINE
5
134
100
AcDbEntity
8
0
100
AcDbLine
10
28.149519052838329
20
47.256397208144151
30
0
11
0.64951905283830502
21
-0.37499999999997874
31
0
0
ARC
5
135
100
AcDbEntity
8
0
100
AcDbCircle
10
55.000000000000007
20
1.9824593589569133e-14
30
0
40
0.74999999999999734
210
0
220
0
230
1
100
AcDbArc
50
-149.99999999999966
51
30.000000000000028
0
ARC
5
136
100
AcDbEntity
8
0
100
AcDbCircle
10
55.000000000000043
20
95.262794416288244
30
0
40
0.75000000000000289
210
0
220
0
230
1
100
AcDbArc
50
-29.999999999999712
51
149.99999999999946
0
ARC
5
137
100
AcDbEntity
8
0
100
AcDbCircle
10
1.5383701491068516e-14
20
95.262794416288273
30
0
40
0.74999999999999523
210
0
220
-0
230
1
100
AcDbArc
50
29.999999999999186
51
210.00000000000045
0
ARC
5
138
100
AcDbEntity
8
0
100
AcDbCircle
10
-27.499999999999993
20
47.631397208144158
30
0
40
0.74999999999999289
210
0
220
-0
230
1
100
AcDbArc
50
89.99999999999919
51
270.00000000000051
0
LINE
5
139
100
AcDbEntity
8
0
100
AcDbLine
10
-27.5
20
48.381397208144179
30
0
11
27.500000000000004
21
48.381397208144165
31
0
0
LINE
5
140
100
AcDbEntity
8
0
100
AcDbLine
10
-27.5
20
46.881397208144186
30
0
11
27.500000000000004
21
46.881397208144165
31
0
0
LINE
5
141
100
AcDbEntity
8
0
100
AcDbLine
10
-26.850480947161675
20
47.256397208144179
30
0
11
0.64951905283834088
21
94.887794416288273
31
0
0
LINE
5
142
100
AcDbEntity
8
0
100
AcDbLine
10
-28.149519052838329
20
48.006397208144179
30
0
11
-0.64951905283831002
21
95.637794416288273
31
0
0
LINE
5
143
100
AcDbEntity
8
0
100
AcDbLine
10
-26.850480947161678
20
48.006397208144172
30
0
11
-54.350480947161621
21
95.637794416288315
31
0
0
LINE
5
144
100
AcDbEntity
8
0
100
AcDbLine
10
-28.149519052838329
20
47.256397208144179
30
0
11
-55.649519052838272
21
94.88779441628833
31
0
0
LINE
5
145
100
AcDbEntity
8
0
100
AcDbLine
10
-27.5
20
48.381397208144179
30
0
11
-82.500000000000014
21
48.381397208144186
31
0
0
LINE
5
146
100
AcDbEntity
8
0
100
AcDbLine
10
-27.5
20
46.881397208144186
30
0
11
-82.500000000000014
21
46.8813972081442
31
0
0
LINE
5
147
100
AcDbEntity
8
0
100
AcDbLine
10
-28.149519052838325
20
48.006397208144179
30
0
11
-55.649519052838336
21
0.37500000000006073
31
0
0
LINE
5
148
100
AcDbEntity
8
0
100
AcDbLine
10
-26.850480947161675
20
47.256397208144179
30
0
11
-54.350480947161692
21
-0.37499999999993217
31
0
0
LINE
5
149
100
AcDbEntity
8
0
100
AcDbLine
10
-28.149519052838329
20
47.256397208144179
30
0
11
-0.64951905283834077
21
-0.37499999999997857
31
0
0
LINE
5
150
100
AcDbEntity
8
0
100
AcDbLine
10
-26.850480947161678
20
48.006397208144172
30
0
11
0.64951905283830524
21
0.3750000000000141
31
0
0
ARC
5
151
100
AcDbEntity
8
0
100
AcDbCircle
10
27.500000000000004
20
47.631397208144158
30
0
40
0.74999999999999289
210
0
220
0
230
1
100
AcDbArc
50
-90
51
90
0
ARC
5
152
100
AcDbEntity
8
0
100
AcDbCircle
10
-54.999999999999957
20
95.262794416288315
30
0
40
0.75000000000000289
210
0
220
-0
230
1
100
AcDbArc
50
29.999999999999726
51
209.99999999999957
0
ARC
5
153
100
AcDbEntity
8
0
100
AcDbCircle
10
-82.500000000000014
20
47.631397208144193
30
0
40
0.74999999999999289
210
0
220
-0
230
1
100
AcDbArc
50
90
51
270
0
ARC
5
154
100
AcDbEntity
8
0
100
AcDbCircle
10
-55.000000000000007
20
5.9792622476074765e-14
30
0
40
0.74999999999999734
210
0
220
0
230
1
100
AcDbArc
50
149.99999999999997
51
329.99999999999994
0
LINE
5
155
100
AcDbEntity
8
0
100
AcDbLine
10
-55.649519052838357
20
0.37500000000004252
30
0
11
-28.149519052838357
21
48.006397208144158
31
0
0
LINE
5
156
100
AcDbEntity
8
0
100
AcDbLine
10
-54.350480947161714
20
-0.37499999999995803
30
0
11
-26.850480947161707
21
47.256397208144165
31
0
0
LINE
5
157
100
AcDbEntity
8
0
100
AcDbLine
10
-54.350480947161714
20
0.37500000000003864
30
0
11
-81.850480947161685
21
48.006397208144158
31
0
0
LINE
5
158
100
AcDbEntity
8
0
100
AcDbLine
10
-55.649519052838357
20
-0.37499999999996303
30
0
11
-83.149519052838343
21
47.256397208144165
31
0
0
LINE
5
159
100
AcDbEntity
8
0
100
AcDbLine
10
-55.000000000000036
20
0.75000000000003519
30
0
11
-110.00000000000003
21
0.75000000000008626
31
0
0
LINE
5
160
100
AcDbEntity
8
0
100
AcDbLine
10
-55.000000000000036
20
-0.74999999999995948
30
0
11
-110.00000000000003
21
-0.74999999999990841
31
0
0
LINE
5
161
100
AcDbEntity
8
0
100
AcDbLine
10
-55.649519052838357
20
0.37500000000004247
30
0
11
-83.149519052838357
21
-47.25639720814408
31
0
0
LINE
5
162
100
AcDbEntity
8
0
100
AcDbLine
10
-54.350480947161714
20
-0.37499999999995792
30
0
11
-81.850480947161714
21
-48.00639720814408
31
0
0
LINE
5
163
100
AcDbEntity
8
0
100
AcDbLine
10
-55.649519052838357
20
-0.37499999999995415
30
0
11
-28.149519052838372
21
-48.006397208144087
31
0
0
LINE
5
164
100
AcDbEntity
8
0
100
AcDbLine
10
-54.350480947161714
20
0.37500000000003864
30
0
11
-26.850480947161728
21
-47.256397208144094
31
0
0
LINE
5
165
100
AcDbEntity
8
0
100
AcDbLine
10
-55.000000000000036
20
-0.74999999999995948
30
0
11
-1.7855416903938556e-14
21
-0.74999999999997513
31
0
0
LINE
5
166
100
AcDbEntity
8
0
100
AcDbLine
10
-55.000000000000036
20
0.75000000000003519
30
0
11
-1.7671719884066456e-14
21
0.75000000000001066
31
0
0
ARC
5
167
100
AcDbEntity
8
0
100
AcDbCircle
10
-27.500000000000032
20
47.631397208144158
30
0
40
0.74999999999999523
210
0
220
0
230
1
100
AcDbArc
50
-29.999999999999662
51
149.99999999999989
0
ARC
5
168
100
AcDbEntity
8
0
100
AcDbCircle
10
-110.00000000000003
20
8.4525388366630898e-14
30
0
40
0.75000000000000178
210
0
220
-0
230
1
100
AcDbArc
50
90
51
270
0
ARC
5
169
100
AcDbEntity
8
0
100
AcDbCircle
10
-82.500000000000028
20
-47.63139720814408
30
0
40
0.74999999999999523
210
0
220
0
230
1
100
AcDbArc
50
150.00000000000003
51
329.99999999999943
0
ARC
5
170
100
AcDbEntity
8
0
100
AcDbCircle
10
-27.500000000000043
20
-47.631397208144087
30
0
40
0.74999999999999523
210
0
220
0
230
1
100
AcDbArc
50
-150.00000000000003
51
30.000000000000071
0
LINE
5
171
100
AcDbEntity
8
0
100
AcDbLine
10
-28.149519052838379
20
-48.006397208144101
30
0
11
-55.649519052838357
21
-0.37499999999997191
31
0
0
LINE
5
172
100
AcDbEntity
8
0
100
AcDbLine
10
-26.850480947161728
20
-47.256397208144101
30
0
11
-54.350480947161721
21
0.37500000000002542
31
0
0
LINE
5
173
100
AcDbEntity
8
0
100
AcDbLine
10
-27.500000000000053
20
-46.881397208144108
30
0
11
-82.500000000000014
21
-46.88139720814408
31
0
0
LINE
5
174
100
AcDbEntity
8
0
100
AcDbLine
10
-27.50000000000005
20
-48.381397208144108
30
0
11
-82.500000000000028
21
-48.381397208144072
31
0
0
LINE
5
175
100
AcDbEntity
8
0
100
AcDbLine
10
-28.149519052838375
20
-47.256397208144108
30
0
11
-55.649519052838428
21
-94.887794416288202
31
0
0
LINE
5
176
100
AcDbEntity
8
0
100
AcDbLine
10
-26.850480947161724
20
-48.006397208144108
30
0
11
-54.350480947161785
21
-95.637794416288187
31
0
0
LINE
5
177
100
AcDbEntity
8
0
100
AcDbLine
10
-28.149519052838379
20
-48.006397208144101
30
0
11
-0.64951905283839417
21
-95.637794416288216
31
0
0
LINE
5
178
100
AcDbEntity
8
0
100
AcDbLine
10
-26.850480947161728
20
-47.256397208144101
30
0
11
0.64951905283824785
21
-94.887794416288216
31
0
0
LINE
5
179
100
AcDbEntity
8
0
100
AcDbLine
10
-27.500000000000053
20
-48.381397208144101
30
0
11
27.499999999999932
21
-48.381397208144115
31
0
0
LINE
5
180
100
AcDbEntity
8
0
100
AcDbLine
10
-27.500000000000053
20
-46.881397208144108
30
0
11
27.499999999999936
21
-46.881397208144129
31
0
0
LINE
5
181
100
AcDbEntity
8
0
100
AcDbLine
10
-26.850480947161724
20
-48.006397208144108
30
0
11
0.64951905283830491
21
-0.37499999999997879
31
0
0
LINE
5
182
100
AcDbEntity
8
0
100
AcDbLine
10
-28.149519052838375
20
-47.256397208144108
30
0
11
-0.64951905283834044
21
0.37500000000001432
31
0
0
ARC
5
183
100
AcDbEntity
8
0
100
AcDbCircle
10
-55.000000000000036
20
2.4584327395437132e-14
30
0
40
0.74999999999998967
210
0
220
-0
230
1
100
AcDbArc
50
30.00000000000059
51
210
0
ARC
5
184
100
AcDbEntity
8
0
100
AcDbCircle
10
-55.000000000000099
20
-95.262794416288187
30
0
40
0.75000000000000289
210
0
220
0
230
1
100
AcDbArc
50
150.00000000000097
51
329.99999999999943
0
ARC
5
185
100
AcDbEntity
8
0
100
AcDbCircle
10
-7.755619087007727e-14
20
-95.262794416288216
30
0
40
0.74999999999998745
210
0
220
0
230
1
100
AcDbArc
50
-149.99999999999955
51
30.000000000000135
0
ARC
5
186
100
AcDbEntity
8
0
100
AcDbCircle
10
27.499999999999932
20
-47.631397208144122
30
0
40
0.74999999999999289
210
0
220
0
230
1
100
AcDbArc
50
-90
51
89.99999999999973
0
LINE
5
187
100
AcDbEntity
8
0
100
AcDbLine
10
27.499999999999943
20
-48.381397208144151
30
0
11
-27.500000000000057
21
-48.381397208144108
31
0
0
LINE
5
188
100
AcDbEntity
8
0
100
AcDbLine
10
27.499999999999943
20
-46.881397208144158
30
0
11
-27.500000000000057
21
-46.881397208144115
31
0
0
LINE
5
189
100
AcDbEntity
8
0
100
AcDbLine
10
26.850480947161618
20
-47.256397208144151
30
0
11
-0.64951905283842082
21
-94.88779441628823
31
0
0
LINE
5
190
100
AcDbEntity
8
0
100
AcDbLine
10
28.149519052838272
20
-48.006397208144158
30
0
11
0.64951905283823008
21
-95.63779441628823
31
0
0
LINE
5
191
100
AcDbEntity
8
0
100
AcDbLine
10
26.850480947161621
20
-48.006397208144158
30
0
11
54.350480947161543
21
-95.637794416288315
31
0
0
LINE
5
192
100
AcDbEntity
8
0
100
AcDbLine
10
28.149519052838272
20
-47.256397208144165
30
0
11
55.649519052838194
21
-94.88779441628833
31
0
0
LINE
5
193
100
AcDbEntity
8
0
100
AcDbLine
10
27.499999999999943
20
-48.381397208144151
30
0
11
82.499999999999943
21
-48.381397208144193
31
0
0
LINE
5
194
100
AcDbEntity
8
0
100
AcDbLine
10
27.499999999999943
20
-46.881397208144158
30
0
11
82.499999999999943
21
-46.8813972081442
31
0
0
LINE
5
195
100
AcDbEntity
8
0
100
AcDbLine
10
28.149519052838269
20
-48.006397208144158
30
0
11
55.649519052838301
21
-0.37500000000005185
31
0
0
LINE
5
196
100
AcDbEntity
8
0
100
AcDbLine
10
26.850480947161618
20
-47.256397208144151
30
0
11
54.350480947161657
21
0.37499999999993661
31
0
0
LINE
5
197
100
AcDbEntity
8
0
100
AcDbLine
10
28.149519052838272
20
-47.256397208144165
30
0
11
0.64951905283830536
21
0.37500000000001371
31
0
0
LINE
5
198
100
AcDbEntity
8
0
100
AcDbLine
10
26.850480947161621
20
-48.006397208144158
30
0
11
-0.64951905283834088
21
-0.37499999999997818
31
0
0
ARC
5
199
100
AcDbEntity
8
0
100
AcDbCircle
10
-27.500000000000057
20
-47.631397208144115
30
0
40
0.75000000000000178
210
0
220
-0
230
1
100
AcDbArc
50
90
51
270
0
ARC
5
200
100
AcDbEntity
8
0
100
AcDbCircle
10
54.999999999999872
20
-95.262794416288315
30
0
40
0.75000000000000289
210
0
220
0
230
1
100
AcDbArc
50
-150.00000000000003
51
29.999999999999329
0
ARC
5
201
100
AcDbEntity
8
0
100
AcDbCircle
10
82.499999999999943
20
-47.631397208144193
30
0
40
0.75000000000000178
210
0
220
0
230
1
100
AcDbArc
50
-90
51
90
0
ARC
5
202
100
AcDbEntity
8
0
100
AcDbCircle
10
54.999999999999972
20
-5.0910838279073513e-14
30
0
40
0.74999999999999734
210
0
220
0
230
1
100
AcDbArc
50
-30.000000000000071
51
150.00000000000028
0
ENDSEC
0
SECTION
2
OBJECTS
0
DICTIONARY
5
C
100
AcDbDictionary
3
ACAD_GROUP
350
D
3
ACAD_MLINESTYLE
350
17
0
DICTIONARY
5
D
100
AcDbDictionary
0
DICTIONARY
5
1A
330
C
100
AcDbDictionary
0
DICTIONARY
5
17
100
AcDbDictionary
0
ENDSEC
0
EOF
